<?xml version="1.0" encoding="utf-8"?>
<!-- Generator: Adobe Illustrator 14.0.0, SVG Export Plug-In . SVG Version: 6.00 Build 43363)  -->
<!DOCTYPE svg PUBLIC "-//W3C//DTD SVG 1.1//EN" "http://www.w3.org/Graphics/SVG/1.1/DTD/svg11.dtd">
<svg version="1.1" id="Layer_1" xmlns="http://www.w3.org/2000/svg" xmlns:xlink="http://www.w3.org/1999/xlink" x="0px" y="0px"
	 width="212.593px" height="545.575px" viewBox="0 0 212.593 545.575" enable-background="new 0 0 212.593 545.575"
	 xml:space="preserve">
<g>
	<g>
		<polygon fill="#666666" points="55.955,72.527 35.291,60.501 56.262,49.019 58.242,39.86 43.158,25.648 38.107,49.019 
			17.135,60.501 37.801,72.527 42.242,96.021 57.771,82.134 		"/>
	</g>
	<g>
		<polygon fill="#666666" points="82.844,72.527 62.18,60.501 83.15,49.019 85.131,39.86 70.047,25.648 64.996,49.019 
			44.023,60.501 64.689,72.527 69.131,96.021 84.66,82.134 		"/>
	</g>
	<g>
		<polygon fill="#666666" points="109.733,72.527 89.069,60.501 110.04,49.019 112.021,39.86 96.937,25.648 91.886,49.019 
			70.913,60.501 91.579,72.527 96.021,96.021 111.55,82.134 		"/>
	</g>
	<g>
		<polygon fill="#666666" points="136.622,72.527 115.958,60.501 136.929,49.019 138.909,39.86 123.825,25.648 118.774,49.019 
			97.802,60.501 118.468,72.527 122.909,96.021 138.438,82.134 		"/>
	</g>
	<polygon fill="#666666" points="148.378,25.649 165.778,42.046 189.565,39.628 179.351,61.244 188.999,83.12 165.284,80.083 
		147.46,96.021 143.019,72.528 122.354,60.502 143.325,49.019 	"/>
</g>
<g>
	<g>
		<g>
			<polygon fill="#F7931E" points="109.832,321.195 89.168,309.17 110.139,297.686 112.09,288.66 96.868,274.316 91.815,297.686 
				70.845,309.17 91.509,321.195 95.95,344.688 111.624,330.674 			"/>
		</g>
		<g>
			<polygon fill="#FBB03B" points="110.973,327.23 97.911,338.91 94.457,320.637 94.202,319.291 93.018,318.602 76.945,309.248 
				93.256,300.316 94.458,299.66 94.748,298.32 98.678,280.143 111.35,292.084 112.09,288.66 96.868,274.316 91.815,297.686 
				70.845,309.17 91.509,321.195 95.95,344.688 111.624,330.674 			"/>
		</g>
	</g>
	<g>
		<polygon fill="#666666" points="55.955,321.195 35.291,309.168 56.262,297.686 58.242,288.527 43.158,274.315 38.107,297.686 
			17.135,309.168 37.801,321.195 42.242,344.688 57.771,330.801 		"/>
	</g>
	<g>
		<polygon fill="#666666" points="82.844,321.195 62.18,309.168 83.15,297.686 85.131,288.527 70.047,274.315 64.996,297.686 
			44.023,309.168 64.689,321.195 69.131,344.688 84.66,330.801 		"/>
	</g>
	<g>
		<polygon fill="#666666" points="136.622,321.195 115.958,309.168 136.929,297.686 138.909,288.527 123.825,274.315 
			118.774,297.686 97.802,309.168 118.468,321.195 122.909,344.688 138.438,330.801 		"/>
	</g>
	<polygon fill="#666666" points="148.378,274.316 165.778,290.713 189.565,288.295 179.351,309.912 188.999,331.787 165.284,328.75 
		147.46,344.688 143.019,321.195 122.354,309.17 143.325,297.686 	"/>
</g>
<g>
	<g>
		<g>
			<polygon fill="#F7931E" points="136.721,407.861 116.057,395.836 137.027,384.352 138.979,375.326 123.757,360.982 
				118.704,384.352 97.733,395.836 118.397,407.861 122.839,431.354 138.513,417.34 			"/>
		</g>
		<g>
			<polygon fill="#FBB03B" points="137.861,413.896 124.8,425.576 121.346,407.303 121.091,405.957 119.906,405.268 
				103.834,395.914 120.145,386.982 121.347,386.326 121.637,384.986 125.566,366.809 138.238,378.75 138.979,375.326 
				123.757,360.982 118.704,384.352 97.733,395.836 118.397,407.861 122.839,431.354 138.513,417.34 			"/>
		</g>
	</g>
	<g>
		<polygon fill="#666666" points="55.955,407.861 35.291,395.834 56.262,384.352 58.242,375.193 43.158,360.982 38.107,384.352 
			17.135,395.834 37.801,407.861 42.242,431.354 57.771,417.467 		"/>
	</g>
	<g>
		<polygon fill="#666666" points="82.844,407.861 62.18,395.834 83.15,384.352 85.131,375.193 70.047,360.982 64.996,384.352 
			44.023,395.834 64.689,407.861 69.131,431.354 84.66,417.467 		"/>
	</g>
	<g>
		<polygon fill="#666666" points="109.733,407.861 89.069,395.834 110.04,384.352 112.021,375.193 96.937,360.982 91.886,384.352 
			70.913,395.834 91.579,407.861 96.021,431.354 111.55,417.467 		"/>
	</g>
	<polygon fill="#666666" points="148.378,360.982 165.778,377.379 189.565,374.961 179.351,396.578 188.999,418.453 
		165.284,415.416 147.46,431.354 143.019,407.861 122.354,395.836 143.325,384.352 	"/>
</g>
<g>
	<g>
		<polygon fill="#F7931E" points="144.365,498.242 125.405,487.209 144.646,476.672 149.282,455.229 165.248,470.273 
			187.074,468.055 177.702,487.889 186.555,507.961 164.795,505.174 148.44,519.799 		"/>
		<path fill="#FBB03B" d="M150.188,458.143l13.533,12.754l0.998,0.939l1.363-0.139l18.501-1.881l-7.945,16.812l-0.585,1.238
			l0.553,1.254l7.505,17.016l-18.445-2.363l-1.359-0.174l-1.021,0.914l-13.863,12.396l-3.454-18.273l-0.255-1.346l-1.185-0.689
			l-16.072-9.354l16.311-8.932l1.202-0.658l0.29-1.34L150.188,458.143 M148.378,452.316l-5.053,23.369l-20.971,11.482l20.664,12.027
			l4.441,23.492l17.824-15.938l23.715,3.037l-9.648-21.877l10.215-21.615l-23.787,2.418L148.378,452.316L148.378,452.316z"/>
	</g>
	<g>
		<polygon fill="#666666" points="55.955,499.193 35.291,487.166 56.262,475.684 58.242,466.525 43.158,452.314 38.107,475.684 
			17.135,487.166 37.801,499.193 42.242,522.686 57.771,508.799 		"/>
	</g>
	<g>
		<polygon fill="#666666" points="82.844,499.193 62.18,487.166 83.15,475.684 85.131,466.525 70.047,452.314 64.996,475.684 
			44.023,487.166 64.689,499.193 69.131,522.686 84.66,508.799 		"/>
	</g>
	<g>
		<polygon fill="#666666" points="109.733,499.193 89.069,487.166 110.04,475.684 112.021,466.525 96.937,452.314 91.886,475.684 
			70.913,487.166 91.579,499.193 96.021,522.686 111.55,508.799 		"/>
	</g>
	<g>
		<polygon fill="#666666" points="136.622,499.193 115.958,487.166 136.929,475.684 138.909,466.525 123.825,452.314 
			118.774,475.684 97.802,487.166 118.468,499.193 122.909,522.686 138.438,508.799 		"/>
	</g>
</g>
<g>
	<g>
		<g>
			<polygon fill="#F7931E" points="56.087,152.144 35.423,140.119 56.394,128.635 58.345,119.609 43.123,105.265 38.07,128.635 
				17.1,140.119 37.764,152.144 42.205,175.637 57.879,161.623 			"/>
		</g>
		<g>
			<polygon fill="#FBB03B" points="57.228,158.18 44.166,169.86 40.712,151.586 40.457,150.241 39.272,149.551 23.2,140.198 
				39.511,131.266 40.713,130.609 41.003,129.269 44.933,111.092 57.604,123.034 58.345,119.609 43.123,105.265 38.07,128.635 
				17.1,140.119 37.764,152.144 42.205,175.637 57.879,161.623 			"/>
		</g>
	</g>
	<g>
		<polygon fill="#666666" points="82.878,152.145 62.214,140.118 83.185,128.636 85.165,119.478 70.081,105.266 65.03,128.636 
			44.058,140.118 64.724,152.145 69.165,175.638 84.694,161.751 		"/>
	</g>
	<g>
		<polygon fill="#666666" points="109.768,152.145 89.104,140.118 110.074,128.636 112.055,119.478 96.971,105.266 91.92,128.636 
			70.947,140.118 91.613,152.145 96.055,175.638 111.584,161.751 		"/>
	</g>
	<g>
		<polygon fill="#666666" points="136.656,152.145 115.992,140.118 136.963,128.636 138.943,119.478 123.859,105.266 
			118.809,128.636 97.836,140.118 118.502,152.145 122.943,175.638 138.473,161.751 		"/>
	</g>
	<polygon fill="#666666" points="148.412,105.267 165.812,121.663 189.6,119.245 179.385,140.861 189.033,162.737 165.318,159.7 
		147.494,175.638 143.053,152.146 122.389,140.119 143.359,128.636 	"/>
</g>
<g>
	<g>
		<g>
			<polygon fill="#F7931E" points="82.942,235.028 62.278,223.002 83.249,211.519 85.2,202.493 69.979,188.149 64.926,211.519 
				43.955,223.002 64.619,235.028 69.061,258.521 84.734,244.506 			"/>
		</g>
		<g>
			<polygon fill="#FBB03B" points="84.083,241.064 71.021,252.744 67.567,234.47 67.312,233.125 66.128,232.435 50.056,223.082 
				66.366,214.15 67.568,213.493 67.858,212.153 71.788,193.976 84.46,205.917 85.2,202.493 69.979,188.149 64.926,211.519 
				43.955,223.002 64.619,235.028 69.061,258.521 84.734,244.506 			"/>
		</g>
	</g>
	<g>
		<polygon fill="#666666" points="55.955,235.027 35.291,223.001 56.262,211.519 58.242,202.36 43.158,188.148 38.107,211.519 
			17.135,223.001 37.801,235.027 42.242,258.521 57.771,244.634 		"/>
	</g>
	<g>
		<polygon fill="#666666" points="109.733,235.027 89.069,223.001 110.04,211.519 112.021,202.36 96.937,188.148 91.886,211.519 
			70.913,223.001 91.579,235.027 96.021,258.521 111.55,244.634 		"/>
	</g>
	<g>
		<polygon fill="#666666" points="136.622,235.027 115.958,223.001 136.929,211.519 138.909,202.36 123.825,188.148 
			118.774,211.519 97.802,223.001 118.468,235.027 122.909,258.521 138.438,244.634 		"/>
	</g>
	<polygon fill="#666666" points="148.378,188.149 165.778,204.546 189.565,202.128 179.351,223.744 188.999,245.62 165.284,242.583 
		147.46,258.521 143.019,235.028 122.354,223.002 143.325,211.519 	"/>
</g>
</svg>
