<?xml version="1.0" encoding="utf-8"?>
<!-- Generator: Adobe Illustrator 14.0.0, SVG Export Plug-In . SVG Version: 6.00 Build 43363)  -->
<!DOCTYPE svg PUBLIC "-//W3C//DTD SVG 1.1//EN" "http://www.w3.org/Graphics/SVG/1.1/DTD/svg11.dtd">
<svg version="1.1" id="Layer_1" xmlns="http://www.w3.org/2000/svg" xmlns:xlink="http://www.w3.org/1999/xlink" x="0px" y="0px"
	 width="500px" height="500px" viewBox="0 0 500 500" enable-background="new 0 0 500 500" xml:space="preserve">
<g>
	<g>
		<g>
			<g>
				<polygon fill="#F7931E" points="167.043,62.263 148.082,51.229 167.325,40.692 171.96,19.25 187.927,34.294 209.753,32.075 
					200.378,51.91 209.231,71.981 187.472,69.197 171.119,83.82 				"/>
				<path fill="#FBB03B" d="M172.865,22.163L186.4,34.916l0.997,0.939l1.363-0.139l18.501-1.88l-7.946,16.813l-0.585,1.239
					l0.553,1.254l7.504,17.014l-18.445-2.36l-1.359-0.174l-1.021,0.914l-13.862,12.396l-3.455-18.273l-0.254-1.347l-1.185-0.689
					l-16.073-9.354l16.312-8.932l1.202-0.658l0.29-1.339L172.865,22.163 M171.055,16.336l-5.052,23.369l-20.972,11.484
					l20.665,12.025l4.441,23.494l17.823-15.938l23.715,3.035l-9.648-21.875l10.217-21.617l-23.787,2.418L171.055,16.336
					L171.055,16.336z"/>
			</g>
		</g>
	</g>
	<g>
		<defs>
			<polygon id="SVGID_1_" points="160.792,65.787 141.708,54.681 135.584,51.118 141.798,47.715 161.167,37.109 162.252,32.086 
				155.892,32.732 138.491,16.336 133.439,39.705 112.467,51.189 133.132,63.215 137.574,86.709 155.397,70.771 161.892,71.603 			
				"/>
		</defs>
		<clipPath id="SVGID_2_">
			<use xlink:href="#SVGID_1_"  overflow="visible"/>
		</clipPath>
		<g clip-path="url(#SVGID_2_)">
			<g>
				<g>
					<polygon fill="#F7931E" points="134.479,62.263 115.518,51.229 134.76,40.692 139.396,19.25 155.362,34.294 177.188,32.075 
						167.814,51.91 176.667,71.981 154.908,69.197 138.554,83.82 					"/>
					<path fill="#FBB03B" d="M140.3,22.163l13.535,12.753l0.997,0.939l1.363-0.139l18.501-1.88l-7.946,16.813l-0.585,1.239
						l0.553,1.254l7.504,17.014l-18.445-2.36l-1.359-0.174l-1.021,0.914l-13.863,12.396l-3.455-18.273l-0.254-1.347l-1.185-0.689
						l-16.073-9.354l16.312-8.932l1.202-0.658l0.29-1.339L140.3,22.163 M138.491,16.336l-5.052,23.369l-20.972,11.484l20.665,12.025
						l4.441,23.494l17.823-15.938l23.715,3.035l-9.648-21.875l10.216-21.617l-23.787,2.418L138.491,16.336L138.491,16.336z"/>
				</g>
			</g>
		</g>
	</g>
	<g>
		<defs>
			<polygon id="SVGID_3_" points="127.878,65.787 108.793,54.681 102.67,51.118 108.884,47.715 128.252,37.109 129.338,32.086 
				122.978,32.732 105.577,16.336 100.525,39.705 79.553,51.189 100.218,63.215 104.66,86.709 122.483,70.771 128.978,71.603 			"/>
		</defs>
		<clipPath id="SVGID_4_">
			<use xlink:href="#SVGID_3_"  overflow="visible"/>
		</clipPath>
		<g clip-path="url(#SVGID_4_)">
			<g>
				<g>
					<polygon fill="#F7931E" points="101.565,62.263 82.604,51.229 101.846,40.692 106.481,19.25 122.448,34.294 144.274,32.075 
						134.9,51.91 143.753,71.981 121.994,69.197 105.64,83.82 					"/>
					<path fill="#FBB03B" d="M107.386,22.163l13.535,12.753l0.997,0.939l1.363-0.139l18.501-1.88l-7.946,16.813l-0.585,1.239
						l0.553,1.254l7.504,17.014l-18.445-2.36l-1.359-0.174l-1.021,0.914l-13.863,12.396l-3.455-18.273l-0.254-1.347l-1.185-0.689
						l-16.073-9.354l16.312-8.932l1.202-0.658l0.29-1.339L107.386,22.163 M105.577,16.336l-5.052,23.369L79.553,51.189
						l20.665,12.025l4.441,23.494l17.823-15.938l23.715,3.035l-9.648-21.875l10.216-21.617l-23.787,2.418L105.577,16.336
						L105.577,16.336z"/>
				</g>
			</g>
		</g>
	</g>
	<g>
		<defs>
			<polygon id="SVGID_5_" points="95.377,65.787 76.292,54.681 70.169,51.118 76.383,47.715 95.751,37.109 96.837,32.086 
				90.477,32.732 73.076,16.336 68.024,39.705 47.052,51.189 67.717,63.215 72.159,86.709 89.982,70.771 96.477,71.603 			"/>
		</defs>
		<clipPath id="SVGID_6_">
			<use xlink:href="#SVGID_5_"  overflow="visible"/>
		</clipPath>
		<g clip-path="url(#SVGID_6_)">
			<g>
				<g>
					<polygon fill="#F7931E" points="69.064,62.263 50.103,51.229 69.345,40.692 73.98,19.25 89.947,34.294 111.773,32.075 
						102.399,51.91 111.252,71.981 89.493,69.197 73.139,83.82 					"/>
					<path fill="#FBB03B" d="M74.885,22.163L88.42,34.916l0.997,0.939l1.363-0.139l18.501-1.88l-7.946,16.813l-0.585,1.239
						l0.553,1.254l7.504,17.014l-18.445-2.36l-1.359-0.174l-1.021,0.914L74.12,80.931l-3.455-18.273l-0.254-1.347l-1.185-0.689
						l-16.073-9.354l16.312-8.932l1.202-0.658l0.29-1.339L74.885,22.163 M73.076,16.336l-5.052,23.369L47.052,51.189l20.665,12.025
						l4.441,23.494l17.823-15.938l23.715,3.035l-9.648-21.875l10.216-21.617l-23.787,2.418L73.076,16.336L73.076,16.336z"/>
				</g>
			</g>
		</g>
	</g>
	<g>
		<defs>
			<polygon id="SVGID_7_" points="62.137,65.787 43.052,54.681 36.929,51.118 43.143,47.715 62.511,37.109 63.597,32.086 
				57.237,32.732 39.835,16.336 34.784,39.705 13.812,51.189 34.477,63.215 38.918,86.709 56.742,70.771 63.237,71.603 			"/>
		</defs>
		<clipPath id="SVGID_8_">
			<use xlink:href="#SVGID_7_"  overflow="visible"/>
		</clipPath>
		<g clip-path="url(#SVGID_8_)">
			<g>
				<g>
					<polygon fill="#F7931E" points="35.824,62.263 16.862,51.229 36.105,40.692 40.74,19.25 56.707,34.294 78.533,32.075 
						69.159,51.91 78.012,71.981 56.252,69.197 39.899,83.82 					"/>
					<path fill="#FBB03B" d="M41.645,22.163L55.18,34.916l0.997,0.939l1.363-0.139l18.501-1.88L68.096,50.65l-0.585,1.239
						l0.553,1.254l7.504,17.014l-18.445-2.36l-1.359-0.174l-1.021,0.914L40.879,80.931l-3.455-18.273l-0.254-1.347l-1.185-0.689
						l-16.073-9.354l16.312-8.932l1.202-0.658l0.29-1.339L41.645,22.163 M39.835,16.336l-5.052,23.369L13.812,51.189l20.665,12.025
						l4.441,23.494l17.823-15.938l23.715,3.035l-9.648-21.875l10.216-21.617l-23.787,2.418L39.835,16.336L39.835,16.336z"/>
				</g>
			</g>
		</g>
	</g>
</g>
<g>
	<g>
		<g>
			<g>
				<polygon fill="#F7931E" points="134.479,141.613 115.518,130.579 134.76,120.042 139.396,98.6 155.362,113.644 177.188,111.425 
					167.814,131.26 176.667,151.332 154.908,148.547 138.554,163.17 				"/>
				<path fill="#FBB03B" d="M140.3,101.513l13.535,12.753l0.997,0.939l1.363-0.138l18.501-1.881L166.751,130l-0.585,1.239
					l0.553,1.253l7.504,17.014l-18.445-2.36l-1.359-0.174l-1.021,0.914l-13.863,12.396l-3.455-18.273l-0.254-1.347l-1.185-0.689
					l-16.073-9.353l16.312-8.933l1.202-0.658l0.29-1.339L140.3,101.513 M138.491,95.686l-5.052,23.369l-20.972,11.484l20.665,12.025
					l4.441,23.494l17.823-15.938l23.715,3.035l-9.648-21.875l10.216-21.617l-23.787,2.418L138.491,95.686L138.491,95.686z"/>
			</g>
		</g>
	</g>
	<g>
		<polygon fill="#666666" points="212.244,109.665 188.457,112.083 186.605,110.338 186.1,111.408 176.667,131.374 185.578,151.578 
			185.792,152.062 187.961,150.122 211.676,153.157 202.027,131.282 		"/>
		<polygon fill="#666666" points="181.74,105.753 171.054,95.686 168.589,107.09 		"/>
		<polygon fill="#666666" points="168.134,155.459 170.138,166.059 180.255,157.012 		"/>
	</g>
	<g>
		<defs>
			<polygon id="SVGID_9_" points="127.878,145.137 108.793,134.031 102.67,130.468 108.884,127.065 128.252,116.459 
				129.338,111.436 122.978,112.083 105.577,95.686 100.525,119.055 79.553,130.54 100.218,142.565 104.66,166.059 122.483,150.122 
				128.978,150.953 			"/>
		</defs>
		<clipPath id="SVGID_10_">
			<use xlink:href="#SVGID_9_"  overflow="visible"/>
		</clipPath>
		<g clip-path="url(#SVGID_10_)">
			<g>
				<g>
					<polygon fill="#F7931E" points="101.565,141.613 82.604,130.579 101.846,120.042 106.481,98.6 122.448,113.644 
						144.274,111.425 134.9,131.26 143.753,151.332 121.994,148.547 105.64,163.17 					"/>
					<path fill="#FBB03B" d="M107.386,101.513l13.535,12.753l0.997,0.939l1.363-0.138l18.501-1.881L133.837,130l-0.585,1.239
						l0.553,1.253l7.504,17.014l-18.445-2.36l-1.359-0.174l-1.021,0.914l-13.863,12.396l-3.455-18.273l-0.254-1.347l-1.185-0.689
						l-16.073-9.353l16.312-8.933l1.202-0.658l0.29-1.339L107.386,101.513 M105.577,95.686l-5.052,23.369L79.553,130.54
						l20.665,12.025l4.441,23.494l17.823-15.938l23.715,3.035l-9.648-21.875l10.216-21.617l-23.787,2.418L105.577,95.686
						L105.577,95.686z"/>
				</g>
			</g>
		</g>
	</g>
	<g>
		<defs>
			<polygon id="SVGID_11_" points="95.377,145.137 76.292,134.031 70.169,130.468 76.383,127.065 95.751,116.459 96.837,111.436 
				90.477,112.083 73.076,95.686 68.024,119.055 47.052,130.54 67.717,142.565 72.159,166.059 89.982,150.122 96.477,150.953 			"/>
		</defs>
		<clipPath id="SVGID_12_">
			<use xlink:href="#SVGID_11_"  overflow="visible"/>
		</clipPath>
		<g clip-path="url(#SVGID_12_)">
			<g>
				<g>
					<polygon fill="#F7931E" points="69.064,141.613 50.103,130.579 69.345,120.042 73.98,98.6 89.947,113.644 111.773,111.425 
						102.399,131.26 111.252,151.332 89.493,148.547 73.139,163.17 					"/>
					<path fill="#FBB03B" d="M74.885,101.513l13.535,12.753l0.997,0.939l1.363-0.138l18.501-1.881L101.336,130l-0.585,1.239
						l0.553,1.253l7.504,17.014l-18.445-2.36l-1.359-0.174l-1.021,0.914L74.12,160.281l-3.455-18.273l-0.254-1.347l-1.185-0.689
						l-16.073-9.353l16.312-8.933l1.202-0.658l0.29-1.339L74.885,101.513 M73.076,95.686l-5.052,23.369L47.052,130.54l20.665,12.025
						l4.441,23.494l17.823-15.938l23.715,3.035l-9.648-21.875l10.216-21.617l-23.787,2.418L73.076,95.686L73.076,95.686z"/>
				</g>
			</g>
		</g>
	</g>
	<g>
		<defs>
			<polygon id="SVGID_13_" points="62.137,145.137 43.052,134.031 36.929,130.468 43.143,127.065 62.511,116.459 63.597,111.436 
				57.237,112.083 39.835,95.686 34.784,119.055 13.812,130.54 34.477,142.565 38.918,166.059 56.742,150.122 63.237,150.953 			"/>
		</defs>
		<clipPath id="SVGID_14_">
			<use xlink:href="#SVGID_13_"  overflow="visible"/>
		</clipPath>
		<g clip-path="url(#SVGID_14_)">
			<g>
				<g>
					<polygon fill="#F7931E" points="35.824,141.613 16.862,130.579 36.105,120.042 40.74,98.6 56.707,113.644 78.533,111.425 
						69.159,131.26 78.012,151.332 56.252,148.547 39.899,163.17 					"/>
					<path fill="#FBB03B" d="M41.645,101.513l13.535,12.753l0.997,0.939l1.363-0.138l18.501-1.881L68.096,130l-0.585,1.239
						l0.553,1.253l7.504,17.014l-18.445-2.36l-1.359-0.174l-1.021,0.914l-13.863,12.396l-3.455-18.273l-0.254-1.347l-1.185-0.689
						l-16.073-9.353l16.312-8.933l1.202-0.658l0.29-1.339L41.645,101.513 M39.835,95.686l-5.052,23.369L13.812,130.54l20.665,12.025
						l4.441,23.494l17.823-15.938l23.715,3.035l-9.648-21.875l10.216-21.617l-23.787,2.418L39.835,95.686L39.835,95.686z"/>
				</g>
			</g>
		</g>
	</g>
</g>
<g>
	<g>
		<g>
			<g>
				<polygon fill="#F7931E" points="101.565,220.963 82.604,209.929 101.846,199.392 106.481,177.95 122.448,192.994 
					144.274,190.775 134.9,210.61 143.753,230.682 121.994,227.897 105.64,242.52 				"/>
				<path fill="#FBB03B" d="M107.386,180.863l13.535,12.753l0.997,0.939l1.363-0.139l18.501-1.88l-7.946,16.813l-0.585,1.239
					l0.553,1.254l7.504,17.014l-18.445-2.36l-1.359-0.174l-1.021,0.914l-13.863,12.396l-3.455-18.273l-0.254-1.347l-1.185-0.689
					l-16.073-9.354l16.312-8.932l1.202-0.658l0.29-1.339L107.386,180.863 M105.577,175.036l-5.052,23.369L79.553,209.89
					l20.665,12.025l4.441,23.494l17.823-15.938l23.715,3.035l-9.648-21.875l10.216-21.617l-23.787,2.418L105.577,175.036
					L105.577,175.036z"/>
			</g>
		</g>
	</g>
	<g>
		<polygon fill="#666666" points="212.244,189.015 188.457,191.433 186.605,189.688 186.1,190.758 176.667,210.724 185.578,230.928 
			185.792,231.412 187.96,229.472 211.676,232.507 202.027,210.632 		"/>
		<polygon fill="#666666" points="181.74,185.104 171.054,175.036 168.589,186.44 		"/>
		<polygon fill="#666666" points="168.134,234.81 170.138,245.409 180.255,236.362 		"/>
	</g>
	<g>
		<polygon fill="#666666" points="179.679,189.015 155.892,191.433 154.041,189.688 153.536,190.758 144.102,210.724 
			153.013,230.928 153.227,231.412 155.396,229.472 179.111,232.507 169.462,210.632 		"/>
		<polygon fill="#666666" points="149.175,185.104 138.49,175.036 136.025,186.44 		"/>
		<polygon fill="#666666" points="135.57,234.81 137.574,245.409 147.691,236.362 		"/>
	</g>
	<g>
		<defs>
			<polygon id="SVGID_15_" points="95.377,224.487 76.292,213.381 70.169,209.818 76.383,206.415 95.751,195.81 96.837,190.786 
				90.477,191.433 73.076,175.036 68.024,198.405 47.052,209.89 67.717,221.915 72.159,245.409 89.982,229.472 96.477,230.303 			
				"/>
		</defs>
		<clipPath id="SVGID_16_">
			<use xlink:href="#SVGID_15_"  overflow="visible"/>
		</clipPath>
		<g clip-path="url(#SVGID_16_)">
			<g>
				<g>
					<polygon fill="#F7931E" points="69.064,220.963 50.103,209.929 69.345,199.392 73.98,177.95 89.947,192.994 111.773,190.775 
						102.399,210.61 111.252,230.682 89.493,227.897 73.139,242.52 					"/>
					<path fill="#FBB03B" d="M74.885,180.863l13.535,12.753l0.997,0.939l1.363-0.139l18.501-1.88l-7.946,16.813l-0.585,1.239
						l0.553,1.254l7.504,17.014l-18.445-2.36l-1.359-0.174l-1.021,0.914L74.12,239.631l-3.455-18.273l-0.254-1.347l-1.185-0.689
						l-16.073-9.354l16.312-8.932l1.202-0.658l0.29-1.339L74.885,180.863 M73.076,175.036l-5.052,23.369L47.052,209.89
						l20.665,12.025l4.441,23.494l17.823-15.938l23.715,3.035l-9.648-21.875l10.216-21.617l-23.787,2.418L73.076,175.036
						L73.076,175.036z"/>
				</g>
			</g>
		</g>
	</g>
	<g>
		<defs>
			<polygon id="SVGID_17_" points="62.137,224.487 43.052,213.381 36.929,209.818 43.143,206.415 62.511,195.81 63.597,190.786 
				57.237,191.433 39.835,175.036 34.784,198.405 13.812,209.89 34.477,221.915 38.918,245.409 56.742,229.472 63.237,230.303 			
				"/>
		</defs>
		<clipPath id="SVGID_18_">
			<use xlink:href="#SVGID_17_"  overflow="visible"/>
		</clipPath>
		<g clip-path="url(#SVGID_18_)">
			<g>
				<g>
					<polygon fill="#F7931E" points="35.824,220.963 16.862,209.929 36.105,199.392 40.74,177.95 56.707,192.994 78.533,190.775 
						69.159,210.61 78.012,230.682 56.252,227.897 39.899,242.52 					"/>
					<path fill="#FBB03B" d="M41.645,180.863l13.535,12.753l0.997,0.939l1.363-0.139l18.501-1.88l-7.946,16.813l-0.585,1.239
						l0.553,1.254l7.504,17.014l-18.445-2.36l-1.359-0.174l-1.021,0.914l-13.863,12.396l-3.455-18.273l-0.254-1.347l-1.185-0.689
						l-16.073-9.354l16.312-8.932l1.202-0.658l0.29-1.339L41.645,180.863 M39.835,175.036l-5.052,23.369L13.812,209.89
						l20.665,12.025l4.441,23.494l17.823-15.938l23.715,3.035l-9.648-21.875l10.216-21.617l-23.787,2.418L39.835,175.036
						L39.835,175.036z"/>
				</g>
			</g>
		</g>
	</g>
</g>
<g>
	<g>
		<g>
			<g>
				<polygon fill="#F7931E" points="69.064,300.312 50.103,289.279 69.345,278.741 73.98,257.299 89.947,272.344 111.773,270.125 
					102.399,289.96 111.252,310.031 89.493,307.246 73.139,321.87 				"/>
				<path fill="#FBB03B" d="M74.885,260.213l13.535,12.753l0.997,0.939l1.363-0.139l18.501-1.881l-7.946,16.813l-0.585,1.239
					l0.553,1.254l7.504,17.014l-18.445-2.36l-1.359-0.174l-1.021,0.913L74.12,318.98l-3.455-18.273l-0.254-1.346l-1.185-0.689
					l-16.073-9.354l16.312-8.933l1.202-0.657l0.29-1.34L74.885,260.213 M73.076,254.386l-5.052,23.369l-20.972,11.484l20.665,12.025
					l4.441,23.494l17.823-15.938l23.715,3.035l-9.648-21.875l10.216-21.617l-23.787,2.418L73.076,254.386L73.076,254.386z"/>
			</g>
		</g>
	</g>
	<g>
		<polygon fill="#666666" points="212.243,268.364 188.456,270.782 186.604,269.038 186.101,270.107 176.667,290.073 
			185.577,310.277 185.792,310.762 187.96,308.821 211.675,311.856 202.026,289.981 		"/>
		<polygon fill="#666666" points="181.74,264.453 171.054,254.386 168.589,265.79 		"/>
		<polygon fill="#666666" points="168.134,314.159 170.138,324.759 180.255,315.712 		"/>
	</g>
	<g>
		<polygon fill="#666666" points="179.679,268.364 155.892,270.782 154.041,269.038 153.536,270.107 144.102,290.073 
			153.013,310.277 153.227,310.762 155.396,308.821 179.111,311.856 169.462,289.981 		"/>
		<polygon fill="#666666" points="149.175,264.453 138.49,254.386 136.025,265.79 		"/>
		<polygon fill="#666666" points="135.57,314.159 137.574,324.759 147.691,315.712 		"/>
	</g>
	<g>
		<polygon fill="#666666" points="146.765,268.364 122.978,270.782 121.126,269.038 120.622,270.107 111.188,290.073 
			120.099,310.277 120.313,310.762 122.482,308.821 146.197,311.856 136.548,289.981 		"/>
		<polygon fill="#666666" points="116.261,264.453 105.576,254.386 103.111,265.79 		"/>
		<polygon fill="#666666" points="102.656,314.159 104.66,324.759 114.777,315.712 		"/>
	</g>
	<g>
		<defs>
			<polygon id="SVGID_19_" points="62.137,303.837 43.052,292.73 36.929,289.168 43.143,285.765 62.511,275.159 63.597,270.136 
				57.237,270.782 39.835,254.386 34.784,277.755 13.812,289.239 34.477,301.265 38.918,324.759 56.742,308.821 63.237,309.652 			
				"/>
		</defs>
		<clipPath id="SVGID_20_">
			<use xlink:href="#SVGID_19_"  overflow="visible"/>
		</clipPath>
		<g clip-path="url(#SVGID_20_)">
			<g>
				<g>
					<polygon fill="#F7931E" points="35.824,300.312 16.862,289.279 36.105,278.741 40.74,257.299 56.707,272.344 78.533,270.125 
						69.159,289.96 78.012,310.031 56.252,307.246 39.899,321.87 					"/>
					<path fill="#FBB03B" d="M41.645,260.213l13.535,12.753l0.997,0.939l1.363-0.139l18.501-1.881l-7.946,16.813l-0.585,1.239
						l0.553,1.254l7.504,17.014l-18.445-2.36l-1.359-0.174l-1.021,0.913L40.879,318.98l-3.455-18.273l-0.254-1.346l-1.185-0.689
						l-16.073-9.354l16.312-8.933l1.202-0.657l0.29-1.34L41.645,260.213 M39.835,254.386l-5.052,23.369l-20.972,11.484
						l20.665,12.025l4.441,23.494l17.823-15.938l23.715,3.035l-9.648-21.875l10.216-21.617l-23.787,2.418L39.835,254.386
						L39.835,254.386z"/>
				</g>
			</g>
		</g>
	</g>
</g>
<g>
	<g>
		<g>
			<g>
				<polygon fill="#F7931E" points="35.824,379.663 16.862,368.63 36.105,358.092 40.74,336.649 56.707,351.694 78.533,349.476 
					69.159,369.311 78.012,389.382 56.252,386.597 39.899,401.221 				"/>
				<path fill="#FBB03B" d="M41.645,339.563l13.535,12.753l0.997,0.939l1.363-0.139l18.501-1.881l-7.946,16.813l-0.585,1.239
					l0.553,1.254l7.504,17.014l-18.445-2.36l-1.359-0.174l-1.021,0.913l-13.863,12.396l-3.455-18.273l-0.254-1.346l-1.185-0.689
					l-16.073-9.354l16.312-8.933l1.202-0.657l0.29-1.34L41.645,339.563 M39.835,333.736l-5.052,23.369L13.812,368.59l20.665,12.025
					l4.441,23.494l17.823-15.938l23.715,3.035l-9.648-21.875l10.216-21.617l-23.787,2.418L39.835,333.736L39.835,333.736z"/>
			</g>
		</g>
	</g>
	<g>
		<polygon fill="#666666" points="212.243,347.715 188.456,350.133 186.605,348.389 186.1,349.458 176.667,369.424 185.578,389.628 
			185.792,390.112 187.96,388.172 211.675,391.207 202.026,369.332 		"/>
		<polygon fill="#666666" points="181.74,343.804 171.054,333.736 168.589,345.141 		"/>
		<polygon fill="#666666" points="168.134,393.51 170.138,404.109 180.255,395.062 		"/>
	</g>
	<g>
		<polygon fill="#666666" points="179.679,347.715 155.892,350.133 154.041,348.389 153.536,349.458 144.102,369.424 
			153.013,389.628 153.227,390.112 155.396,388.172 179.111,391.207 169.462,369.332 		"/>
		<polygon fill="#666666" points="149.175,343.804 138.49,333.736 136.025,345.141 		"/>
		<polygon fill="#666666" points="135.57,393.51 137.574,404.109 147.691,395.062 		"/>
	</g>
	<g>
		<polygon fill="#666666" points="146.765,347.715 122.978,350.133 121.126,348.389 120.622,349.458 111.188,369.424 
			120.099,389.628 120.313,390.112 122.482,388.172 146.197,391.207 136.548,369.332 		"/>
		<polygon fill="#666666" points="116.261,343.804 105.576,333.736 103.111,345.141 		"/>
		<polygon fill="#666666" points="102.656,393.51 104.66,404.109 114.777,395.062 		"/>
	</g>
	<g>
		<polygon fill="#666666" points="114.264,347.715 90.477,350.133 88.625,348.389 88.121,349.458 78.687,369.424 87.598,389.628 
			87.812,390.112 89.981,388.172 113.696,391.207 104.047,369.332 		"/>
		<polygon fill="#666666" points="83.76,343.804 73.075,333.736 70.61,345.141 		"/>
		<polygon fill="#666666" points="70.155,393.51 72.159,404.109 82.276,395.062 		"/>
	</g>
</g>
<g>
	<g>
		<g>
			<g>
				<polygon fill="#666666" points="39.835,413.086 57.237,429.482 81.024,427.064 70.808,448.682 80.457,470.557 56.742,467.521 
					38.918,483.459 34.477,459.965 13.812,447.939 34.784,436.455 				"/>
			</g>
		</g>
	</g>
	<g>
		<polygon fill="#666666" points="212.243,427.064 188.456,429.482 186.604,427.738 186.101,428.808 176.667,448.773 
			185.577,468.978 185.792,469.462 187.96,467.521 211.675,470.557 202.026,448.682 		"/>
		<polygon fill="#666666" points="181.74,423.153 171.054,413.086 168.589,424.49 		"/>
		<polygon fill="#666666" points="168.134,472.859 170.138,483.459 180.255,474.412 		"/>
	</g>
	<g>
		<polygon fill="#666666" points="179.679,427.064 155.892,429.482 154.041,427.738 153.536,428.808 144.102,448.773 
			153.013,468.978 153.227,469.462 155.396,467.521 179.111,470.557 169.462,448.682 		"/>
		<polygon fill="#666666" points="149.175,423.153 138.49,413.086 136.025,424.49 		"/>
		<polygon fill="#666666" points="135.57,472.859 137.574,483.459 147.691,474.412 		"/>
	</g>
	<g>
		<polygon fill="#666666" points="146.765,427.064 122.978,429.482 121.126,427.738 120.622,428.808 111.188,448.773 
			120.099,468.978 120.313,469.462 122.482,467.521 146.197,470.557 136.548,448.682 		"/>
		<polygon fill="#666666" points="116.261,423.153 105.576,413.086 103.111,424.49 		"/>
		<polygon fill="#666666" points="102.656,472.859 104.66,483.459 114.777,474.412 		"/>
	</g>
	<g>
		<polygon fill="#666666" points="114.264,427.064 90.477,429.482 88.625,427.738 88.121,428.808 78.687,448.773 87.598,468.978 
			87.812,469.462 89.981,467.521 113.696,470.557 104.047,448.682 		"/>
		<polygon fill="#666666" points="83.76,423.153 73.075,413.086 70.61,424.49 		"/>
		<polygon fill="#666666" points="70.155,472.859 72.159,483.459 82.276,474.412 		"/>
	</g>
</g>
<g>
	<g>
		<g>
			<g>
				<polygon fill="#F7931E" points="423.408,15.774 440.811,32.171 464.598,29.753 454.381,51.37 464.029,73.245 440.314,70.21 
					422.492,86.147 418.051,62.653 397.385,50.628 418.357,39.144 				"/>
				<path fill="#FBB03B" d="M425.218,21.602l13.535,12.753l0.998,0.939l1.363-0.139l18.501-1.88l-7.946,16.813l-0.586,1.239
					l0.553,1.254l7.505,17.014l-18.445-2.36l-1.359-0.174l-1.021,0.914L424.453,80.37l-3.454-18.273l-0.255-1.347l-1.185-0.689
					l-16.073-9.354l16.312-8.932L421,41.117l0.29-1.339L425.218,21.602 M423.408,15.774l-5.051,23.369l-20.973,11.484l20.666,12.025
					l4.441,23.494l17.822-15.938l23.715,3.035l-9.648-21.875l10.217-21.617l-23.787,2.418L423.408,15.774L423.408,15.774z"/>
			</g>
		</g>
	</g>
	<g>
		<defs>
			<polygon id="SVGID_21_" points="413.146,65.226 394.061,54.119 387.938,50.557 394.152,47.153 413.52,36.548 414.605,31.524 
				408.246,32.171 390.844,15.774 385.793,39.144 364.82,50.628 385.486,62.653 389.928,86.147 407.75,70.21 414.246,71.041 			"/>
		</defs>
		<clipPath id="SVGID_22_">
			<use xlink:href="#SVGID_21_"  overflow="visible"/>
		</clipPath>
		<g clip-path="url(#SVGID_22_)">
			<g>
				<g>
					<polygon fill="#F7931E" points="390.844,15.774 408.246,32.171 432.033,29.753 421.816,51.37 431.465,73.245 407.75,70.21 
						389.928,86.147 385.486,62.653 364.82,50.628 385.793,39.144 					"/>
					<path fill="#FBB03B" d="M392.653,21.602l13.535,12.753l0.998,0.939l1.363-0.139l18.501-1.88l-7.946,16.813l-0.586,1.239
						l0.553,1.254l7.505,17.014l-18.445-2.36l-1.359-0.174l-1.021,0.914L391.889,80.37l-3.454-18.273l-0.255-1.347l-1.185-0.689
						l-16.073-9.354l16.312-8.932l1.202-0.658l0.29-1.339L392.653,21.602 M390.844,15.774l-5.051,23.369L364.82,50.628
						l20.666,12.025l4.441,23.494L407.75,70.21l23.715,3.035l-9.648-21.875l10.217-21.617l-23.787,2.418L390.844,15.774
						L390.844,15.774z"/>
				</g>
			</g>
		</g>
	</g>
	<g>
		<defs>
			<polygon id="SVGID_23_" points="380.232,65.226 361.146,54.119 355.023,50.557 361.238,47.153 380.605,36.548 381.691,31.524 
				375.332,32.171 357.93,15.774 352.879,39.144 331.906,50.628 352.572,62.653 357.014,86.147 374.836,70.21 381.332,71.041 			"/>
		</defs>
		<clipPath id="SVGID_24_">
			<use xlink:href="#SVGID_23_"  overflow="visible"/>
		</clipPath>
		<g clip-path="url(#SVGID_24_)">
			<g>
				<g>
					<polygon fill="#F7931E" points="357.93,15.774 375.332,32.171 399.119,29.753 388.902,51.37 398.551,73.245 374.836,70.21 
						357.014,86.147 352.572,62.653 331.906,50.628 352.879,39.144 					"/>
					<path fill="#FBB03B" d="M359.739,21.602l13.535,12.753l0.998,0.939l1.363-0.139l18.501-1.88l-7.946,16.813l-0.586,1.239
						l0.553,1.254l7.505,17.014l-18.445-2.36l-1.359-0.174l-1.021,0.914L358.975,80.37l-3.454-18.273l-0.255-1.347l-1.185-0.689
						l-16.073-9.354l16.312-8.932l1.202-0.658l0.29-1.339L359.739,21.602 M357.93,15.774l-5.051,23.369l-20.973,11.484
						l20.666,12.025l4.441,23.494l17.822-15.938l23.715,3.035l-9.648-21.875l10.217-21.617l-23.787,2.418L357.93,15.774
						L357.93,15.774z"/>
				</g>
			</g>
		</g>
	</g>
	<g>
		<defs>
			<polygon id="SVGID_25_" points="347.73,65.226 328.646,54.119 322.523,50.557 328.736,47.153 348.105,36.548 349.191,31.524 
				342.83,32.171 325.43,15.774 320.377,39.144 299.406,50.628 320.07,62.653 324.512,86.147 342.336,70.21 348.83,71.041 			"/>
		</defs>
		<clipPath id="SVGID_26_">
			<use xlink:href="#SVGID_25_"  overflow="visible"/>
		</clipPath>
		<g clip-path="url(#SVGID_26_)">
			<g>
				<g>
					<polygon fill="#F7931E" points="325.43,15.774 342.83,32.171 366.617,29.753 356.402,51.37 366.051,73.245 342.336,70.21 
						324.512,86.147 320.07,62.653 299.406,50.628 320.377,39.144 					"/>
					<path fill="#FBB03B" d="M327.239,21.602l13.533,12.753l0.998,0.939l1.363-0.139l18.501-1.88l-7.945,16.813l-0.585,1.239
						l0.553,1.254l7.505,17.014l-18.445-2.36l-1.359-0.174l-1.021,0.913L326.473,80.37l-3.454-18.273l-0.255-1.347l-1.185-0.689
						l-16.072-9.354l16.312-8.932l1.201-0.658l0.29-1.339L327.239,21.602 M325.43,15.774l-5.053,23.369l-20.971,11.484
						l20.664,12.025l4.441,23.494l17.824-15.938l23.715,3.035l-9.648-21.875l10.215-21.617l-23.787,2.418L325.43,15.774
						L325.43,15.774z"/>
				</g>
			</g>
		</g>
	</g>
	<g>
		<defs>
			<polygon id="SVGID_27_" points="314.49,65.226 295.406,54.119 289.283,50.557 295.496,47.153 314.865,36.548 315.951,31.524 
				309.59,32.171 292.189,15.774 287.137,39.144 266.166,50.628 286.83,62.653 291.271,86.147 309.096,70.21 315.59,71.041 			"/>
		</defs>
		<clipPath id="SVGID_28_">
			<use xlink:href="#SVGID_27_"  overflow="visible"/>
		</clipPath>
		<g clip-path="url(#SVGID_28_)">
			<g>
				<g>
					<polygon fill="#F7931E" points="292.189,15.774 309.59,32.171 333.377,29.753 323.162,51.37 332.811,73.245 309.096,70.21 
						291.271,86.147 286.83,62.653 266.166,50.628 287.137,39.144 					"/>
					<path fill="#FBB03B" d="M293.999,21.602l13.533,12.753l0.998,0.939l1.363-0.139l18.501-1.88l-7.945,16.813l-0.585,1.239
						l0.553,1.254l7.505,17.014l-18.445-2.36l-1.359-0.174l-1.021,0.913L293.232,80.37l-3.454-18.273l-0.255-1.347l-1.185-0.689
						l-16.072-9.354l16.312-8.932l1.201-0.658l0.29-1.339L293.999,21.602 M292.189,15.774l-5.053,23.369l-20.971,11.484
						l20.664,12.025l4.441,23.494l17.824-15.938l23.715,3.035l-9.648-21.875l10.215-21.617l-23.787,2.418L292.189,15.774
						L292.189,15.774z"/>
				</g>
			</g>
		</g>
	</g>
</g>
<g>
	<g>
		<g>
			<g>
				<polygon fill="#F7931E" points="390.844,95.125 408.246,111.521 432.033,109.103 421.816,130.72 431.465,152.595 407.75,149.56 
					389.928,165.498 385.486,142.003 364.82,129.978 385.793,118.494 				"/>
				<path fill="#FBB03B" d="M392.653,100.952l13.535,12.753l0.998,0.939l1.363-0.138l18.501-1.881l-7.946,16.813l-0.586,1.239
					l0.553,1.253l7.505,17.014l-18.445-2.36l-1.359-0.174l-1.021,0.914l-13.861,12.396l-3.454-18.273l-0.255-1.347l-1.185-0.689
					l-16.073-9.353l16.312-8.933l1.202-0.658l0.29-1.339L392.653,100.952 M390.844,95.125l-5.051,23.369l-20.973,11.484
					l20.666,12.025l4.441,23.494l17.822-15.938l23.715,3.035l-9.648-21.875l10.217-21.617l-23.787,2.418L390.844,95.125
					L390.844,95.125z"/>
			</g>
		</g>
	</g>
	<g>
		<polygon fill="#666666" points="464.598,109.103 440.811,111.521 438.959,109.777 438.453,110.846 429.02,130.812 
			437.932,151.016 438.145,151.5 440.314,149.56 464.029,152.595 454.381,130.72 		"/>
		<polygon fill="#666666" points="434.094,105.192 423.408,95.125 420.943,106.529 		"/>
		<polygon fill="#666666" points="420.488,154.898 422.492,165.498 432.609,156.451 		"/>
	</g>
	<g>
		<defs>
			<polygon id="SVGID_29_" points="380.232,144.576 361.146,133.469 355.023,129.907 361.238,126.503 380.605,115.898 
				381.691,110.875 375.332,111.521 357.93,95.125 352.879,118.494 331.906,129.978 352.572,142.003 357.014,165.498 
				374.836,149.56 381.332,150.391 			"/>
		</defs>
		<clipPath id="SVGID_30_">
			<use xlink:href="#SVGID_29_"  overflow="visible"/>
		</clipPath>
		<g clip-path="url(#SVGID_30_)">
			<g>
				<g>
					<polygon fill="#F7931E" points="357.93,95.125 375.332,111.521 399.119,109.103 388.902,130.72 398.551,152.595 
						374.836,149.56 357.014,165.498 352.572,142.003 331.906,129.978 352.879,118.494 					"/>
					<path fill="#FBB03B" d="M359.739,100.952l13.535,12.753l0.998,0.939l1.363-0.138l18.501-1.881l-7.946,16.813l-0.586,1.239
						l0.553,1.253l7.505,17.014l-18.445-2.36l-1.359-0.174l-1.021,0.914l-13.861,12.396l-3.454-18.273l-0.255-1.347l-1.185-0.689
						l-16.073-9.353l16.312-8.933l1.202-0.658l0.29-1.339L359.739,100.952 M357.93,95.125l-5.051,23.369l-20.973,11.484
						l20.666,12.025l4.441,23.494l17.822-15.938l23.715,3.035l-9.648-21.875l10.217-21.617l-23.787,2.418L357.93,95.125
						L357.93,95.125z"/>
				</g>
			</g>
		</g>
	</g>
	<g>
		<defs>
			<polygon id="SVGID_31_" points="347.73,144.576 328.646,133.469 322.523,129.907 328.736,126.503 348.105,115.898 
				349.191,110.875 342.83,111.521 325.43,95.125 320.377,118.494 299.406,129.978 320.07,142.003 324.512,165.498 342.336,149.56 
				348.83,150.391 			"/>
		</defs>
		<clipPath id="SVGID_32_">
			<use xlink:href="#SVGID_31_"  overflow="visible"/>
		</clipPath>
		<g clip-path="url(#SVGID_32_)">
			<g>
				<g>
					<polygon fill="#F7931E" points="325.43,95.125 342.83,111.521 366.617,109.103 356.402,130.72 366.051,152.595 342.336,149.56 
						324.512,165.498 320.07,142.003 299.406,129.978 320.377,118.494 					"/>
					<path fill="#FBB03B" d="M327.239,100.952l13.533,12.753l0.998,0.939l1.363-0.138l18.501-1.881l-7.945,16.813l-0.585,1.239
						l0.553,1.253l7.505,17.014l-18.445-2.36l-1.359-0.174l-1.021,0.914l-13.863,12.396l-3.454-18.273l-0.255-1.347l-1.185-0.689
						l-16.072-9.353l16.312-8.933l1.201-0.658l0.29-1.339L327.239,100.952 M325.43,95.125l-5.053,23.369l-20.971,11.484
						l20.664,12.025l4.441,23.494l17.824-15.938l23.715,3.035l-9.648-21.875l10.215-21.617l-23.787,2.418L325.43,95.125
						L325.43,95.125z"/>
				</g>
			</g>
		</g>
	</g>
	<g>
		<defs>
			<polygon id="SVGID_33_" points="314.49,144.576 295.406,133.469 289.283,129.907 295.496,126.503 314.865,115.898 
				315.951,110.875 309.59,111.521 292.189,95.125 287.137,118.494 266.166,129.978 286.83,142.003 291.271,165.498 309.096,149.56 
				315.59,150.391 			"/>
		</defs>
		<clipPath id="SVGID_34_">
			<use xlink:href="#SVGID_33_"  overflow="visible"/>
		</clipPath>
		<g clip-path="url(#SVGID_34_)">
			<g>
				<g>
					<polygon fill="#F7931E" points="292.189,95.125 309.59,111.521 333.377,109.103 323.162,130.72 332.811,152.595 
						309.096,149.56 291.271,165.498 286.83,142.003 266.166,129.978 287.137,118.494 					"/>
					<path fill="#FBB03B" d="M293.999,100.952l13.533,12.753l0.998,0.939l1.363-0.138l18.501-1.881l-7.945,16.813l-0.585,1.239
						l0.553,1.253l7.505,17.014l-18.445-2.36l-1.359-0.174l-1.021,0.914l-13.863,12.396l-3.454-18.273l-0.255-1.347l-1.185-0.689
						l-16.072-9.353l16.312-8.933l1.201-0.658l0.29-1.339L293.999,100.952 M292.189,95.125l-5.053,23.369l-20.971,11.484
						l20.664,12.025l4.441,23.494l17.824-15.938l23.715,3.035l-9.648-21.875l10.215-21.617l-23.787,2.418L292.189,95.125
						L292.189,95.125z"/>
				</g>
			</g>
		</g>
	</g>
</g>
<g>
	<g>
		<g>
			<g>
				<polygon fill="#F7931E" points="357.93,174.475 375.332,190.871 399.119,188.453 388.902,210.07 398.551,231.945 
					374.836,228.91 357.014,244.848 352.572,221.354 331.906,209.328 352.879,197.844 				"/>
				<path fill="#FBB03B" d="M359.739,180.302l13.535,12.753l0.998,0.939l1.363-0.139l18.501-1.88l-7.946,16.813l-0.586,1.239
					l0.553,1.254l7.505,17.014l-18.445-2.36l-1.359-0.174l-1.021,0.914l-13.861,12.396l-3.454-18.273l-0.255-1.347l-1.185-0.689
					l-16.073-9.354l16.312-8.932l1.202-0.658l0.29-1.339L359.739,180.302 M357.93,174.475l-5.051,23.369l-20.973,11.484
					l20.666,12.025l4.441,23.494l17.822-15.938l23.715,3.035l-9.648-21.875l10.217-21.617l-23.787,2.418L357.93,174.475
					L357.93,174.475z"/>
			</g>
		</g>
	</g>
	<g>
		<polygon fill="#666666" points="464.598,188.453 440.811,190.871 438.959,189.127 438.453,190.196 429.02,210.162 
			437.932,230.366 438.145,230.851 440.314,228.91 464.029,231.945 454.381,210.07 		"/>
		<polygon fill="#666666" points="434.094,184.542 423.408,174.475 420.943,185.879 		"/>
		<polygon fill="#666666" points="420.488,234.248 422.492,244.848 432.609,235.801 		"/>
	</g>
	<g>
		<polygon fill="#666666" points="432.033,188.453 408.246,190.871 406.395,189.127 405.889,190.196 396.455,210.162 
			405.367,230.366 405.58,230.851 407.75,228.91 431.465,231.945 421.816,210.07 		"/>
		<polygon fill="#666666" points="401.529,184.542 390.844,174.475 388.379,185.879 		"/>
		<polygon fill="#666666" points="387.924,234.248 389.928,244.848 400.045,235.801 		"/>
	</g>
	<g>
		<defs>
			<polygon id="SVGID_35_" points="347.73,223.926 328.646,212.819 322.523,209.257 328.736,205.854 348.105,195.248 
				349.191,190.225 342.83,190.871 325.43,174.475 320.377,197.844 299.406,209.328 320.07,221.354 324.512,244.848 342.336,228.91 
				348.83,229.741 			"/>
		</defs>
		<clipPath id="SVGID_36_">
			<use xlink:href="#SVGID_35_"  overflow="visible"/>
		</clipPath>
		<g clip-path="url(#SVGID_36_)">
			<g>
				<g>
					<polygon fill="#F7931E" points="325.43,174.475 342.83,190.871 366.617,188.453 356.402,210.07 366.051,231.945 
						342.336,228.91 324.512,244.848 320.07,221.354 299.406,209.328 320.377,197.844 					"/>
					<path fill="#FBB03B" d="M327.239,180.302l13.533,12.753l0.998,0.939l1.363-0.139l18.501-1.88l-7.945,16.813l-0.585,1.239
						l0.553,1.254l7.505,17.014l-18.445-2.36l-1.359-0.174l-1.021,0.913l-13.863,12.396l-3.454-18.273l-0.255-1.347l-1.185-0.689
						l-16.072-9.354l16.312-8.932l1.201-0.658l0.29-1.339L327.239,180.302 M325.43,174.475l-5.053,23.369l-20.971,11.484
						l20.664,12.025l4.441,23.494l17.824-15.938l23.715,3.035l-9.648-21.875l10.215-21.617l-23.787,2.418L325.43,174.475
						L325.43,174.475z"/>
				</g>
			</g>
		</g>
	</g>
	<g>
		<defs>
			<polygon id="SVGID_37_" points="314.49,223.926 295.406,212.819 289.283,209.257 295.496,205.854 314.865,195.248 
				315.951,190.225 309.59,190.871 292.189,174.475 287.137,197.844 266.166,209.328 286.83,221.354 291.271,244.848 
				309.096,228.91 315.59,229.741 			"/>
		</defs>
		<clipPath id="SVGID_38_">
			<use xlink:href="#SVGID_37_"  overflow="visible"/>
		</clipPath>
		<g clip-path="url(#SVGID_38_)">
			<g>
				<g>
					<polygon fill="#F7931E" points="292.189,174.475 309.59,190.871 333.377,188.453 323.162,210.07 332.811,231.945 
						309.096,228.91 291.271,244.848 286.83,221.354 266.166,209.328 287.137,197.844 					"/>
					<path fill="#FBB03B" d="M293.999,180.302l13.533,12.753l0.998,0.939l1.363-0.139l18.501-1.88l-7.945,16.813l-0.585,1.239
						l0.553,1.254l7.505,17.014l-18.445-2.36l-1.359-0.174l-1.021,0.913l-13.863,12.396l-3.454-18.273l-0.255-1.347l-1.185-0.689
						l-16.072-9.354l16.312-8.932l1.201-0.658l0.29-1.339L293.999,180.302 M292.189,174.475l-5.053,23.369l-20.971,11.484
						l20.664,12.025l4.441,23.494l17.824-15.938l23.715,3.035l-9.648-21.875l10.215-21.617l-23.787,2.418L292.189,174.475
						L292.189,174.475z"/>
				</g>
			</g>
		</g>
	</g>
</g>
<g>
	<g>
		<g>
			<g>
				<polygon fill="#F7931E" points="325.43,253.824 342.832,270.221 366.619,267.803 356.402,289.42 366.051,311.295 
					342.336,308.26 324.514,324.197 320.072,300.703 299.406,288.678 320.379,277.193 				"/>
				<path fill="#FBB03B" d="M327.239,259.651l13.535,12.753l0.998,0.939l1.363-0.139l18.501-1.881l-7.946,16.813l-0.586,1.239
					l0.553,1.254l7.505,17.014l-18.445-2.36l-1.359-0.174l-1.021,0.913l-13.861,12.396l-3.454-18.273l-0.255-1.346l-1.185-0.689
					l-16.073-9.354l16.312-8.933l1.202-0.657l0.29-1.34L327.239,259.651 M325.43,253.824l-5.051,23.369l-20.973,11.484
					l20.666,12.025l4.441,23.494l17.822-15.938l23.715,3.035l-9.648-21.875l10.217-21.617l-23.787,2.418L325.43,253.824
					L325.43,253.824z"/>
			</g>
		</g>
	</g>
	<g>
		<polygon fill="#666666" points="464.598,267.803 440.811,270.221 438.959,268.477 438.455,269.546 429.021,289.512 
			437.932,309.716 438.146,310.2 440.314,308.26 464.029,311.295 454.381,289.42 		"/>
		<polygon fill="#666666" points="434.094,263.892 423.408,253.824 420.943,265.229 		"/>
		<polygon fill="#666666" points="420.488,313.598 422.492,324.197 432.609,315.15 		"/>
	</g>
	<g>
		<polygon fill="#666666" points="432.033,267.803 408.246,270.221 406.395,268.477 405.891,269.546 396.457,289.512 
			405.367,309.716 405.582,310.2 407.75,308.26 431.465,311.295 421.816,289.42 		"/>
		<polygon fill="#666666" points="401.529,263.892 390.844,253.824 388.379,265.229 		"/>
		<polygon fill="#666666" points="387.924,313.598 389.928,324.197 400.045,315.15 		"/>
	</g>
	<g>
		<polygon fill="#666666" points="399.119,267.803 375.332,270.221 373.48,268.477 372.977,269.546 363.543,289.512 
			372.453,309.716 372.668,310.2 374.836,308.26 398.551,311.295 388.902,289.42 		"/>
		<polygon fill="#666666" points="368.615,263.892 357.93,253.824 355.465,265.229 		"/>
		<polygon fill="#666666" points="355.01,313.598 357.014,324.197 367.131,315.15 		"/>
	</g>
	<g>
		<defs>
			<polygon id="SVGID_39_" points="314.492,303.275 295.406,292.169 289.283,288.606 295.498,285.203 314.865,274.598 
				315.951,269.574 309.592,270.221 292.189,253.824 287.139,277.193 266.166,288.678 286.832,300.703 291.273,324.197 
				309.096,308.26 315.592,309.091 			"/>
		</defs>
		<clipPath id="SVGID_40_">
			<use xlink:href="#SVGID_39_"  overflow="visible"/>
		</clipPath>
		<g clip-path="url(#SVGID_40_)">
			<g>
				<g>
					<polygon fill="#F7931E" points="292.189,253.824 309.592,270.221 333.379,267.803 323.162,289.42 332.811,311.295 
						309.096,308.26 291.273,324.197 286.832,300.703 266.166,288.678 287.139,277.193 					"/>
					<path fill="#FBB03B" d="M293.999,259.651l13.535,12.753l0.998,0.939l1.363-0.139l18.501-1.881l-7.946,16.813l-0.586,1.239
						l0.553,1.254l7.505,17.014l-18.445-2.36l-1.359-0.174l-1.021,0.913l-13.861,12.396l-3.454-18.273l-0.255-1.346l-1.185-0.689
						l-16.073-9.354l16.312-8.933l1.202-0.657l0.29-1.34L293.999,259.651 M292.189,253.824l-5.051,23.369l-20.973,11.484
						l20.666,12.025l4.441,23.494l17.822-15.938l23.715,3.035l-9.648-21.875l10.217-21.617l-23.787,2.418L292.189,253.824
						L292.189,253.824z"/>
				</g>
			</g>
		</g>
	</g>
</g>
<g>
	<g>
		<g>
			<g>
				<polygon fill="#F7931E" points="292.189,333.175 309.592,349.571 333.379,347.153 323.162,368.771 332.811,390.646 
					309.096,387.61 291.273,403.548 286.832,380.054 266.166,368.028 287.139,356.544 				"/>
				<path fill="#FBB03B" d="M293.999,339.002l13.535,12.753l0.998,0.939l1.363-0.139l18.501-1.881l-7.946,16.813l-0.586,1.239
					l0.553,1.254l7.505,17.014l-18.445-2.36l-1.359-0.174l-1.021,0.913l-13.861,12.396l-3.454-18.273l-0.255-1.346l-1.185-0.689
					l-16.073-9.354l16.312-8.933l1.202-0.657l0.29-1.34L293.999,339.002 M292.189,333.175l-5.051,23.369l-20.973,11.484
					l20.666,12.025l4.441,23.494l17.822-15.938l23.715,3.035l-9.648-21.875l10.217-21.617l-23.787,2.418L292.189,333.175
					L292.189,333.175z"/>
			</g>
		</g>
	</g>
	<g>
		<polygon fill="#666666" points="464.598,347.153 440.811,349.571 438.959,347.827 438.455,348.896 429.021,368.862 
			437.932,389.066 438.146,389.551 440.314,387.61 464.029,390.646 454.381,368.771 		"/>
		<polygon fill="#666666" points="434.094,343.242 423.408,333.175 420.943,344.579 		"/>
		<polygon fill="#666666" points="420.488,392.948 422.492,403.548 432.609,394.501 		"/>
	</g>
	<g>
		<polygon fill="#666666" points="432.033,347.153 408.246,349.571 406.395,347.827 405.891,348.896 396.457,368.862 
			405.367,389.066 405.582,389.551 407.75,387.61 431.465,390.646 421.816,368.771 		"/>
		<polygon fill="#666666" points="401.529,343.242 390.844,333.175 388.379,344.579 		"/>
		<polygon fill="#666666" points="387.924,392.948 389.928,403.548 400.045,394.501 		"/>
	</g>
	<g>
		<polygon fill="#666666" points="399.119,347.153 375.332,349.571 373.48,347.827 372.977,348.896 363.543,368.862 
			372.453,389.066 372.668,389.551 374.836,387.61 398.551,390.646 388.902,368.771 		"/>
		<polygon fill="#666666" points="368.615,343.242 357.93,333.175 355.465,344.579 		"/>
		<polygon fill="#666666" points="355.01,392.948 357.014,403.548 367.131,394.501 		"/>
	</g>
	<g>
		<polygon fill="#666666" points="366.619,347.153 342.832,349.571 340.98,347.827 340.475,348.896 331.041,368.862 
			339.953,389.066 340.166,389.551 342.336,387.61 366.051,390.646 356.402,368.771 		"/>
		<polygon fill="#666666" points="336.115,343.242 325.43,333.175 322.965,344.579 		"/>
		<polygon fill="#666666" points="322.51,392.948 324.514,403.548 334.631,394.501 		"/>
	</g>
</g>
<g>
	<g>
		<g>
			<polygon fill="#666666" points="292.189,412.524 309.592,428.921 333.379,426.503 323.162,448.12 332.811,469.995 
				309.096,466.96 291.273,482.897 286.832,459.403 266.166,447.378 287.139,435.894 			"/>
		</g>
	</g>
	<g>
		<polygon fill="#666666" points="464.598,426.503 440.811,428.921 438.959,427.177 438.455,428.246 429.021,448.212 
			437.932,468.416 438.146,468.9 440.314,466.96 464.029,469.995 454.381,448.12 		"/>
		<polygon fill="#666666" points="434.094,422.592 423.408,412.524 420.943,423.929 		"/>
		<polygon fill="#666666" points="420.488,472.298 422.492,482.897 432.609,473.851 		"/>
	</g>
	<g>
		<polygon fill="#666666" points="432.033,426.503 408.246,428.921 406.395,427.177 405.891,428.246 396.457,448.212 
			405.367,468.416 405.582,468.9 407.75,466.96 431.465,469.995 421.816,448.12 		"/>
		<polygon fill="#666666" points="401.529,422.592 390.844,412.524 388.379,423.929 		"/>
		<polygon fill="#666666" points="387.924,472.298 389.928,482.897 400.045,473.851 		"/>
	</g>
	<g>
		<polygon fill="#666666" points="399.119,426.503 375.332,428.921 373.48,427.177 372.977,428.246 363.543,448.212 
			372.453,468.416 372.668,468.9 374.836,466.96 398.551,469.995 388.902,448.12 		"/>
		<polygon fill="#666666" points="368.615,422.592 357.93,412.524 355.465,423.929 		"/>
		<polygon fill="#666666" points="355.01,472.298 357.014,482.897 367.131,473.851 		"/>
	</g>
	<g>
		<polygon fill="#666666" points="366.619,426.503 342.832,428.921 340.98,427.177 340.475,428.246 331.041,448.212 
			339.953,468.416 340.166,468.9 342.336,466.96 366.051,469.995 356.402,448.12 		"/>
		<polygon fill="#666666" points="336.115,422.592 325.43,412.524 322.965,423.929 		"/>
		<polygon fill="#666666" points="322.51,472.298 324.514,482.897 334.631,473.851 		"/>
	</g>
</g>
</svg>
