<?xml version="1.0" encoding="UTF-8" standalone="no"?>
<!-- Created with Inkscape (http://www.inkscape.org/) -->

<svg
   xmlns:dc="http://purl.org/dc/elements/1.1/"
   xmlns:cc="http://creativecommons.org/ns#"
   xmlns:rdf="http://www.w3.org/1999/02/22-rdf-syntax-ns#"
   xmlns:svg="http://www.w3.org/2000/svg"
   xmlns="http://www.w3.org/2000/svg"
   xmlns:sodipodi="http://sodipodi.sourceforge.net/DTD/sodipodi-0.dtd"
   xmlns:inkscape="http://www.inkscape.org/namespaces/inkscape"
   width="1090.2103"
   height="368.77676"
   id="svg4711"
   version="1.1"
   inkscape:version="0.48.1 "
   sodipodi:docname="New document 8">
  <defs
     id="defs4713" />
  <sodipodi:namedview
     id="base"
     pagecolor="#ffffff"
     bordercolor="#666666"
     borderopacity="1.0"
     inkscape:pageopacity="0.0"
     inkscape:pageshadow="2"
     inkscape:zoom="0.98994949"
     inkscape:cx="628.79802"
     inkscape:cy="166.81208"
     inkscape:document-units="px"
     inkscape:current-layer="layer1"
     showgrid="false"
     fit-margin-top="0"
     fit-margin-left="0"
     fit-margin-right="0"
     fit-margin-bottom="0"
     inkscape:window-width="1680"
     inkscape:window-height="988"
     inkscape:window-x="-8"
     inkscape:window-y="-8"
     inkscape:window-maximized="1" />
  <metadata
     id="metadata4716">
    <rdf:RDF>
      <cc:Work
         rdf:about="">
        <dc:format>image/svg+xml</dc:format>
        <dc:type
           rdf:resource="http://purl.org/dc/dcmitype/StillImage" />
        <dc:title></dc:title>
      </cc:Work>
    </rdf:RDF>
  </metadata>
  <g
     inkscape:label="Layer 1"
     inkscape:groupmode="layer"
     id="layer1"
     transform="translate(550.81942,416.81562)">
    <g
       transform="translate(-483.68976,-235.79)"
       id="g4289">
      <path
         inkscape:export-ydpi="9"
         inkscape:export-xdpi="9"
         inkscape:export-filename="C:\Users\Dovile\Desktop\doodles\beetle\path3252-2.png"
         sodipodi:nodetypes="csssssssccccssssssssscsssccccc"
         inkscape:connector-curvature="0"
         id="path2995-0-1-7"
         d="m 860.04215,-67.48099 c 0.21347,-0.21346 -0.83244,-10.20813 -0.63213,-30.24633 0.39411,-39.42389 0.7077,-42.12842 6.1691,-53.20547 7.54951,-15.31223 18.46138,-22.2265 43.99957,-27.88018 8.48437,-1.87828 13.03127,-2.21364 30.00001,-2.21265 20.54057,0.001 29.43312,1.20193 45,6.07617 13.16583,4.12242 22.1872,11.36125 28.0453,22.50358 6.4752,12.31613 6.4496,14.39386 6.8545,54.85406 0.2151,21.50326 1.2882,34.61688 -1.3115,35.50778 2.9002,2.3209 4.8457,4.5111 4.9117,8.2778 0.049,3.5951 -0.8004,2.8189 -4.1309,2.8551 l -4.1308,-0.5541 0.6538,13.1724 c 0.9298,18.736 1.0109,87.612 0.1146,97.3525 -0.6771,7.3579 -0.5245,8.6518 1.5189,12.8728 2.2654,4.6798 2.2697,4.7783 1.5572,36.1118 -0.8813,38.7549 -1.6504,46.9091 -5.0866,53.9325 -5.1578,10.5422 -19.62067,19.9884 -35.17165,22.9717 -19.75433,3.7898 -57.91088,3.7903 -77.64911,0.001 -17.01124,-3.2657 -32.03615,-13.8998 -36.5015,-25.8345 -1.84374,-4.9279 -2.29454,-9.2159 -3.15315,-29.9927 -0.55102,-13.3335 -1.00611,-30.7851 -1.01132,-38.7813 -0.008,-12.762 0.24307,-15.0226 2.05732,-18.5 1.76576,-3.3844 1.96706,-4.981 1.38208,-10.9614 -0.85276,-8.718 -0.73414,-87.1685 0.15385,-101.7507 l 0.65467,-10.7508 -3.07232,0.6145 c -4.7317,-0.032 -3.78247,-1.407 -3.03322,-4.4281 0.64799,-2.6966 2.7955,-5.5208 3.00897,-5.7343 -1.51889,-0.9338 -0.97533,-3.89872 -1.19737,-6.27116 z"
         style="fill:#000000" />
      <path
         inkscape:export-ydpi="9"
         inkscape:export-xdpi="9"
         inkscape:export-filename="C:\Users\Dovile\Desktop\doodles\beetle\path3252-2.png"
         inkscape:connector-curvature="0"
         id="path3019-8-4"
         d="m 894.87727,-31.18311 c 11.34962,-3.68633 25.16103,-4.88592 51.23523,-4.45003 20.33735,0.33999 23.71024,0.67236 35.68945,3.51682 6.62408,1.57289 6.17798,0.16268 4.39828,13.90371 -1.3163,10.16378 -2.10414,26.96871 -2.99597,63.9068 -0.33502,13.87622 -0.82505,23.99042 -1.19589,24.68335 -0.88803,1.6593 -1.71862,1.8752 -11.27566,2.93095 -11.88475,1.3129 -49.50529,1.3129 -61.39004,0 -9.57999,-1.05828 -10.38641,-1.26937 -11.2885,-2.95494 -0.39527,-0.73857 -0.95995,-13.81465 -1.47255,-34.09928 -0.45729,-18.09574 -0.9969,-35.36163 -1.19915,-38.36866 -0.34467,-5.12465 -2.33898,-21.97299 -3.102,-26.20641 -0.33031,-1.83268 -0.22883,-1.94454 2.5968,-2.86231 l 0,0 z"
         style="fill:#ffd42a;fill-opacity:1;fill-rule:nonzero;stroke:none" />
      <path
         inkscape:export-ydpi="9"
         inkscape:export-xdpi="9"
         inkscape:export-filename="C:\Users\Dovile\Desktop\doodles\beetle\path3252-2.png"
         inkscape:connector-curvature="0"
         id="path3789-6-0"
         d="m 883.79289,-106.84395 c 6.51134,-19.48432 9.40191,-26.9871 14.08789,-36.56657 6.29096,-12.86053 9.47601,-15.82143 19.75929,-18.3688 5.09826,-1.26294 12.48028,-1.82585 13.73937,-1.04768 0.34281,0.21186 0.80374,1.34708 1.02428,2.52269 0.58412,3.11364 2.67312,4.2515 7.80831,4.25314 3.82778,0.001 4.30427,-0.14246 5.64795,-1.70311 0.95988,-1.11488 1.46748,-2.4553 1.46748,-3.87519 l 0,-2.17075 5.01171,0.42362 c 16.38859,1.38524 23.10178,5.58401 28.98095,18.12615 6.26691,13.36937 13.07241,31.67856 18.54111,49.88266 1.19357,3.97308 2.05767,7.33619 1.92027,7.47358 -0.1374,0.13738 -0.8193,-0.67181 -1.5155,-1.7982 -2.03807,-3.29766 -7.93337,-8.5237 -12.84307,-11.38507 -7.86908,-4.58605 -19.78152,-8.84021 -29.07076,-10.38172 -5.29432,-0.87857 -29.34116,-0.85722 -35.9314,0.0319 -15.74308,2.12398 -31.33772,9.4502 -40.5493,19.04969 -2.08821,2.17615 -3.78912,3.6386 -3.7798,3.24988 0.009,-0.38873 2.57487,-8.36103 5.70122,-17.71622 z"
         style="fill:#ffd42a;fill-opacity:1;fill-rule:nonzero;stroke:none" />
      <path
         inkscape:export-ydpi="9"
         inkscape:export-xdpi="9"
         inkscape:export-filename="C:\Users\Dovile\Desktop\doodles\beetle\path3252-2.png"
         sodipodi:nodetypes="cscssssccsssssccc"
         inkscape:connector-curvature="0"
         id="path3791-2-9"
         d="m 898.20786,136.6997 c 6.3065,2.94667 13.88695,5.45784 21.01611,6.96198 3.82403,0.80681 4.73315,1.21758 4.88273,2.20621 0.78676,5.19961 1.58559,5.47275 15.931,5.44706 12.93173,-0.0232 14.75347,-0.47473 15.07024,-3.73561 0.24935,-2.56682 0.82224,-2.93045 6.42531,-4.07839 5.93426,-1.21579 14.94236,-4.29491 21.2507,-7.26384 l 4.77878,-2.24906 -0.4163,2.29497 c -1.0398,5.73317 -7.00652,15.28112 -14.00107,22.40451 -8.0002,8.14754 -11.35125,9.05032 -33.4114,9.00106 -19.46662,-0.0435 -21.93646,-0.47608 -28.55157,-5.00104 -3.09055,-2.11404 -5.37594,-4.39418 -8.36477,-8.34558 -4.55941,-6.02776 -9.22207,-14.54415 -9.87197,-18.03121 l -0.42256,-2.26722 5.68477,2.65616 z"
         style="fill:#ffd42a;fill-opacity:1;fill-rule:nonzero;stroke:none" />
      <path
         inkscape:export-ydpi="9"
         inkscape:export-xdpi="9"
         inkscape:export-filename="C:\Users\Dovile\Desktop\doodles\beetle\path3252-2.png"
         inkscape:connector-curvature="0"
         id="path3795-4-4"
         d="m 990.47213,-5.69852 c 3.8583,-30.41107 12.41497,-74.11257 14.51107,-74.11257 0.8625,0 2.0066,1.72926 1.59,2.40331 -0.2156,0.34875 -0.7646,0.63409 -1.2202,0.63409 -1.0534,0 -1.5921,1.74639 -4.2161,13.6683 -5.02727,22.84074 -8.16627,43.39035 -9.46497,61.96297 -0.8177,11.69438 -0.8169,53.50335 10e-4,63.7854 1.851,23.2617 6.3356,44.04231 9.50447,44.04231 0.7621,0 0.8942,0.40319 0.6054,1.84733 -0.3635,1.81703 -6.10797,17.10196 -8.43807,22.45187 -1.1336,2.6028 -1.217,2.66469 -1.7426,1.29269 -1.0351,-2.7017 -1.7358,-30.08549 -2.0305,-79.35388 -0.2773,-46.3381 -0.2248,-49.75465 0.9002,-58.62182 l 0,0 z"
         style="fill:#ffd42a;fill-opacity:1;fill-rule:nonzero;stroke:none" />
      <path
         inkscape:export-ydpi="9"
         inkscape:export-xdpi="9"
         inkscape:export-filename="C:\Users\Dovile\Desktop\doodles\beetle\path3252-2.png"
         inkscape:connector-curvature="0"
         id="path3797-7-8"
         d="m 873.94386,-79.68959 c 0.71157,-0.71157 2.30842,-1.01577 2.30842,-0.43975 0,0.15907 1.22084,5.99943 2.71298,12.97858 8.24272,38.55356 10.91456,58.56617 11.84488,88.72051 0.72935,23.64063 -0.66933,92.84304 -2.18597,108.15438 -0.34561,3.48914 -0.47455,3.78298 -1.21537,2.76984 -1.47613,-2.01874 -9.33408,-23.07473 -9.33408,-25.01142 0,-0.43849 0.40303,-0.79726 0.89562,-0.79726 1.80645,0 3.52254,-5.34273 6.04881,-18.83188 3.03846,-16.22395 3.48345,-22.2792 3.81979,-51.97807 0.35182,-31.06481 -0.0554,-39.41446 -2.87318,-58.9154 -4.37,-30.24319 -9.29766,-52.27861 -12.07456,-53.99482 -0.88456,-0.54669 -0.86087,-1.74118 0.0527,-2.65471 z"
         style="fill:#ffd42a;fill-opacity:1;fill-rule:nonzero;stroke:none" />
      <path
         inkscape:export-ydpi="9"
         inkscape:export-xdpi="9"
         inkscape:export-filename="C:\Users\Dovile\Desktop\doodles\beetle\path3252-2.png"
         inkscape:connector-curvature="0"
         id="path3799-2-8"
         d="m 992.52723,-138.12917 c 0.1155,0 1.8159,0.71309 3.7787,1.58464 5.00647,2.2232 9.85027,2.59575 12.60637,0.96962 2.464,-1.45375 2.8172,-1.21775 4.4383,2.96551 0.924,2.38451 1.0603,6.24406 1.2316,34.87765 0.1328,22.19185 -10e-4,31.8788 -0.4307,31.1742 -0.3429,-0.56223 -1.7182,-5.56895 -3.0563,-11.12604 -4.1768,-17.34639 -9.7497,-35.69227 -16.28537,-53.61143 -1.371,-3.75878 -2.3981,-6.83415 -2.2826,-6.83415 z"
         style="fill:#ffd42a;fill-opacity:1;fill-rule:nonzero;stroke:none" />
      <path
         inkscape:export-ydpi="9"
         inkscape:export-xdpi="9"
         inkscape:export-filename="C:\Users\Dovile\Desktop\doodles\beetle\path3252-2.png"
         inkscape:connector-curvature="0"
         id="path3801-2-2"
         d="m 865.2975,-117.77859 c 0.32774,-11.62637 0.48581,-13.03976 1.78339,-15.94635 0.78307,-1.7541 1.5736,-3.18927 1.75674,-3.18927 0.18313,0 0.86236,0.47839 1.5094,1.06309 1.94351,1.75627 9.00905,1.43357 13.17158,-0.60157 1.82475,-0.89215 3.42082,-1.51899 3.54683,-1.39298 0.12601,0.12601 -1.56144,5.37607 -3.74988,11.66679 -6.43854,18.50775 -9.71546,29.44504 -14.03398,46.84092 -1.46986,5.92089 -2.91809,11.4272 -3.21827,12.23624 -0.36632,0.98726 -0.67855,-3.09024 -0.94947,-12.39965 -0.42102,-14.46653 -0.40737,-17.31053 0.18366,-38.27722 z"
         style="fill:#ffd42a;fill-opacity:1;fill-rule:nonzero;stroke:none" />
      <path
         inkscape:export-ydpi="9"
         inkscape:export-xdpi="9"
         inkscape:export-filename="C:\Users\Dovile\Desktop\doodles\beetle\path3252-2.png"
         inkscape:connector-curvature="0"
         id="path3803-9-4"
         d="m 865.63302,78.24662 c 0.17347,0.17346 1.1309,4.11448 2.12765,8.75783 3.53172,16.45261 11.79865,40.35334 18.99423,54.91468 2.06381,4.17643 3.84663,7.79389 3.96183,8.03881 0.1152,0.24493 -0.84051,0.0749 -2.12381,-0.37791 -7.82403,-2.76048 -15.31703,-0.75827 -15.39988,4.11502 -0.02,1.17582 -0.14527,1.13392 -1.47569,-0.49356 -4.03833,-4.94006 -4.74415,-10.32405 -5.77956,-44.08628 -0.69199,-22.56431 -0.77866,-31.34249 -0.30477,-30.86859 z"
         style="fill:#ffd42a;fill-opacity:1;fill-rule:nonzero;stroke:none" />
      <path
         inkscape:export-ydpi="9"
         inkscape:export-xdpi="9"
         inkscape:export-filename="C:\Users\Dovile\Desktop\doodles\beetle\path3252-2.png"
         inkscape:connector-curvature="0"
         id="path3805-6-5"
         d="m 994.14943,137.97051 c 4.1515,-7.99596 6.25187,-13.00118 9.30427,-22.17302 4.3914,-13.19473 9.2398,-29.68141 10.0937,-34.32262 0.7184,-3.90521 0.2185,42.04512 -0.5937,54.57319 -0.5928,9.14275 -1.4835,12.4542 -4.6575,17.31609 l -0.928,1.42159 -1.0132,-2.01697 c -1.6295,-3.24373 -4.491,-4.77484 -8.92387,-4.77484 -2.0804,0 -4.9103,0.39793 -6.2887,0.88427 -1.8597,0.65614 -2.4868,0.69532 -2.4306,0.15187 0.042,-0.40282 2.4886,-5.37962 5.4376,-11.05956 z"
         style="fill:#ffd42a;fill-opacity:1;fill-rule:nonzero;stroke:none" />
      <path
         inkscape:export-ydpi="9"
         inkscape:export-xdpi="9"
         inkscape:export-filename="C:\Users\Dovile\Desktop\doodles\beetle\path3252-2.png"
         inkscape:connector-curvature="0"
         id="path3807-4-5"
         d="m 958.66971,175.1667 c 0.27698,-0.16217 2.13557,-0.76349 4.1302,-1.33628 4.69921,-1.34943 7.2843,-2.69639 12.55374,-6.54109 4.1068,-2.99643 4.34706,-3.08931 5.15022,-1.99092 0.46336,0.63368 0.84247,1.62433 0.84247,2.20144 0,1.9143 4.14859,3.87487 8.20099,3.87571 4.4483,9.1e-4 8.6268,-1.88557 13.96687,-6.30577 2.0019,-1.65701 3.7788,-2.86849 3.9487,-2.69217 0.1698,0.17631 -1.6745,2.18334 -4.0985,4.46006 -5.17777,4.86312 -13.65627,9.36042 -22.3218,11.84029 -5.17545,1.48108 -21.20267,3.92088 -21.7707,3.31412 -0.55647,-0.59441 -1.08146,-6.54478 -0.60219,-6.82539 l 0,0 z"
         style="fill:#aa8800;fill-opacity:1;fill-rule:nonzero;stroke:none" />
      <path
         inkscape:export-ydpi="9"
         inkscape:export-xdpi="9"
         inkscape:export-filename="C:\Users\Dovile\Desktop\doodles\beetle\path3252-2.png"
         inkscape:connector-curvature="0"
         id="path3809-2-1"
         d="m 875.04826,163.88924 c 4.62463,3.83739 8.19885,6.01138 11.45595,6.96799 5.7622,1.69235 10.79661,0.0187 12.42671,-4.13109 0.50344,-1.28164 1.17586,-2.33025 1.49427,-2.33025 0.3184,0 2.3223,1.4043 4.4531,3.12067 4.39469,3.53994 8.34575,5.48077 13.50355,6.63318 l 3.55457,0.7942 -0.35862,2.16761 c -0.19724,1.19218 -0.36162,2.82038 -0.3653,3.61822 -0.007,1.43938 -0.0432,1.44744 -4.71465,1.03955 -12.33824,-1.07732 -23.49269,-4.09965 -31.35231,-8.495 -2.27275,-1.271 -6.02359,-4.09507 -8.3352,-6.27573 -4.53778,-4.2807 -5.74854,-6.41721 -1.76207,-3.10935 l 0,0 z"
         style="fill:#aa8800;fill-opacity:1;fill-rule:nonzero;stroke:none" />
      <path
         inkscape:export-ydpi="9"
         inkscape:export-xdpi="9"
         inkscape:export-filename="C:\Users\Dovile\Desktop\doodles\beetle\path3252-2.png"
         inkscape:connector-curvature="0"
         id="path3811-9-7"
         d="m 880.61228,-161.06094 c 6.37414,-5.32578 13.82559,-8.64679 24.79904,-11.05258 10.98925,-2.40926 15.61843,-2.76896 35.23386,-2.73774 16.76062,0.0267 20.07807,0.19313 26.72912,1.34122 15.71014,2.71185 25.52533,6.64726 32.48573,13.02517 2.20687,2.02225 3.92317,3.76619 3.81387,3.87543 -0.1092,0.10925 -1.5854,-0.48769 -3.2803,-1.32652 -6.18937,-3.0631 -12.77237,-2.27362 -14.68857,1.76157 l -0.8063,1.69789 -1.67663,-2.30537 c -2.28074,-3.13599 -6.15547,-6.54081 -9.22644,-8.1075 -4.27587,-2.18139 -13.56497,-4.18399 -22.81275,-4.91812 -9.81847,-0.77944 -27.76041,0.0405 -34.91945,1.59576 -8.73682,1.89805 -15.18574,5.46802 -18.68848,10.3455 -1.07736,1.50019 -2.14687,2.71709 -2.37669,2.70422 -0.22983,-0.0129 -0.9646,-0.88433 -1.63283,-1.93659 -0.68328,-1.07596 -2.01247,-2.13598 -3.0374,-2.42232 -2.54754,-0.71171 -8.34442,0.0243 -11.04825,1.40283 -2.58684,1.31885 -2.62005,1.3274 -2.62005,0.67476 0,-0.26526 1.68863,-1.89318 3.75252,-3.61761 l 0,0 z"
         style="fill:#aa8800;fill-opacity:1;fill-rule:nonzero;stroke:none" />
      <path
         inkscape:export-ydpi="9"
         inkscape:export-xdpi="9"
         inkscape:export-filename="C:\Users\Dovile\Desktop\doodles\beetle\path3252-2.png"
         inkscape:connector-curvature="0"
         id="path3815-28-1"
         d="m 889.46497,-83.02641 c 34.27604,-17.60949 63.52289,-18.17545 97.11666,-1.87933 4.3829,2.12612 8.2979,4.26214 8.7001,4.74671 0.5811,0.7002 -0.1133,5.01621 -3.383,21.02868 l -4.1142,20.14766 -2.156,-0.32438 c -1.18582,-0.17842 -6.2565,-1.05849 -11.26821,-1.95572 -8.03402,-1.43831 -11.16075,-1.66781 -26.42538,-1.93965 -23.28182,-0.41461 -36.90107,0.56846 -53.29283,3.84681 -1.87855,0.37571 -1.93156,0.32236 -2.85668,-2.87501 -1.14719,-3.9649 -7.63591,-35.34976 -7.63591,-36.93364 0,-0.80914 1.51364,-1.90892 5.31545,-3.86213 l 0,0 z"
         style="fill:#333333;fill-opacity:1;fill-rule:nonzero;stroke:none" />
      <path
         inkscape:export-ydpi="9"
         inkscape:export-xdpi="9"
         inkscape:export-filename="C:\Users\Dovile\Desktop\doodles\beetle\path3252-2.png"
         inkscape:connector-curvature="0"
         id="path3817-5-1"
         d="m 900.70941,105.21116 c 0.25392,-10.66714 0.60005,-19.53318 0.76919,-19.70232 0.16914,-0.16914 7.47895,0.0189 16.24403,0.41793 24.40524,1.11095 39.30697,0.88311 56.17067,-0.85885 3.68869,-0.38103 3.80099,-0.34985 4.39819,1.22089 0.33706,0.88655 0.79633,11.02954 1.02059,22.53999 l 0.40775,20.92808 -3.9393,1.78617 c -10.28316,4.66261 -17.20003,6.09628 -31.57558,6.54476 -16.78098,0.52352 -26.97412,-1.0194 -38.05448,-5.76026 l -5.29525,-2.26563 -0.30374,-2.72798 c -0.16705,-1.5004 -0.096,-11.45565 0.15793,-22.12278 l 0,0 z"
         style="fill:#333333;fill-opacity:1;fill-rule:nonzero;stroke:none" />
      <path
         inkscape:export-ydpi="9"
         inkscape:export-xdpi="9"
         inkscape:export-filename="C:\Users\Dovile\Desktop\doodles\beetle\path3252-2.png"
         sodipodi:nodetypes="ccccccc"
         inkscape:connector-curvature="0"
         id="path3819-0-5"
         d="m 1002.2849,-53.457466 c 0.084,27.344688 -1.2031,39.732224 -0.9652,50.086096 l 0.9057,35.439877 c -2.49329,0.575947 -2.33359,0.06755 -4.65986,0.0753 l -3.5689,0 0.089,-7.13789 c -1.06608,-27.3032128 4.56743,-54.390879 8.19926,-78.463383 z"
         style="fill:#333333;fill-opacity:1;fill-rule:nonzero;stroke:none" />
      <path
         inkscape:export-ydpi="9"
         inkscape:export-xdpi="9"
         inkscape:export-filename="C:\Users\Dovile\Desktop\doodles\beetle\path3252-2.png"
         sodipodi:nodetypes="cccc"
         inkscape:connector-curvature="0"
         id="path3821-46-2"
         d="m 1000.3782,45.756161 c 0.6972,0.69723 -1.08443,39.057892 -1.80994,38.609132 -0.57617,-0.35609 -4.7135,-33.985888 -4.7135,-38.607528 2.99429,0.134347 3.55688,0.558353 6.52344,-0.0016 z"
         style="fill:#333333;fill-opacity:1;fill-rule:nonzero;stroke:none" />
      <path
         inkscape:export-ydpi="9"
         inkscape:export-xdpi="9"
         inkscape:export-filename="C:\Users\Dovile\Desktop\doodles\beetle\path3252-2.png"
         sodipodi:nodetypes="cssccccc"
         inkscape:connector-curvature="0"
         id="path3823-1-7"
         d="m 877.52457,-30.945666 c 0.2596,-9.3552 -0.1799,-19.710053 0.1146,-21.046503 0.50389,-2.28665 -0.44019,-2.107021 1.08837,5.896229 3.93713,20.61418 7.63875,56.19086 7.69532,73.96069 l 0.013,4.10049 c -3.84737,0 -4.30189,-0.178571 -8.14926,-0.178571 l 0.27577,-23.1293047 c -0.72259,-13.456085 0.49626,-24.5333473 -1.0378,-39.6030303 z"
         style="fill:#333333;fill-opacity:1;fill-rule:nonzero;stroke:none" />
      <path
         inkscape:export-ydpi="9"
         inkscape:export-xdpi="9"
         inkscape:export-filename="C:\Users\Dovile\Desktop\doodles\beetle\path3252-2.png"
         sodipodi:nodetypes="ccccc"
         inkscape:connector-curvature="0"
         id="path3825-2-6"
         d="m 880.11494,45.532595 c 1.82613,-0.361888 2.89308,0.691748 4.73743,0.691748 -1.19429,14.521931 -0.52867,25.050392 -3.55989,35.283603 -1.2332,-10.558678 -1.87484,-18.99547 -2.00449,-29.902194 0,-3.49072 -1.03943,-5.699887 0.82695,-6.073157 z"
         style="fill:#333333;fill-opacity:1;fill-rule:nonzero;stroke:none" />
      <path
         inkscape:export-ydpi="9"
         inkscape:export-xdpi="9"
         inkscape:export-filename="C:\Users\Dovile\Desktop\doodles\beetle\path3252-2.png"
         inkscape:connector-curvature="0"
         id="path3827-1-1"
         d="m 993.29343,-153.51867 c 0.8087,-0.80866 2.8858,-0.37193 5.4902,1.15434 6.36617,3.73081 8.77277,12.21058 2.82347,9.94867 -4.55377,-1.73135 -10.17627,-9.24034 -8.31367,-11.10301 z"
         style="fill:#b3b3b3;fill-opacity:1;fill-rule:nonzero;stroke:none" />
      <path
         inkscape:export-ydpi="9"
         inkscape:export-xdpi="9"
         inkscape:export-filename="C:\Users\Dovile\Desktop\doodles\beetle\path3252-2.png"
         inkscape:connector-curvature="0"
         id="path3829-6-4"
         d="m 876.80168,-148.27974 c 4.14294,-5.71916 11.75457,-7.50218 9.77261,-2.28922 -1.65516,4.3534 -7.98443,9.42068 -10.54133,8.4395 -1.54921,-0.59448 -1.19333,-3.44175 0.76872,-6.15028 z"
         style="fill:#b3b3b3;fill-opacity:1;fill-rule:nonzero;stroke:none" />
      <path
         inkscape:export-ydpi="9"
         inkscape:export-xdpi="9"
         inkscape:export-filename="C:\Users\Dovile\Desktop\doodles\beetle\path3252-2.png"
         inkscape:connector-curvature="0"
         id="path3831-72-2"
         d="m 988.71003,158.68496 c 4.4462,-5.05114 10.2305,-6.74821 11.85187,-3.47729 1.9382,3.90994 -5.07107,11.01066 -10.86887,11.01066 -4.2855,0 -4.7152,-3.29334 -0.983,-7.53337 l 0,0 z"
         style="fill:#333333;fill-opacity:1;fill-rule:nonzero;stroke:none" />
      <path
         inkscape:export-ydpi="9"
         inkscape:export-xdpi="9"
         inkscape:export-filename="C:\Users\Dovile\Desktop\doodles\beetle\path3252-2.png"
         inkscape:connector-curvature="0"
         id="path3833-28-3"
         d="m 880.17984,154.26018 c 2.81409,-1.34195 5.87212,-0.43244 9.6107,2.85839 3.46114,3.04662 4.70325,6.18775 3.13297,7.92289 -2.8028,3.09707 -10.76953,-0.49839 -13.66047,-6.1651 -1.59287,-3.12229 -1.52769,-3.45049 0.9168,-4.61618 z"
         style="fill:#333333;fill-opacity:1;fill-rule:nonzero;stroke:none" />
      <path
         inkscape:export-ydpi="9"
         inkscape:export-xdpi="9"
         inkscape:export-filename="C:\Users\Dovile\Desktop\doodles\beetle\path3252-2.png"
         sodipodi:nodetypes="scss"
         inkscape:connector-curvature="0"
         id="path3837-6-2"
         d="m 878.53551,36.008481 c 1.41416,-1.501844 7.42143,0.04705 7.3547,1.816598 -0.0896,2.375728 -1.99544,4.583662 -5.05681,3.4853 -2.54945,-0.914678 -3.89168,-3.609259 -2.29789,-5.301898 z"
         style="fill:#ffd42a;fill-opacity:1;fill-rule:nonzero;stroke:none" />
      <path
         inkscape:export-ydpi="9"
         inkscape:export-xdpi="9"
         inkscape:export-filename="C:\Users\Dovile\Desktop\doodles\beetle\path3252-2.png"
         sodipodi:nodetypes="cccc"
         inkscape:connector-curvature="0"
         id="path3839-1-2"
         d="m 994.0343,37.418761 c 0.6798,-2.360193 7.2525,-2.265445 7.6893,0.188254 0.6676,3.750818 0.4787,4.475226 -4.0385,4.573415 -4.04857,0.08819 -4.6168,-1.407564 -3.6508,-4.761666 z"
         style="fill:#ffd42a;fill-opacity:1;fill-rule:nonzero;stroke:none" />
      <path
         inkscape:export-ydpi="9"
         inkscape:export-xdpi="9"
         inkscape:export-filename="C:\Users\Dovile\Desktop\doodles\beetle\path3252-2.png"
         inkscape:connector-curvature="0"
         id="path3841-0-1"
         d="m 900.03445,-100.06035 c 6.5962,-3.1491 13.34624,-5.36573 20.94416,-6.8778 4.23947,-0.8437 8.24508,-1.06081 18.75535,-1.01655 14.63515,0.0616 21.20423,0.85101 29.07837,3.49427 5.32125,1.78629 16.5189,6.89488 16.0785,7.33532 -0.16223,0.16221 -2.62771,-0.64572 -5.47888,-1.79541 -5.98227,-2.41224 -16.85378,-5.37471 -23.88351,-6.5082 -7.07395,-1.14063 -26.55998,-0.96865 -33.41141,0.29488 -6.92941,1.27791 -14.90347,3.5856 -21.76545,6.29893 -2.94993,1.16643 -5.5062,1.97809 -5.68062,1.80367 -0.17442,-0.17442 2.23915,-1.53752 5.36349,-3.02911 l 0,0 z"
         style="fill:#aa8800;fill-opacity:1;fill-rule:nonzero;stroke:none" />
      <path
         inkscape:export-ydpi="9"
         inkscape:export-xdpi="9"
         inkscape:export-filename="C:\Users\Dovile\Desktop\doodles\beetle\path3252-2.png"
         inkscape:connector-curvature="0"
         id="path3843-98-6"
         d="m 1010.8617,-60.9792 c 1.0709,0 6.4834,3.68992 6.0492,4.12405 -0.7161,0.71614 -5.8397,-0.63693 -6.404,-1.69118 -0.8711,-1.62769 -0.7537,-2.43287 0.3548,-2.43287 z"
         style="fill:#aa8800;fill-opacity:1;fill-rule:nonzero;stroke:none" />
      <path
         inkscape:export-ydpi="9"
         inkscape:export-xdpi="9"
         inkscape:export-filename="C:\Users\Dovile\Desktop\doodles\beetle\path3252-2.png"
         inkscape:connector-curvature="0"
         id="path3845-2-8"
         d="m 865.26881,-59.05155 c 2.82277,-2.04481 4.90867,-2.49517 4.90867,-1.05983 0,1.36687 -1.6754,2.69442 -3.93554,3.11842 -3.48859,0.65447 -3.80229,-0.009 -0.97313,-2.05859 z"
         style="fill:#aa8800;fill-opacity:1;fill-rule:nonzero;stroke:none" />
      <path
         inkscape:export-ydpi="9"
         inkscape:export-xdpi="9"
         inkscape:export-filename="C:\Users\Dovile\Desktop\doodles\beetle\path3252-2.png"
         inkscape:connector-curvature="0"
         id="path3847-5-5"
         d="m 940.0377,177.76045 13.97204,0 0,2.42992 0,2.42992 -13.97204,0 -13.97204,0 0,-2.42992 0,-2.42992 13.97204,0 z"
         style="fill:#333333;fill-opacity:1;fill-rule:nonzero;stroke:none" />
      <path
         inkscape:export-ydpi="9"
         inkscape:export-xdpi="9"
         inkscape:export-filename="C:\Users\Dovile\Desktop\doodles\beetle\path3252-2.png"
         inkscape:connector-curvature="0"
         id="path3849-0-7"
         d="m 937.35613,-162.79303 c 1.71375,-0.71605 2.60912,-0.76795 4.19864,-0.24336 3.87291,1.27818 2.87447,4.5875 -1.35064,4.47671 -4.94881,-0.12976 -6.64281,-2.64778 -2.848,-4.23335 z"
         style="fill:#333333;fill-opacity:1;fill-rule:nonzero;stroke:none" />
      <path
         inkscape:export-ydpi="9"
         inkscape:export-xdpi="9"
         sodipodi:nodetypes="scsss"
         inkscape:connector-curvature="0"
         id="path3252"
         d="m 1005.1675,-15.208676 c 3.1385,44.15593 -2.756,114.221912 -3.0051,113.509245 3.3416,-6.621996 7.1928,-18.975978 9.0989,-38.062821 3.0214,-30.255667 1.5199,-103.789379 -2.8795,-107.946423 -3.3672,-3.181698 -3.9861,21.641208 -3.2143,32.499999 z"
         style="fill:#ffd42a;fill-opacity:1;stroke:none" />
      <path
         inkscape:export-ydpi="9"
         inkscape:export-xdpi="9"
         sodipodi:nodetypes="scsss"
         inkscape:connector-curvature="0"
         id="path3252-2"
         d="m 873.96598,-14.576527 c -2.27729,44.208713 4.00597,112.61477 4.25507,111.9021 -3.3416,-6.621993 -9.44847,-19.649163 -10.88457,-38.777103 -2.3376,-31.13481 0.0965,-106.433952 2.1652,-107.23214 6.81411,-2.629125 4.86978,26.235606 4.4643,34.107143 z"
         style="fill:#ffd42a;fill-opacity:1;stroke:none" />
    </g>
    <g
       transform="translate(-467.22635,-194.639)"
       id="g4437">
      <path
         inkscape:export-ydpi="9"
         inkscape:export-xdpi="9"
         inkscape:export-filename="C:\Users\Dovile\Desktop\doodles\beetle\path3252-2.png"
         sodipodi:nodetypes="csssssssccccssssssssscsssccccc"
         inkscape:connector-curvature="0"
         id="path2995-0-1-7-8"
         d="m 535.3317,-108.63199 c 0.21347,-0.21346 -0.83245,-10.20813 -0.63213,-30.24633 0.3941,-39.42389 0.7077,-42.12842 6.1691,-53.20547 7.5495,-15.31223 18.46137,-22.2265 43.99956,-27.88018 8.48437,-1.87828 13.03127,-2.21364 30.00001,-2.21265 20.54057,0.001 29.43312,1.20193 45,6.07617 13.16583,4.12242 22.1872,11.36125 28.0453,22.50358 6.4752,12.31613 6.4496,14.39386 6.8545,54.85406 0.2151,21.50326 1.2882,34.61688 -1.3115,35.50778 2.9002,2.3209 4.8457,4.511096 4.9117,8.277796 0.049,3.5951 -0.8004,2.8189 -4.1309,2.8551 l -4.1308,-0.5541 0.6538,13.1724 c 0.9298,18.736 1.0109,87.6120002 0.1146,97.3525 -0.6771,7.3579 -0.5245,8.6518 1.5189,12.8728 2.2654,4.6798 2.2697,4.7783 1.5572,36.1118 -0.8813,38.754904 -1.6504,46.909104 -5.0866,53.932504 -5.1578,10.5422 -19.62067,19.9884 -35.17165,22.9717 -19.75433,3.7898 -57.91088,3.7903 -77.64911,10e-4 -17.01124,-3.2657 -32.03615,-13.8998 -36.5015,-25.8345 -1.84374,-4.9279 -2.29454,-9.2159 -3.15315,-29.992704 -0.55102,-13.3335 -1.00611,-30.7851 -1.01132,-38.7813 -0.008,-12.762 0.24307,-15.0226 2.05732,-18.5 1.76576,-3.3844 1.96706,-4.981 1.38208,-10.9614 -0.85276,-8.718 -0.73414,-87.1685 0.15385,-101.7507 l 0.65467,-10.7508 -3.07232,0.6145 c -4.7317,-0.032 -3.78247,-1.407 -3.03322,-4.4281 0.64799,-2.6966 2.7955,-5.520796 3.00897,-5.734296 -1.51889,-0.9338 -0.97533,-3.89872 -1.19737,-6.27116 z"
         style="fill:#000000" />
      <path
         inkscape:export-ydpi="9"
         inkscape:export-xdpi="9"
         inkscape:export-filename="C:\Users\Dovile\Desktop\doodles\beetle\path3252-2.png"
         inkscape:connector-curvature="0"
         id="path3019-8-4-0"
         d="m 570.16681,-72.334114 c 11.34962,-3.68633 25.16103,-4.88592 51.23523,-4.45003 20.33735,0.33999 23.71024,0.67236 35.68945,3.51682 6.62408,1.57289 6.17798,0.16268 4.39828,13.90371 -1.3163,10.16378 -2.10414,26.96871 -2.99597,63.9068002 -0.33502,13.8762198 -0.82505,23.9904198 -1.19589,24.6833498 -0.88803,1.6593 -1.71862,1.8752 -11.27566,2.93095 -11.88475,1.3129 -49.50529,1.3129 -61.39004,0 -9.57999,-1.05828 -10.38641,-1.26937 -11.2885,-2.95494 -0.39527,-0.73857 -0.95995,-13.81465 -1.47255,-34.0992798 -0.45729,-18.0957402 -0.9969,-35.3616302 -1.19915,-38.3686602 -0.34467,-5.12465 -2.33898,-21.97299 -3.102,-26.20641 -0.33031,-1.83268 -0.22883,-1.94454 2.5968,-2.86231 l 0,0 z"
         style="fill:#0066ff;fill-opacity:1;fill-rule:nonzero;stroke:none" />
      <path
         inkscape:export-ydpi="9"
         inkscape:export-xdpi="9"
         inkscape:export-filename="C:\Users\Dovile\Desktop\doodles\beetle\path3252-2.png"
         inkscape:connector-curvature="0"
         id="path3789-6-0-0"
         d="m 559.08243,-147.99495 c 6.51134,-19.48432 9.40191,-26.9871 14.08789,-36.56657 6.29096,-12.86053 9.47601,-15.82143 19.75929,-18.3688 5.09826,-1.26294 12.48028,-1.82585 13.73937,-1.04768 0.34281,0.21186 0.80374,1.34708 1.02428,2.52269 0.58412,3.11364 2.67312,4.2515 7.80831,4.25314 3.82778,0.001 4.30427,-0.14246 5.64795,-1.70311 0.95988,-1.11488 1.46748,-2.4553 1.46748,-3.87519 l 0,-2.17075 5.01171,0.42362 c 16.38859,1.38524 23.10178,5.58401 28.98095,18.12615 6.26691,13.36937 13.07241,31.67856 18.54111,49.88266 1.19357,3.97308 2.05767,7.33619 1.92027,7.47358 -0.1374,0.13738 -0.8193,-0.67181 -1.5155,-1.7982 -2.03807,-3.29766 -7.93337,-8.5237 -12.84307,-11.38507 -7.86908,-4.58605 -19.78152,-8.84021 -29.07076,-10.38172 -5.29432,-0.87857 -29.34116,-0.85722 -35.9314,0.0319 -15.74308,2.12398 -31.33772,9.4502 -40.5493,19.04969 -2.08821,2.17615 -3.78912,3.6386 -3.7798,3.24988 0.009,-0.38873 2.57487,-8.36103 5.70122,-17.71622 z"
         style="fill:#0066ff;fill-opacity:1;fill-rule:nonzero;stroke:none" />
      <path
         inkscape:export-ydpi="9"
         inkscape:export-xdpi="9"
         inkscape:export-filename="C:\Users\Dovile\Desktop\doodles\beetle\path3252-2.png"
         sodipodi:nodetypes="cscssssccsssssccc"
         inkscape:connector-curvature="0"
         id="path3791-2-9-3"
         d="m 573.4974,95.548696 c 6.3065,2.94667 13.88695,5.457844 21.01611,6.961984 3.82403,0.80681 4.73315,1.21758 4.88273,2.20621 0.78676,5.19961 1.58559,5.47275 15.931,5.44706 12.93173,-0.0232 14.75347,-0.47473 15.07024,-3.73561 0.24935,-2.56682 0.82224,-2.93045 6.42531,-4.07839 5.93426,-1.21579 14.94236,-4.294914 21.2507,-7.263844 l 4.77878,-2.24906 -0.4163,2.29497 c -1.0398,5.733174 -7.00652,15.281124 -14.00107,22.404514 -8.0002,8.14754 -11.35125,9.05032 -33.4114,9.00106 -19.46662,-0.0435 -21.93646,-0.47608 -28.55157,-5.00104 -3.09055,-2.11404 -5.37594,-4.39418 -8.36477,-8.34558 -4.55941,-6.02776 -9.22207,-14.544154 -9.87197,-18.031214 l -0.42256,-2.26722 5.68477,2.65616 z"
         style="fill:#0066ff;fill-opacity:1;fill-rule:nonzero;stroke:none" />
      <path
         inkscape:export-ydpi="9"
         inkscape:export-xdpi="9"
         inkscape:export-filename="C:\Users\Dovile\Desktop\doodles\beetle\path3252-2.png"
         inkscape:connector-curvature="0"
         id="path3795-4-4-4"
         d="m 665.76167,-46.849524 c 3.8583,-30.41107 12.41497,-74.112566 14.51107,-74.112566 0.8625,0 2.0066,1.72926 1.59,2.40331 -0.2156,0.34875 -0.7646,0.63409 -1.2202,0.63409 -1.0534,0 -1.5921,1.74639 -4.2161,13.6683 -5.02727,22.840736 -8.16627,43.390346 -9.46497,61.962966 -0.8177,11.69438 -0.8169,53.50335 0.001,63.7854 1.851,23.2617 6.3356,44.04231 9.50447,44.04231 0.7621,0 0.8942,0.40319 0.6054,1.84733 -0.3635,1.81703 -6.10797,17.10196 -8.43807,22.45187 -1.1336,2.6028 -1.217,2.66469 -1.7426,1.29269 -1.0351,-2.7017 -1.7358,-30.08549 -2.0305,-79.35388 -0.2773,-46.3381 -0.2248,-49.75465 0.9002,-58.62182 l 0,0 z"
         style="fill:#0066ff;fill-opacity:1;fill-rule:nonzero;stroke:none" />
      <path
         inkscape:export-ydpi="9"
         inkscape:export-xdpi="9"
         inkscape:export-filename="C:\Users\Dovile\Desktop\doodles\beetle\path3252-2.png"
         inkscape:connector-curvature="0"
         id="path3797-7-8-4"
         d="m 549.2334,-120.84059 c 0.71157,-0.71157 2.30842,-1.01577 2.30842,-0.43975 0,0.15907 1.22084,5.99943 2.71298,12.97858 8.24272,38.553556 10.91456,58.566166 11.84488,88.720506 0.72935,23.6406302 -0.66933,92.84304 -2.18597,108.15438 -0.34561,3.48914 -0.47455,3.78298 -1.21537,2.76984 -1.47613,-2.01874 -9.33408,-23.07473 -9.33408,-25.01142 0,-0.43849 0.40303,-0.79726 0.89562,-0.79726 1.80645,0 3.52254,-5.34273 6.04881,-18.83188 3.03846,-16.22395 3.48345,-22.2792 3.81979,-51.9780698 0.35182,-31.0648102 -0.0554,-39.4144602 -2.87318,-58.9154002 -4.37,-30.24319 -9.29766,-52.278606 -12.07456,-53.994816 -0.88456,-0.54669 -0.86087,-1.74118 0.0527,-2.65471 z"
         style="fill:#0066ff;fill-opacity:1;fill-rule:nonzero;stroke:none" />
      <path
         inkscape:export-ydpi="9"
         inkscape:export-xdpi="9"
         inkscape:export-filename="C:\Users\Dovile\Desktop\doodles\beetle\path3252-2.png"
         inkscape:connector-curvature="0"
         id="path3799-2-8-6"
         d="m 667.81677,-179.28017 c 0.1155,0 1.8159,0.71309 3.7787,1.58464 5.00647,2.2232 9.85027,2.59575 12.60637,0.96962 2.464,-1.45375 2.8172,-1.21775 4.4383,2.96551 0.924,2.38451 1.0603,6.24406 1.2316,34.87765 0.1328,22.19185 -0.001,31.8788 -0.4307,31.1742 -0.3429,-0.56223 -1.7182,-5.56895 -3.0563,-11.12604 -4.1768,-17.34639 -9.7497,-35.69227 -16.28537,-53.61143 -1.371,-3.75878 -2.3981,-6.83415 -2.2826,-6.83415 z"
         style="fill:#0066ff;fill-opacity:1;fill-rule:nonzero;stroke:none" />
      <path
         inkscape:export-ydpi="9"
         inkscape:export-xdpi="9"
         inkscape:export-filename="C:\Users\Dovile\Desktop\doodles\beetle\path3252-2.png"
         inkscape:connector-curvature="0"
         id="path3801-2-2-5"
         d="m 540.58704,-158.92959 c 0.32775,-11.62637 0.48581,-13.03976 1.78339,-15.94635 0.78307,-1.7541 1.5736,-3.18927 1.75674,-3.18927 0.18313,0 0.86236,0.47839 1.5094,1.06309 1.94351,1.75627 9.00905,1.43357 13.17158,-0.60157 1.82475,-0.89215 3.42082,-1.51899 3.54683,-1.39298 0.12601,0.12601 -1.56144,5.37607 -3.74988,11.66679 -6.43854,18.50775 -9.71546,29.44504 -14.03398,46.84092 -1.46986,5.92089 -2.91809,11.4272 -3.21827,12.23624 -0.36632,0.98726 -0.67855,-3.09024 -0.94947,-12.39965 -0.42102,-14.46653 -0.40737,-17.31053 0.18366,-38.27722 z"
         style="fill:#0066ff;fill-opacity:1;fill-rule:nonzero;stroke:none" />
      <path
         inkscape:export-ydpi="9"
         inkscape:export-xdpi="9"
         inkscape:export-filename="C:\Users\Dovile\Desktop\doodles\beetle\path3252-2.png"
         inkscape:connector-curvature="0"
         id="path3803-9-4-1"
         d="m 540.92256,37.095616 c 0.17347,0.17346 1.1309,4.11448 2.12765,8.75783 3.53172,16.45261 11.79865,40.35334 18.99423,54.914684 2.06381,4.17643 3.84663,7.79389 3.96183,8.03881 0.1152,0.24493 -0.84051,0.0749 -2.12381,-0.37791 -7.82403,-2.76048 -15.31703,-0.75827 -15.39988,4.11502 -0.02,1.17582 -0.14527,1.13392 -1.47569,-0.49356 -4.03833,-4.94006 -4.74414,-10.32405 -5.77955,-44.086284 -0.692,-22.56431 -0.77866,-31.34249 -0.30478,-30.86859 z"
         style="fill:#0066ff;fill-opacity:1;fill-rule:nonzero;stroke:none" />
      <path
         inkscape:export-ydpi="9"
         inkscape:export-xdpi="9"
         inkscape:export-filename="C:\Users\Dovile\Desktop\doodles\beetle\path3252-2.png"
         inkscape:connector-curvature="0"
         id="path3805-6-5-6"
         d="m 669.43897,96.819506 c 4.1515,-7.99596 6.25187,-13.00118 9.30427,-22.17302 4.3914,-13.19473 9.2398,-29.68141 10.0937,-34.32262 0.7184,-3.90521 0.2185,42.04512 -0.5937,54.57319 -0.5928,9.142754 -1.4835,12.454204 -4.6575,17.316094 l -0.928,1.42159 -1.0132,-2.01697 c -1.6295,-3.24373 -4.491,-4.77484 -8.92387,-4.77484 -2.0804,0 -4.9103,0.39793 -6.2887,0.88427 -1.8597,0.65614 -2.4868,0.69532 -2.4306,0.15187 0.042,-0.40282 2.4886,-5.37962 5.4376,-11.059564 z"
         style="fill:#0066ff;fill-opacity:1;fill-rule:nonzero;stroke:none" />
      <path
         inkscape:export-ydpi="9"
         inkscape:export-xdpi="9"
         inkscape:export-filename="C:\Users\Dovile\Desktop\doodles\beetle\path3252-2.png"
         inkscape:connector-curvature="0"
         id="path3807-4-5-8"
         d="m 633.95925,134.0157 c 0.27698,-0.16217 2.13557,-0.76349 4.1302,-1.33628 4.69921,-1.34943 7.2843,-2.69639 12.55374,-6.54109 4.1068,-2.99643 4.34706,-3.08931 5.15022,-1.99092 0.46336,0.63368 0.84247,1.62433 0.84247,2.20144 0,1.9143 4.14859,3.87487 8.20099,3.87571 4.4483,9.1e-4 8.6268,-1.88557 13.96687,-6.30577 2.0019,-1.65701 3.7788,-2.86849 3.9487,-2.69217 0.1698,0.17631 -1.6745,2.18334 -4.0985,4.46006 -5.17777,4.86312 -13.65627,9.36042 -22.3218,11.84029 -5.17545,1.48108 -21.20267,3.92088 -21.7707,3.31412 -0.55647,-0.59441 -1.08146,-6.54478 -0.60219,-6.82539 l 0,0 z"
         style="fill:#003380;fill-opacity:1;fill-rule:nonzero;stroke:none" />
      <path
         inkscape:export-ydpi="9"
         inkscape:export-xdpi="9"
         inkscape:export-filename="C:\Users\Dovile\Desktop\doodles\beetle\path3252-2.png"
         inkscape:connector-curvature="0"
         id="path3809-2-1-7"
         d="m 550.3378,122.73824 c 4.62463,3.83739 8.19885,6.01138 11.45595,6.96799 5.7622,1.69235 10.79661,0.0187 12.42671,-4.13109 0.50344,-1.28164 1.17586,-2.33025 1.49427,-2.33025 0.3184,0 2.3223,1.4043 4.4531,3.12067 4.39469,3.53994 8.34575,5.48077 13.50355,6.63318 l 3.55457,0.7942 -0.35862,2.16761 c -0.19724,1.19218 -0.36162,2.82038 -0.3653,3.61822 -0.007,1.43938 -0.0432,1.44744 -4.71465,1.03955 -12.33824,-1.07732 -23.49269,-4.09965 -31.35231,-8.495 -2.27275,-1.271 -6.02359,-4.09507 -8.3352,-6.27573 -4.53778,-4.2807 -5.74854,-6.41721 -1.76207,-3.10935 l 0,0 z"
         style="fill:#003380;fill-opacity:1;fill-rule:nonzero;stroke:none" />
      <path
         inkscape:export-ydpi="9"
         inkscape:export-xdpi="9"
         inkscape:export-filename="C:\Users\Dovile\Desktop\doodles\beetle\path3252-2.png"
         inkscape:connector-curvature="0"
         id="path3811-9-7-4"
         d="m 555.90182,-202.21194 c 6.37414,-5.32578 13.82559,-8.64679 24.79904,-11.05258 10.98925,-2.40926 15.61843,-2.76896 35.23386,-2.73774 16.76062,0.0267 20.07807,0.19313 26.72912,1.34122 15.71014,2.71185 25.52533,6.64726 32.48573,13.02517 2.20687,2.02225 3.92317,3.76619 3.81387,3.87543 -0.1092,0.10925 -1.5854,-0.48769 -3.2803,-1.32652 -6.18937,-3.0631 -12.77237,-2.27362 -14.68857,1.76157 l -0.8063,1.69789 -1.67663,-2.30537 c -2.28074,-3.13599 -6.15547,-6.54081 -9.22644,-8.1075 -4.27587,-2.18139 -13.56497,-4.18399 -22.81275,-4.91812 -9.81847,-0.77944 -27.76041,0.0405 -34.91945,1.59576 -8.73682,1.89805 -15.18574,5.46802 -18.68848,10.3455 -1.07736,1.50019 -2.14687,2.71709 -2.37669,2.70422 -0.22983,-0.0129 -0.9646,-0.88433 -1.63283,-1.93659 -0.68328,-1.07596 -2.01247,-2.13598 -3.0374,-2.42232 -2.54754,-0.71171 -8.34442,0.0243 -11.04825,1.40283 -2.58684,1.31885 -2.62005,1.3274 -2.62005,0.67476 0,-0.26526 1.68863,-1.89318 3.75252,-3.61761 l 0,0 z"
         style="fill:#003380;fill-opacity:1;fill-rule:nonzero;stroke:none" />
      <path
         inkscape:export-ydpi="9"
         inkscape:export-xdpi="9"
         inkscape:export-filename="C:\Users\Dovile\Desktop\doodles\beetle\path3252-2.png"
         inkscape:connector-curvature="0"
         id="path3815-28-1-0"
         d="m 564.75451,-124.17741 c 34.27604,-17.60949 63.52289,-18.17545 97.11666,-1.87933 4.3829,2.12612 8.2979,4.26214 8.7001,4.74671 0.5811,0.7002 -0.1133,5.01621 -3.383,21.02868 l -4.1142,20.147656 -2.156,-0.32438 c -1.18582,-0.17842 -6.2565,-1.05849 -11.26821,-1.95572 -8.03402,-1.43831 -11.16075,-1.66781 -26.42538,-1.93965 -23.28182,-0.41461 -36.90107,0.56846 -53.29283,3.84681 -1.87855,0.37571 -1.93156,0.32236 -2.85668,-2.87501 -1.14719,-3.9649 -7.63591,-35.349756 -7.63591,-36.933636 0,-0.80914 1.51364,-1.90892 5.31545,-3.86213 l 0,0 z"
         style="fill:#333333;fill-opacity:1;fill-rule:nonzero;stroke:none" />
      <path
         inkscape:export-ydpi="9"
         inkscape:export-xdpi="9"
         inkscape:export-filename="C:\Users\Dovile\Desktop\doodles\beetle\path3252-2.png"
         inkscape:connector-curvature="0"
         id="path3817-5-1-7"
         d="m 575.99895,64.060156 c 0.25392,-10.66714 0.60005,-19.53318 0.76919,-19.70232 0.16914,-0.16914 7.47895,0.0189 16.24403,0.41793 24.40524,1.11095 39.30697,0.88311 56.17067,-0.85885 3.68869,-0.38103 3.80099,-0.34985 4.39819,1.22089 0.33706,0.88655 0.79633,11.02954 1.02059,22.53999 l 0.40775,20.92808 -3.9393,1.78617 c -10.28316,4.66261 -17.20003,6.09628 -31.57558,6.54476 -16.78098,0.52352 -26.97412,-1.0194 -38.05448,-5.76026 l -5.29525,-2.26563 -0.30374,-2.72798 c -0.16705,-1.5004 -0.096,-11.45565 0.15793,-22.12278 l 0,0 z"
         style="fill:#333333;fill-opacity:1;fill-rule:nonzero;stroke:none" />
      <path
         inkscape:export-ydpi="9"
         inkscape:export-xdpi="9"
         inkscape:export-filename="C:\Users\Dovile\Desktop\doodles\beetle\path3252-2.png"
         sodipodi:nodetypes="ccccccc"
         inkscape:connector-curvature="0"
         id="path3819-0-5-9"
         d="m 677.57444,-94.608464 c 0.084,27.34468 -1.2031,39.73222 -0.9652,50.08609 l 0.9057,35.4398802 c -2.49329,0.57595 -2.33359,0.0675 -4.65986,0.0753 l -3.5689,0 0.089,-7.1378902 c -1.06608,-27.30321 4.56743,-54.39088 8.19926,-78.46338 z"
         style="fill:#333333;fill-opacity:1;fill-rule:nonzero;stroke:none" />
      <path
         inkscape:export-ydpi="9"
         inkscape:export-xdpi="9"
         inkscape:export-filename="C:\Users\Dovile\Desktop\doodles\beetle\path3252-2.png"
         sodipodi:nodetypes="cccc"
         inkscape:connector-curvature="0"
         id="path3821-46-2-4"
         d="m 675.66774,4.6051562 c 0.6972,0.69723 -1.08443,39.0578998 -1.80994,38.6091398 -0.57617,-0.35609 -4.7135,-33.9858898 -4.7135,-38.6075298 2.99429,0.13434 3.55688,0.55835 6.52344,-0.002 z"
         style="fill:#333333;fill-opacity:1;fill-rule:nonzero;stroke:none" />
      <path
         inkscape:export-ydpi="9"
         inkscape:export-xdpi="9"
         inkscape:export-filename="C:\Users\Dovile\Desktop\doodles\beetle\path3252-2.png"
         sodipodi:nodetypes="cssccccc"
         inkscape:connector-curvature="0"
         id="path3823-1-7-4"
         d="m 552.81411,-72.096664 c 0.2596,-9.3552 -0.1799,-19.71006 0.1146,-21.04651 0.50389,-2.28665 -0.44019,-2.10702 1.08837,5.89623 3.93713,20.61418 7.63875,56.19086 7.69532,73.96069 l 0.013,4.1004902 c -3.84737,0 -4.30189,-0.17857 -8.14926,-0.17857 l 0.27577,-23.1293002 c -0.72259,-13.45609 0.49626,-24.53335 -1.0378,-39.60303 z"
         style="fill:#333333;fill-opacity:1;fill-rule:nonzero;stroke:none" />
      <path
         inkscape:export-ydpi="9"
         inkscape:export-xdpi="9"
         inkscape:export-filename="C:\Users\Dovile\Desktop\doodles\beetle\path3252-2.png"
         sodipodi:nodetypes="ccccc"
         inkscape:connector-curvature="0"
         id="path3825-2-6-6"
         d="m 555.40448,4.3815962 c 1.82613,-0.36189 2.89308,0.69175 4.73743,0.69175 -1.19429,14.5219298 -0.52867,25.0503898 -3.55989,35.2835998 -1.2332,-10.55868 -1.87484,-18.99547 -2.00449,-29.9022 0,-3.4907198 -1.03943,-5.6998798 0.82695,-6.0731498 z"
         style="fill:#333333;fill-opacity:1;fill-rule:nonzero;stroke:none" />
      <path
         inkscape:export-ydpi="9"
         inkscape:export-xdpi="9"
         inkscape:export-filename="C:\Users\Dovile\Desktop\doodles\beetle\path3252-2.png"
         inkscape:connector-curvature="0"
         id="path3827-1-1-2"
         d="m 668.58297,-194.66967 c 0.8087,-0.80866 2.8858,-0.37193 5.4902,1.15434 6.36617,3.73081 8.77277,12.21058 2.82347,9.94867 -4.55377,-1.73135 -10.17627,-9.24034 -8.31367,-11.10301 z"
         style="fill:#b3b3b3;fill-opacity:1;fill-rule:nonzero;stroke:none" />
      <path
         inkscape:export-ydpi="9"
         inkscape:export-xdpi="9"
         inkscape:export-filename="C:\Users\Dovile\Desktop\doodles\beetle\path3252-2.png"
         inkscape:connector-curvature="0"
         id="path3829-6-4-3"
         d="m 552.09122,-189.43074 c 4.14294,-5.71916 11.75457,-7.50218 9.77261,-2.28922 -1.65516,4.3534 -7.98443,9.42068 -10.54133,8.4395 -1.54921,-0.59448 -1.19333,-3.44175 0.76872,-6.15028 z"
         style="fill:#b3b3b3;fill-opacity:1;fill-rule:nonzero;stroke:none" />
      <path
         inkscape:export-ydpi="9"
         inkscape:export-xdpi="9"
         inkscape:export-filename="C:\Users\Dovile\Desktop\doodles\beetle\path3252-2.png"
         inkscape:connector-curvature="0"
         id="path3831-72-2-3"
         d="m 663.99957,117.53396 c 4.4462,-5.05114 10.2305,-6.74821 11.85187,-3.47729 1.9382,3.90994 -5.07107,11.01066 -10.86887,11.01066 -4.2855,0 -4.7152,-3.29334 -0.983,-7.53337 l 0,0 z"
         style="fill:#333333;fill-opacity:1;fill-rule:nonzero;stroke:none" />
      <path
         inkscape:export-ydpi="9"
         inkscape:export-xdpi="9"
         inkscape:export-filename="C:\Users\Dovile\Desktop\doodles\beetle\path3252-2.png"
         inkscape:connector-curvature="0"
         id="path3833-28-3-1"
         d="m 555.46938,113.10918 c 2.81409,-1.34195 5.87212,-0.43244 9.6107,2.85839 3.46114,3.04662 4.70325,6.18775 3.13297,7.92289 -2.8028,3.09707 -10.76953,-0.49839 -13.66047,-6.1651 -1.59287,-3.12229 -1.52769,-3.45049 0.9168,-4.61618 z"
         style="fill:#333333;fill-opacity:1;fill-rule:nonzero;stroke:none" />
      <path
         inkscape:export-ydpi="9"
         inkscape:export-xdpi="9"
         inkscape:export-filename="C:\Users\Dovile\Desktop\doodles\beetle\path3252-2.png"
         sodipodi:nodetypes="scss"
         inkscape:connector-curvature="0"
         id="path3837-6-2-4"
         d="m 553.82505,-5.1425238 c 1.41416,-1.50184 7.42143,0.0471 7.3547,1.8166 -0.0896,2.37572998 -1.99544,4.58366 -5.05681,3.48529998 -2.54945,-0.91468 -3.89168,-3.60925998 -2.29789,-5.30189998 z"
         style="fill:#0055d4;fill-opacity:1;fill-rule:nonzero;stroke:none" />
      <path
         inkscape:export-ydpi="9"
         inkscape:export-xdpi="9"
         inkscape:export-filename="C:\Users\Dovile\Desktop\doodles\beetle\path3252-2.png"
         sodipodi:nodetypes="cccc"
         inkscape:connector-curvature="0"
         id="path3839-1-2-1"
         d="m 669.32384,-3.7322438 c 0.6798,-2.36019 7.2525,-2.26544 7.6893,0.18826 0.6676,3.75081998 0.4787,4.47521998 -4.0385,4.57341 -4.04857,0.0882 -4.6168,-1.40756002 -3.6508,-4.76166 z"
         style="fill:#0066ff;fill-opacity:1;fill-rule:nonzero;stroke:none" />
      <path
         inkscape:export-ydpi="9"
         inkscape:export-xdpi="9"
         inkscape:export-filename="C:\Users\Dovile\Desktop\doodles\beetle\path3252-2.png"
         inkscape:connector-curvature="0"
         id="path3841-0-1-9"
         d="m 575.32399,-141.21135 c 6.5962,-3.1491 13.34624,-5.36573 20.94416,-6.8778 4.23947,-0.8437 8.24508,-1.06081 18.75535,-1.01655 14.63515,0.0616 21.20423,0.85101 29.07837,3.49427 5.32125,1.78629 16.5189,6.89488 16.0785,7.33532 -0.16223,0.16221 -2.62771,-0.64572 -5.47888,-1.79541 -5.98227,-2.41224 -16.85378,-5.37471 -23.88351,-6.5082 -7.07395,-1.14063 -26.55998,-0.96865 -33.41141,0.29488 -6.92941,1.27791 -14.90347,3.5856 -21.76545,6.29893 -2.94993,1.16643 -5.5062,1.97809 -5.68062,1.80367 -0.17442,-0.17442 2.23915,-1.53752 5.36349,-3.02911 l 0,0 z"
         style="fill:#003380;fill-opacity:1;fill-rule:nonzero;stroke:none" />
      <path
         inkscape:export-ydpi="9"
         inkscape:export-xdpi="9"
         inkscape:export-filename="C:\Users\Dovile\Desktop\doodles\beetle\path3252-2.png"
         inkscape:connector-curvature="0"
         id="path3843-98-6-2"
         d="m 686.15124,-102.1302 c 1.0709,0 6.4834,3.689916 6.0492,4.124046 -0.7161,0.71614 -5.8397,-0.63693 -6.404,-1.69118 -0.8711,-1.627686 -0.7537,-2.432866 0.3548,-2.432866 z"
         style="fill:#003380;fill-opacity:1;fill-rule:nonzero;stroke:none" />
      <path
         inkscape:export-ydpi="9"
         inkscape:export-xdpi="9"
         inkscape:export-filename="C:\Users\Dovile\Desktop\doodles\beetle\path3252-2.png"
         inkscape:connector-curvature="0"
         id="path3845-2-8-4"
         d="m 540.55835,-100.20255 c 2.82277,-2.04481 4.90867,-2.49517 4.90867,-1.05983 0,1.366866 -1.6754,2.694416 -3.93554,3.118416 -3.48859,0.65447 -3.80229,-0.009 -0.97313,-2.058586 z"
         style="fill:#003380;fill-opacity:1;fill-rule:nonzero;stroke:none" />
      <path
         inkscape:export-ydpi="9"
         inkscape:export-xdpi="9"
         inkscape:export-filename="C:\Users\Dovile\Desktop\doodles\beetle\path3252-2.png"
         inkscape:connector-curvature="0"
         id="path3847-5-5-9"
         d="m 615.32724,136.60945 13.97204,0 0,2.42992 0,2.42992 -13.97204,0 -13.97204,0 0,-2.42992 0,-2.42992 13.97204,0 z"
         style="fill:#333333;fill-opacity:1;fill-rule:nonzero;stroke:none" />
      <path
         inkscape:export-ydpi="9"
         inkscape:export-xdpi="9"
         inkscape:export-filename="C:\Users\Dovile\Desktop\doodles\beetle\path3252-2.png"
         inkscape:connector-curvature="0"
         id="path3849-0-7-4"
         d="m 612.64567,-203.94403 c 1.71375,-0.71605 2.60912,-0.76795 4.19864,-0.24336 3.87291,1.27818 2.87447,4.5875 -1.35064,4.47671 -4.94881,-0.12976 -6.64281,-2.64778 -2.848,-4.23335 z"
         style="fill:#333333;fill-opacity:1;fill-rule:nonzero;stroke:none" />
      <path
         inkscape:export-ydpi="9"
         inkscape:export-xdpi="9"
         sodipodi:nodetypes="scsss"
         inkscape:connector-curvature="0"
         id="path3252-4"
         d="m 680.45704,-56.359674 c 3.1385,44.15593 -2.756,114.22191 -3.0051,113.50924 3.3416,-6.62199 7.1928,-18.97598 9.0989,-38.06282 3.0214,-30.25567 1.5199,-103.78938 -2.8795,-107.94642 -3.3672,-3.1817 -3.9861,21.64121 -3.2143,32.5 z"
         style="fill:#0066ff;fill-opacity:1;stroke:none" />
      <path
         inkscape:export-ydpi="9"
         inkscape:export-xdpi="9"
         sodipodi:nodetypes="scsss"
         inkscape:connector-curvature="0"
         id="path3252-2-6"
         d="m 549.25552,-55.727524 c -2.27729,44.20871 4.00597,112.61477 4.25507,111.9021 -3.3416,-6.622 -9.44847,-19.64917 -10.88457,-38.77711 -2.3376,-31.13481 0.0965,-106.43395 2.1652,-107.23214 6.81411,-2.62912 4.86978,26.23561 4.4643,34.10715 z"
         style="fill:#0066ff;fill-opacity:1;stroke:none" />
    </g>
    <g
       transform="translate(-481.51898,-183.52732)"
       id="g4471">
      <path
         inkscape:export-ydpi="9"
         inkscape:export-xdpi="9"
         inkscape:export-filename="C:\Users\Dovile\Desktop\doodles\beetle\path3252-2.png"
         sodipodi:nodetypes="csssssssccccssssssssscsssccccc"
         inkscape:connector-curvature="0"
         id="path2995-0-1-7-7"
         d="m 241.3773,-119.74367 c 0.21347,-0.21346 -0.83245,-10.20813 -0.63213,-30.24633 0.3941,-39.42389 0.7077,-42.12842 6.1691,-53.20547 7.54951,-15.31223 18.46138,-22.2265 43.99957,-27.88018 8.48437,-1.87828 13.03127,-2.21364 30.00001,-2.21265 20.54056,0.001 29.43311,1.20193 44.99999,6.07617 13.16583,4.12242 22.1872,11.36125 28.0453,22.50358 6.4752,12.31613 6.4496,14.39386 6.8545,54.85406 0.2151,21.50326 1.2882,34.61688 -1.3115,35.50778 2.9002,2.3209 4.8457,4.5111 4.9117,8.2778 0.049,3.5951 -0.8004,2.8189 -4.1309,2.8551 l -4.1308,-0.5541 0.6538,13.172398 c 0.9298,18.736 1.0109,87.612 0.1146,97.3525 -0.6771,7.3579 -0.5245,8.6518 1.5189,12.8728 2.2654,4.6798 2.2697,4.7783 1.5572,36.1118 -0.8813,38.7549 -1.6504,46.909102 -5.0866,53.932502 -5.1578,10.5422 -19.62067,19.9884 -35.17165,22.9717 -19.75433,3.7898 -57.91087,3.7903 -77.6491,0.001 -17.01124,-3.2657 -32.03615,-13.8998 -36.50151,-25.8345 -1.84374,-4.9279 -2.29454,-9.215902 -3.15315,-29.992702 -0.55102,-13.3335 -1.00611,-30.7851 -1.01132,-38.7813 -0.008,-12.762 0.24307,-15.0226 2.05732,-18.5 1.76576,-3.3844 1.96706,-4.981 1.38208,-10.9614 -0.85276,-8.71799997 -0.73414,-87.1685 0.15385,-101.7507 l 0.65467,-10.750798 -3.07232,0.6145 c -4.7317,-0.032 -3.78247,-1.407 -3.03322,-4.4281 0.64799,-2.6966 2.7955,-5.5208 3.00897,-5.7343 -1.51889,-0.9338 -0.97533,-3.89872 -1.19737,-6.27116 z"
         style="fill:#000000" />
      <path
         inkscape:export-ydpi="9"
         inkscape:export-xdpi="9"
         inkscape:export-filename="C:\Users\Dovile\Desktop\doodles\beetle\path3252-2.png"
         inkscape:connector-curvature="0"
         id="path3019-8-4-9"
         d="m 276.21242,-83.445792 c 11.34962,-3.68633 25.16103,-4.88592 51.23523,-4.45003 20.33734,0.33999 23.71023,0.67236 35.68944,3.51682 6.62408,1.57289 6.17798,0.16268 4.39828,13.90371 -1.3163,10.16378 -2.10414,26.96871 -2.99597,63.9068 -0.33502,13.87622 -0.82505,23.99042 -1.19589,24.68335 -0.88803,1.6593 -1.71862,1.8752 -11.27566,2.93095 -11.88475,1.3129 -49.50528,1.3129 -61.39003,0 -9.57999,-1.05828 -10.38641,-1.26937 -11.2885,-2.95494 -0.39527,-0.73857 -0.95995,-13.81465 -1.47255,-34.09928 -0.45729,-18.09574 -0.9969,-35.36163 -1.19915,-38.36866 -0.34467,-5.12465 -2.33898,-21.97299 -3.102,-26.20641 -0.33031,-1.83268 -0.22883,-1.94454 2.5968,-2.86231 l 0,0 z"
         style="fill:#00ff00;fill-opacity:1;fill-rule:nonzero;stroke:none" />
      <path
         inkscape:export-ydpi="9"
         inkscape:export-xdpi="9"
         inkscape:export-filename="C:\Users\Dovile\Desktop\doodles\beetle\path3252-2.png"
         inkscape:connector-curvature="0"
         id="path3789-6-0-5"
         d="m 265.12804,-159.10663 c 6.51134,-19.48432 9.40191,-26.9871 14.08789,-36.56657 6.29096,-12.86053 9.47601,-15.82143 19.75929,-18.3688 5.09826,-1.26294 12.48028,-1.82585 13.73937,-1.04768 0.34281,0.21186 0.80374,1.34708 1.02428,2.52269 0.58412,3.11364 2.67312,4.2515 7.80831,4.25314 3.82778,0.001 4.30427,-0.14246 5.64795,-1.70311 0.95988,-1.11488 1.46748,-2.4553 1.46748,-3.87519 l 0,-2.17075 5.01171,0.42362 c 16.38858,1.38524 23.10177,5.58401 28.98094,18.12615 6.26691,13.36937 13.07241,31.67856 18.54111,49.88266 1.19357,3.97308 2.05767,7.33619 1.92027,7.47358 -0.1374,0.13738 -0.8193,-0.67181 -1.5155,-1.7982 -2.03807,-3.29766 -7.93337,-8.5237 -12.84307,-11.38507 -7.86908,-4.58605 -19.78152,-8.84021 -29.07076,-10.38172 -5.29431,-0.87857 -29.34115,-0.85722 -35.93139,0.0319 -15.74308,2.12398 -31.33772,9.4502 -40.5493,19.04969 -2.08821,2.17615 -3.78912,3.6386 -3.7798,3.24988 0.009,-0.38873 2.57487,-8.36103 5.70122,-17.71622 z"
         style="fill:#00ff00;fill-opacity:1;fill-rule:nonzero;stroke:none" />
      <path
         inkscape:export-ydpi="9"
         inkscape:export-xdpi="9"
         inkscape:export-filename="C:\Users\Dovile\Desktop\doodles\beetle\path3252-2.png"
         sodipodi:nodetypes="cscssssccsssssccc"
         inkscape:connector-curvature="0"
         id="path3791-2-9-1"
         d="m 279.54301,84.437018 c 6.3065,2.94667 13.88695,5.45784 21.01611,6.96198 3.82403,0.80681 4.73315,1.21758 4.88273,2.20621 0.78676,5.19961 1.58559,5.47275 15.931,5.44706 12.93173,-0.0232 14.75347,-0.47473 15.07024,-3.73561 0.24935,-2.56682 0.82224,-2.93045 6.4253,-4.07839 5.93426,-1.21579 14.94236,-4.29491 21.2507,-7.26384 l 4.77878,-2.24906 -0.4163,2.29497 c -1.0398,5.73317 -7.00652,15.28112 -14.00107,22.404512 -8.0002,8.14754 -11.35125,9.05032 -33.41139,9.00106 -19.46662,-0.0435 -21.93646,-0.47608 -28.55157,-5.00104 -3.09055,-2.11404 -5.37594,-4.39418 -8.36477,-8.34558 -4.55941,-6.027762 -9.22207,-14.544152 -9.87197,-18.031212 l -0.42256,-2.26722 5.68477,2.65616 z"
         style="fill:#00ff00;fill-opacity:1;fill-rule:nonzero;stroke:none" />
      <path
         inkscape:export-ydpi="9"
         inkscape:export-xdpi="9"
         inkscape:export-filename="C:\Users\Dovile\Desktop\doodles\beetle\path3252-2.png"
         inkscape:connector-curvature="0"
         id="path3795-4-4-6"
         d="m 371.80727,-57.961202 c 3.8583,-30.41107 12.41497,-74.112568 14.51107,-74.112568 0.8625,0 2.0066,1.72926 1.59,2.40331 -0.2156,0.34875 -0.7646,0.63409 -1.2202,0.63409 -1.0534,0 -1.5921,1.74639 -4.2161,13.6683 -5.02727,22.840738 -8.16627,43.390348 -9.46497,61.962968 -0.8177,11.69438 -0.8169,53.50335003 10e-4,63.7854 1.851,23.2617 6.3356,44.04231 9.50447,44.04231 0.7621,0 0.8942,0.40319 0.6054,1.84733 -0.3635,1.81703 -6.10797,17.10196 -8.43807,22.45187 -1.1336,2.6028 -1.217,2.66469 -1.7426,1.29269 -1.0351,-2.7017 -1.7358,-30.08549 -2.0305,-79.35387997 -0.2773,-46.33810003 -0.2248,-49.75465003 0.9002,-58.62182003 l 0,0 z"
         style="fill:#00ff00;fill-opacity:1;fill-rule:nonzero;stroke:none" />
      <path
         inkscape:export-ydpi="9"
         inkscape:export-xdpi="9"
         inkscape:export-filename="C:\Users\Dovile\Desktop\doodles\beetle\path3252-2.png"
         inkscape:connector-curvature="0"
         id="path3797-7-8-2"
         d="m 255.27901,-131.95227 c 0.71157,-0.71157 2.30842,-1.01577 2.30842,-0.43975 0,0.15907 1.22084,5.99943 2.71298,12.97858 8.24272,38.553558 10.91456,58.566168 11.84488,88.720508 0.72935,23.64063 -0.66933,92.84304 -2.18597,108.15438 -0.34561,3.48914 -0.47455,3.78298 -1.21537,2.76984 -1.47613,-2.01874 -9.33408,-23.07473 -9.33408,-25.01142 0,-0.43849 0.40303,-0.79726 0.89562,-0.79726 1.80645,0 3.52254,-5.34273 6.04881,-18.83188 3.03846,-16.22395 3.48345,-22.2792 3.81979,-51.97807 0.35182,-31.06481 -0.0554,-39.41446 -2.87318,-58.9154 -4.37,-30.243188 -9.29766,-52.278608 -12.07456,-53.994818 -0.88456,-0.54669 -0.86087,-1.74118 0.0527,-2.65471 z"
         style="fill:#00ff00;fill-opacity:1;fill-rule:nonzero;stroke:none" />
      <path
         inkscape:export-ydpi="9"
         inkscape:export-xdpi="9"
         inkscape:export-filename="C:\Users\Dovile\Desktop\doodles\beetle\path3252-2.png"
         inkscape:connector-curvature="0"
         id="path3799-2-8-8"
         d="m 373.86237,-190.39185 c 0.1155,0 1.8159,0.71309 3.7787,1.58464 5.00647,2.2232 9.85027,2.59575 12.60637,0.96962 2.464,-1.45375 2.8172,-1.21775 4.4383,2.96551 0.924,2.38451 1.0603,6.24406 1.2316,34.87765 0.1328,22.19185 -0.001,31.8788 -0.4307,31.1742 -0.3429,-0.56223 -1.7182,-5.56895 -3.0563,-11.12604 -4.1768,-17.34639 -9.7497,-35.69227 -16.28537,-53.61143 -1.371,-3.75878 -2.3981,-6.83415 -2.2826,-6.83415 z"
         style="fill:#00ff00;fill-opacity:1;fill-rule:nonzero;stroke:none" />
      <path
         inkscape:export-ydpi="9"
         inkscape:export-xdpi="9"
         inkscape:export-filename="C:\Users\Dovile\Desktop\doodles\beetle\path3252-2.png"
         inkscape:connector-curvature="0"
         id="path3801-2-2-6"
         d="m 246.63264,-170.04127 c 0.32775,-11.62637 0.48581,-13.03976 1.78339,-15.94635 0.78308,-1.7541 1.57361,-3.18927 1.75675,-3.18927 0.18313,0 0.86236,0.47839 1.5094,1.06309 1.94351,1.75627 9.00905,1.43357 13.17158,-0.60157 1.82475,-0.89215 3.42082,-1.51899 3.54683,-1.39298 0.12601,0.12601 -1.56144,5.37607 -3.74988,11.66679 -6.43854,18.50775 -9.71546,29.44504 -14.03398,46.84092 -1.46986,5.92089 -2.9181,11.4272 -3.21828,12.23624 -0.36632,0.98726 -0.67855,-3.09024 -0.94947,-12.39965 -0.42102,-14.46653 -0.40737,-17.31053 0.18366,-38.27722 z"
         style="fill:#00ff00;fill-opacity:1;fill-rule:nonzero;stroke:none" />
      <path
         inkscape:export-ydpi="9"
         inkscape:export-xdpi="9"
         inkscape:export-filename="C:\Users\Dovile\Desktop\doodles\beetle\path3252-2.png"
         inkscape:connector-curvature="0"
         id="path3803-9-4-8"
         d="m 246.96816,25.983938 c 0.17347,0.17346 1.1309,4.11448 2.12766,8.75783 3.53172,16.45261 11.79865,40.35334 18.99423,54.91468 2.06381,4.17643 3.84663,7.79389 3.96183,8.03881 0.1152,0.24493 -0.84051,0.0749 -2.12381,-0.37791 -7.82403,-2.76048 -15.31703,-0.75827 -15.39988,4.115022 -0.02,1.17582 -0.14527,1.13392 -1.47569,-0.49356 -4.03833,-4.940062 -4.74415,-10.324052 -5.77956,-44.086282 -0.692,-22.56431 -0.77866,-31.34249 -0.30478,-30.86859 z"
         style="fill:#00ff00;fill-opacity:1;fill-rule:nonzero;stroke:none" />
      <path
         inkscape:export-ydpi="9"
         inkscape:export-xdpi="9"
         inkscape:export-filename="C:\Users\Dovile\Desktop\doodles\beetle\path3252-2.png"
         inkscape:connector-curvature="0"
         id="path3805-6-5-8"
         d="m 375.48457,85.707828 c 4.1515,-7.99596 6.25187,-13.00118 9.30427,-22.17302 4.3914,-13.19473 9.2398,-29.68141 10.0937,-34.32262 0.7184,-3.90521 0.2185,42.04512 -0.5937,54.57319 -0.5928,9.14275 -1.4835,12.4542 -4.6575,17.316092 l -0.928,1.42159 -1.0132,-2.01697 c -1.6295,-3.243732 -4.491,-4.774842 -8.92387,-4.774842 -2.0804,0 -4.9103,0.39793 -6.2887,0.88427 -1.8597,0.65614 -2.4868,0.69532 -2.4306,0.15187 0.042,-0.40282 2.4886,-5.37962 5.4376,-11.05956 z"
         style="fill:#00ff00;fill-opacity:1;fill-rule:nonzero;stroke:none" />
      <path
         inkscape:export-ydpi="9"
         inkscape:export-xdpi="9"
         inkscape:export-filename="C:\Users\Dovile\Desktop\doodles\beetle\path3252-2.png"
         inkscape:connector-curvature="0"
         id="path3807-4-5-3"
         d="m 340.00485,122.90402 c 0.27698,-0.16217 2.13557,-0.76349 4.1302,-1.33628 4.69921,-1.34943 7.2843,-2.69639 12.55374,-6.54109 4.1068,-2.99643 4.34706,-3.08931 5.15022,-1.99092 0.46336,0.63368 0.84247,1.62433 0.84247,2.20144 0,1.9143 4.14859,3.87487 8.20099,3.87571 4.4483,9.1e-4 8.6268,-1.88557 13.96687,-6.30577 2.0019,-1.65701 3.7788,-2.86849 3.9487,-2.69217 0.1698,0.17631 -1.6745,2.18334 -4.0985,4.46006 -5.17777,4.86312 -13.65627,9.36042 -22.3218,11.84029 -5.17545,1.48108 -21.20267,3.92088 -21.7707,3.31412 -0.55647,-0.59441 -1.08146,-6.54478 -0.60219,-6.82539 l 0,0 z"
         style="fill:#007f00;fill-opacity:1;fill-rule:nonzero;stroke:none" />
      <path
         inkscape:export-ydpi="9"
         inkscape:export-xdpi="9"
         inkscape:export-filename="C:\Users\Dovile\Desktop\doodles\beetle\path3252-2.png"
         inkscape:connector-curvature="0"
         id="path3809-2-1-8"
         d="m 256.38341,111.62656 c 4.62463,3.83739 8.19885,6.01138 11.45595,6.96799 5.7622,1.69235 10.79661,0.0187 12.42671,-4.13109 0.50344,-1.28164 1.17586,-2.33025 1.49427,-2.33025 0.3184,0 2.3223,1.4043 4.4531,3.12067 4.39469,3.53994 8.34575,5.48077 13.50355,6.63318 l 3.55457,0.7942 -0.35862,2.16761 c -0.19724,1.19218 -0.36162,2.82038 -0.3653,3.61822 -0.007,1.43938 -0.0432,1.44744 -4.71465,1.03955 -12.33824,-1.07732 -23.49269,-4.09965 -31.35231,-8.495 -2.27275,-1.271 -6.02359,-4.09507 -8.3352,-6.27573 -4.53778,-4.2807 -5.74854,-6.41721 -1.76207,-3.10935 l 0,0 z"
         style="fill:#007f00;fill-opacity:1;fill-rule:nonzero;stroke:none" />
      <path
         inkscape:export-ydpi="9"
         inkscape:export-xdpi="9"
         inkscape:export-filename="C:\Users\Dovile\Desktop\doodles\beetle\path3252-2.png"
         inkscape:connector-curvature="0"
         id="path3811-9-7-9"
         d="m 261.94743,-213.32362 c 6.37414,-5.32578 13.82559,-8.64679 24.79904,-11.05258 10.98925,-2.40926 15.61843,-2.76896 35.23386,-2.73774 16.76062,0.0267 20.07806,0.19313 26.72911,1.34122 15.71014,2.71185 25.52533,6.64726 32.48573,13.02517 2.20687,2.02225 3.92317,3.76619 3.81387,3.87543 -0.1092,0.10925 -1.5854,-0.48769 -3.2803,-1.32652 -6.18937,-3.0631 -12.77237,-2.27362 -14.68857,1.76157 l -0.8063,1.69789 -1.67663,-2.30537 c -2.28074,-3.13599 -6.15547,-6.54081 -9.22644,-8.1075 -4.27587,-2.18139 -13.56497,-4.18399 -22.81274,-4.91812 -9.81847,-0.77944 -27.76041,0.0405 -34.91945,1.59576 -8.73682,1.89805 -15.18574,5.46802 -18.68848,10.3455 -1.07736,1.50019 -2.14687,2.71709 -2.37669,2.70422 -0.22983,-0.0129 -0.9646,-0.88433 -1.63283,-1.93659 -0.68328,-1.07596 -2.01247,-2.13598 -3.0374,-2.42232 -2.54754,-0.71171 -8.34442,0.0243 -11.04825,1.40283 -2.58684,1.31885 -2.62005,1.3274 -2.62005,0.67476 0,-0.26526 1.68863,-1.89318 3.75252,-3.61761 l 0,0 z"
         style="fill:#007f00;fill-opacity:1;fill-rule:nonzero;stroke:none" />
      <path
         inkscape:export-ydpi="9"
         inkscape:export-xdpi="9"
         inkscape:export-filename="C:\Users\Dovile\Desktop\doodles\beetle\path3252-2.png"
         inkscape:connector-curvature="0"
         id="path3815-28-1-2"
         d="m 270.80012,-135.28909 c 34.27604,-17.60949 63.52289,-18.17545 97.11665,-1.87933 4.3829,2.12612 8.2979,4.26214 8.7001,4.74671 0.5811,0.7002 -0.1133,5.01621 -3.383,21.02868 l -4.1142,20.147658 -2.156,-0.32438 c -1.18582,-0.17842 -6.2565,-1.05849 -11.26821,-1.95572 -8.03402,-1.43831 -11.16075,-1.66781 -26.42537,-1.93965 -23.28182,-0.41461 -36.90107,0.56846 -53.29283,3.84681 -1.87855,0.37571 -1.93156,0.32236 -2.85668,-2.87501 -1.14719,-3.9649 -7.63591,-35.349758 -7.63591,-36.933638 0,-0.80914 1.51364,-1.90892 5.31545,-3.86213 l 0,0 z"
         style="fill:#333333;fill-opacity:1;fill-rule:nonzero;stroke:none" />
      <path
         inkscape:export-ydpi="9"
         inkscape:export-xdpi="9"
         inkscape:export-filename="C:\Users\Dovile\Desktop\doodles\beetle\path3252-2.png"
         inkscape:connector-curvature="0"
         id="path3817-5-1-5"
         d="m 282.04456,52.948478 c 0.25392,-10.66714 0.60005,-19.53318 0.76919,-19.70232 0.16914,-0.16914 7.47895,0.0189 16.24403,0.41793 24.40524,1.11095 39.30697,0.88311 56.17066,-0.85885 3.68869,-0.38103 3.80099,-0.34985 4.39819,1.22089 0.33706,0.88655 0.79633,11.02954 1.02059,22.53999 l 0.40775,20.92808 -3.9393,1.78617 c -10.28316,4.66261 -17.20003,6.09628 -31.57557,6.54476 -16.78098,0.52352 -26.97412,-1.0194 -38.05448,-5.76026 l -5.29525,-2.26563 -0.30374,-2.72798 c -0.16705,-1.5004 -0.096,-11.45565 0.15793,-22.12278 l 0,0 z"
         style="fill:#333333;fill-opacity:1;fill-rule:nonzero;stroke:none" />
      <path
         inkscape:export-ydpi="9"
         inkscape:export-xdpi="9"
         inkscape:export-filename="C:\Users\Dovile\Desktop\doodles\beetle\path3252-2.png"
         sodipodi:nodetypes="ccccccc"
         inkscape:connector-curvature="0"
         id="path3819-0-5-8"
         d="m 383.62004,-105.72014 c 0.084,27.344678 -1.2031,39.732218 -0.9652,50.086088 l 0.9057,35.43988 c -2.49329,0.57595 -2.33359,0.0675 -4.65986,0.0753 l -3.5689,0 0.089,-7.13789 c -1.06608,-27.30321 4.56743,-54.39088 8.19926,-78.463378 z"
         style="fill:#333333;fill-opacity:1;fill-rule:nonzero;stroke:none" />
      <path
         inkscape:export-ydpi="9"
         inkscape:export-xdpi="9"
         inkscape:export-filename="C:\Users\Dovile\Desktop\doodles\beetle\path3252-2.png"
         sodipodi:nodetypes="cccc"
         inkscape:connector-curvature="0"
         id="path3821-46-2-7"
         d="m 381.71334,-6.506522 c 0.6972,0.69723 -1.08443,39.0579 -1.80994,38.60914 -0.57617,-0.35609 -4.7135,-33.98589 -4.7135,-38.60753 2.99429,0.13434 3.55688,0.55835 6.52344,-0.002 z"
         style="fill:#333333;fill-opacity:1;fill-rule:nonzero;stroke:none" />
      <path
         inkscape:export-ydpi="9"
         inkscape:export-xdpi="9"
         inkscape:export-filename="C:\Users\Dovile\Desktop\doodles\beetle\path3252-2.png"
         sodipodi:nodetypes="cssccccc"
         inkscape:connector-curvature="0"
         id="path3823-1-7-9"
         d="m 258.85972,-83.208342 c 0.2596,-9.3552 -0.1799,-19.710058 0.1146,-21.046508 0.50389,-2.28665 -0.44019,-2.10702 1.08837,5.896228 3.93713,20.61418 7.63875,56.19086 7.69532,73.96069 l 0.013,4.10049 c -3.84737,0 -4.30189,-0.17857 -8.14926,-0.17857 l 0.27577,-23.1293 c -0.72259,-13.45609 0.49626,-24.53335 -1.0378,-39.60303 z"
         style="fill:#333333;fill-opacity:1;fill-rule:nonzero;stroke:none" />
      <path
         inkscape:export-ydpi="9"
         inkscape:export-xdpi="9"
         inkscape:export-filename="C:\Users\Dovile\Desktop\doodles\beetle\path3252-2.png"
         sodipodi:nodetypes="ccccc"
         inkscape:connector-curvature="0"
         id="path3825-2-6-3"
         d="m 261.45009,-6.730082 c 1.82613,-0.36189 2.89308,0.69175 4.73743,0.69175 -1.19429,14.52193 -0.52867,25.05039 -3.55989,35.2836 -1.2332,-10.55868 -1.87484,-18.99547 -2.00449,-29.90219997 0,-3.49072003 -1.03943,-5.69988003 0.82695,-6.07315003 z"
         style="fill:#333333;fill-opacity:1;fill-rule:nonzero;stroke:none" />
      <path
         inkscape:export-ydpi="9"
         inkscape:export-xdpi="9"
         inkscape:export-filename="C:\Users\Dovile\Desktop\doodles\beetle\path3252-2.png"
         inkscape:connector-curvature="0"
         id="path3827-1-1-1"
         d="m 374.62857,-205.78135 c 0.8087,-0.80866 2.8858,-0.37193 5.4902,1.15434 6.36617,3.73081 8.77277,12.21058 2.82347,9.94867 -4.55377,-1.73135 -10.17627,-9.24034 -8.31367,-11.10301 z"
         style="fill:#b3b3b3;fill-opacity:1;fill-rule:nonzero;stroke:none" />
      <path
         inkscape:export-ydpi="9"
         inkscape:export-xdpi="9"
         inkscape:export-filename="C:\Users\Dovile\Desktop\doodles\beetle\path3252-2.png"
         inkscape:connector-curvature="0"
         id="path3829-6-4-2"
         d="m 258.13683,-200.54242 c 4.14294,-5.71916 11.75457,-7.50218 9.77261,-2.28922 -1.65516,4.3534 -7.98443,9.42068 -10.54133,8.4395 -1.54921,-0.59448 -1.19333,-3.44175 0.76872,-6.15028 z"
         style="fill:#b3b3b3;fill-opacity:1;fill-rule:nonzero;stroke:none" />
      <path
         inkscape:export-ydpi="9"
         inkscape:export-xdpi="9"
         inkscape:export-filename="C:\Users\Dovile\Desktop\doodles\beetle\path3252-2.png"
         inkscape:connector-curvature="0"
         id="path3831-72-2-1"
         d="m 370.04517,106.42228 c 4.4462,-5.05114 10.2305,-6.748212 11.85187,-3.47729 1.9382,3.90994 -5.07107,11.01066 -10.86887,11.01066 -4.2855,0 -4.7152,-3.29334 -0.983,-7.53337 l 0,0 z"
         style="fill:#333333;fill-opacity:1;fill-rule:nonzero;stroke:none" />
      <path
         inkscape:export-ydpi="9"
         inkscape:export-xdpi="9"
         inkscape:export-filename="C:\Users\Dovile\Desktop\doodles\beetle\path3252-2.png"
         inkscape:connector-curvature="0"
         id="path3833-28-3-4"
         d="m 261.51499,101.9975 c 2.81409,-1.34195 5.87212,-0.43244 9.6107,2.85839 3.46114,3.04662 4.70325,6.18775 3.13297,7.92289 -2.8028,3.09707 -10.76953,-0.49839 -13.66047,-6.1651 -1.59287,-3.12229 -1.52769,-3.45049 0.9168,-4.61618 z"
         style="fill:#333333;fill-opacity:1;fill-rule:nonzero;stroke:none" />
      <path
         inkscape:export-ydpi="9"
         inkscape:export-xdpi="9"
         inkscape:export-filename="C:\Users\Dovile\Desktop\doodles\beetle\path3252-2.png"
         sodipodi:nodetypes="scss"
         inkscape:connector-curvature="0"
         id="path3837-6-2-5"
         d="m 259.87066,-16.254202 c 1.41416,-1.50184 7.42143,0.0471 7.3547,1.8166 -0.0896,2.37573 -1.99544,4.58366 -5.05681,3.4853 -2.54945,-0.91468 -3.89168,-3.60926 -2.29789,-5.3019 z"
         style="fill:#00ff00;fill-opacity:1;fill-rule:nonzero;stroke:none" />
      <path
         inkscape:export-ydpi="9"
         inkscape:export-xdpi="9"
         inkscape:export-filename="C:\Users\Dovile\Desktop\doodles\beetle\path3252-2.png"
         sodipodi:nodetypes="cccc"
         inkscape:connector-curvature="0"
         id="path3839-1-2-18"
         d="m 375.36944,-14.843922 c 0.6798,-2.36019 7.2525,-2.26544 7.6893,0.18826 0.6676,3.75082 0.4787,4.47522 -4.0385,4.57341 -4.04857,0.0882 -4.6168,-1.40756 -3.6508,-4.76166 z"
         style="fill:#00ff00;fill-opacity:1;fill-rule:nonzero;stroke:none" />
      <path
         inkscape:export-ydpi="9"
         inkscape:export-xdpi="9"
         inkscape:export-filename="C:\Users\Dovile\Desktop\doodles\beetle\path3252-2.png"
         inkscape:connector-curvature="0"
         id="path3841-0-1-4"
         d="m 281.3696,-152.32303 c 6.5962,-3.1491 13.34624,-5.36573 20.94416,-6.8778 4.23947,-0.8437 8.24508,-1.06081 18.75535,-1.01655 14.63515,0.0616 21.20422,0.85101 29.07836,3.49427 5.32125,1.78629 16.5189,6.89488 16.0785,7.33532 -0.16223,0.16221 -2.62771,-0.64572 -5.47888,-1.79541 -5.98227,-2.41224 -16.85378,-5.37471 -23.8835,-6.5082 -7.07395,-1.14063 -26.55998,-0.96865 -33.41141,0.29488 -6.92941,1.27791 -14.90347,3.5856 -21.76545,6.29893 -2.94993,1.16643 -5.5062,1.97809 -5.68062,1.80367 -0.17442,-0.17442 2.23915,-1.53752 5.36349,-3.02911 l 0,0 z"
         style="fill:#008000;fill-opacity:1;fill-rule:nonzero;stroke:none" />
      <path
         inkscape:export-ydpi="9"
         inkscape:export-xdpi="9"
         inkscape:export-filename="C:\Users\Dovile\Desktop\doodles\beetle\path3252-2.png"
         inkscape:connector-curvature="0"
         id="path3843-98-6-6"
         d="m 392.19684,-113.24188 c 1.0709,0 6.4834,3.68992 6.0492,4.12405 -0.7161,0.71614 -5.8397,-0.63693 -6.404,-1.69118 -0.8711,-1.62769 -0.7537,-2.43287 0.3548,-2.43287 z"
         style="fill:#008000;fill-opacity:1;fill-rule:nonzero;stroke:none" />
      <path
         inkscape:export-ydpi="9"
         inkscape:export-xdpi="9"
         inkscape:export-filename="C:\Users\Dovile\Desktop\doodles\beetle\path3252-2.png"
         inkscape:connector-curvature="0"
         id="path3845-2-8-3"
         d="m 246.60395,-111.31423 c 2.82278,-2.04481 4.90868,-2.49517 4.90868,-1.05983 0,1.36687 -1.6754,2.69442 -3.93555,3.11842 -3.48859,0.65447 -3.80229,-0.009 -0.97313,-2.05859 z"
         style="fill:#008000;fill-opacity:1;fill-rule:nonzero;stroke:none" />
      <path
         inkscape:export-ydpi="9"
         inkscape:export-xdpi="9"
         inkscape:export-filename="C:\Users\Dovile\Desktop\doodles\beetle\path3252-2.png"
         inkscape:connector-curvature="0"
         id="path3847-5-5-6"
         d="m 321.37285,125.49777 13.97204,0 0,2.42992 0,2.42992 -13.97204,0 -13.97204,0 0,-2.42992 0,-2.42992 13.97204,0 z"
         style="fill:#333333;fill-opacity:1;fill-rule:nonzero;stroke:none" />
      <path
         inkscape:export-ydpi="9"
         inkscape:export-xdpi="9"
         inkscape:export-filename="C:\Users\Dovile\Desktop\doodles\beetle\path3252-2.png"
         inkscape:connector-curvature="0"
         id="path3849-0-7-1"
         d="m 318.69128,-215.05571 c 1.71375,-0.71605 2.60912,-0.76795 4.19864,-0.24336 3.87291,1.27818 2.87447,4.5875 -1.35064,4.47671 -4.94881,-0.12976 -6.64281,-2.64778 -2.848,-4.23335 z"
         style="fill:#333333;fill-opacity:1;fill-rule:nonzero;stroke:none" />
      <path
         inkscape:export-ydpi="9"
         inkscape:export-xdpi="9"
         sodipodi:nodetypes="scsss"
         inkscape:connector-curvature="0"
         id="path3252-7"
         d="m 386.50264,-67.471352 c 3.1385,44.15593 -2.756,114.22191 -3.0051,113.50924 3.3416,-6.62199 7.1928,-18.97598 9.0989,-38.06282 3.0214,-30.25567 1.5199,-103.78938 -2.8795,-107.94642 -3.3672,-3.181698 -3.9861,21.64121 -3.2143,32.5 z"
         style="fill:#00ff00;fill-opacity:1;stroke:none" />
      <path
         inkscape:export-ydpi="9"
         inkscape:export-xdpi="9"
         sodipodi:nodetypes="scsss"
         inkscape:connector-curvature="0"
         id="path3252-2-8"
         d="m 255.30113,-66.839202 c -2.27729,44.20871 4.00597,112.61477 4.25507,111.9021 -3.3416,-6.622 -9.44847,-19.64917 -10.88457,-38.77711 -2.33761,-31.13481 0.0965,-106.433948 2.1652,-107.232138 6.81411,-2.62912 4.86978,26.235608 4.4643,34.107148 z"
         style="fill:#00ff00;fill-opacity:1;stroke:none" />
    </g>
    <g
       transform="translate(-483.68982,-180.49686)"
       id="g4535">
      <path
         inkscape:export-ydpi="9"
         inkscape:export-xdpi="9"
         inkscape:export-filename="C:\Users\Dovile\Desktop\doodles\beetle\path3252-2.png"
         sodipodi:nodetypes="csssssssccccssssssssscsssccccc"
         inkscape:connector-curvature="0"
         id="path2995-0-1-7-4"
         d="m -64.698922,-122.77413 c 0.21347,-0.21346 -0.83245,-10.20813 -0.63213,-30.24633 0.3941,-39.42389 0.7077,-42.12842 6.1691,-53.20547 7.549505,-15.31223 18.461375,-22.2265 43.999565,-27.88018 8.4843701,-1.87828 13.0312701,-2.21364 30.00001,-2.21265 20.540565,0.001 29.433115,1.20193 44.999995,6.07617 13.16583,4.12242 22.1872,11.36125 28.0453,22.50358 6.4752,12.31613 6.4496,14.39386 6.8545,54.85406 0.2151,21.50326 1.2882,34.61688 -1.3115,35.50778 2.9002,2.3209 4.8457,4.5111 4.9117,8.2778 0.049,3.5951 -0.8004,2.8189 -4.1309,2.8551 l -4.1308,-0.5541 0.6538,13.1724 c 0.9298,18.736 1.0109,87.6120003 0.1146,97.3525003 -0.6771,7.3578997 -0.5245,8.6517997 1.5189,12.8727997 2.2654,4.6798 2.2697,4.7783 1.5572,36.1118 -0.8813,38.7549 -1.6504,46.9091 -5.0866,53.9325 -5.1578,10.5422 -19.62067,19.9884 -35.17165,22.9717 -19.75433,3.7898 -57.9108749,3.7903 -77.649105,0.001 -17.01124,-3.2657 -32.03615,-13.8998 -36.501505,-25.8345 -1.84374,-4.9279 -2.29454,-9.2159 -3.15315,-29.9927 -0.55102,-13.3335 -1.00611,-30.7851 -1.01132,-38.7813 -0.008,-12.762 0.24307,-15.0226 2.05732,-18.5 1.76576,-3.3844 1.96706,-4.981 1.38208,-10.9613997 -0.85276,-8.718 -0.73414,-87.1685003 0.15385,-101.7507003 l 0.65467,-10.7508 -3.07232,0.6145 c -4.7317,-0.032 -3.78247,-1.407 -3.03322,-4.4281 0.64799,-2.6966 2.7955,-5.5208 3.00897,-5.7343 -1.51889,-0.9338 -0.97533,-3.89872 -1.19737,-6.27116 z"
         style="fill:#000000" />
      <path
         inkscape:export-ydpi="9"
         inkscape:export-xdpi="9"
         inkscape:export-filename="C:\Users\Dovile\Desktop\doodles\beetle\path3252-2.png"
         inkscape:connector-curvature="0"
         id="path3019-8-4-2"
         d="m -29.863807,-86.47625 c 11.34962,-3.68633 25.1610301,-4.88592 51.23523,-4.45003 20.337345,0.33999 23.710235,0.67236 35.689445,3.51682 6.62408,1.57289 6.17798,0.16268 4.39828,13.90371 -1.3163,10.16378 -2.10414,26.96871 -2.99597,63.9068003 -0.33502,13.87622 -0.82505,23.9904197 -1.19589,24.6833497 -0.88803,1.6593 -1.71862,1.8752 -11.27566,2.93095 -11.88475,1.3129 -49.5052849,1.3129 -61.390035,0 -9.57999,-1.05828 -10.38641,-1.26937 -11.2885,-2.95494 -0.39527,-0.73857 -0.95995,-13.8146497 -1.47255,-34.09928 -0.45729,-18.09574 -0.9969,-35.36163 -1.19915,-38.36866 -0.34467,-5.12465 -2.33898,-21.97299 -3.102,-26.20641 -0.33031,-1.83268 -0.22883,-1.94454 2.5968,-2.86231 l 0,0 z"
         style="fill:#ff0000;fill-opacity:1;fill-rule:nonzero;stroke:none" />
      <path
         inkscape:export-ydpi="9"
         inkscape:export-xdpi="9"
         inkscape:export-filename="C:\Users\Dovile\Desktop\doodles\beetle\path3252-2.png"
         inkscape:connector-curvature="0"
         id="path3789-6-0-7"
         d="m -40.948187,-162.13709 c 6.51134,-19.48432 9.40191,-26.9871 14.08789,-36.56657 6.29096,-12.86053 9.47601,-15.82143 19.7592901,-18.3688 5.09826,-1.26294 12.48028,-1.82585 13.73937,-1.04768 0.34281,0.21186 0.80374,1.34708 1.02428,2.52269 0.58412,3.11364 2.6731199,4.2515 7.8083099,4.25314 3.82778,0.001 4.30427,-0.14246 5.64795,-1.70311 0.95988,-1.11488 1.46748,-2.4553 1.46748,-3.87519 l 0,-2.17075 5.01171,0.42362 c 16.388585,1.38524 23.101775,5.58401 28.980945,18.12615 6.26691,13.36937 13.07241,31.67856 18.54111,49.88266 1.19357,3.97308 2.05767,7.33619 1.92027,7.47358 -0.1374,0.13738 -0.8193,-0.67181 -1.5155,-1.7982 -2.03807,-3.29766 -7.93337,-8.5237 -12.84307,-11.38507 -7.86908,-4.58605 -19.78152,-8.84021 -29.07076,-10.38172 -5.294315,-0.87857 -29.3411549,-0.85722 -35.9313949,0.0319 -15.7430801,2.12398 -31.3377201,9.4502 -40.5493001,19.04969 -2.08821,2.17615 -3.78912,3.6386 -3.7798,3.24988 0.009,-0.38873 2.57487,-8.36103 5.70122,-17.71622 z"
         style="fill:#ff0000;fill-opacity:1;fill-rule:nonzero;stroke:none" />
      <path
         inkscape:export-ydpi="9"
         inkscape:export-xdpi="9"
         inkscape:export-filename="C:\Users\Dovile\Desktop\doodles\beetle\path3252-2.png"
         sodipodi:nodetypes="cscssssccsssssccc"
         inkscape:connector-curvature="0"
         id="path3791-2-9-9"
         d="m -26.533217,81.40656 c 6.3065,2.94667 13.88695,5.45784 21.0161101,6.96198 3.82403,0.80681 4.73315003,1.21758 4.88273003,2.20621 0.78676,5.19961 1.58559,5.47275 15.93099987,5.44706 12.93173,-0.0232 14.75347,-0.47473 15.07024,-3.73561 0.24935,-2.56682 0.82224,-2.93045 6.425305,-4.07839 5.93426,-1.21579 14.94236,-4.29491 21.2507,-7.26384 l 4.77878,-2.24906 -0.4163,2.29497 c -1.0398,5.73317 -7.00652,15.28112 -14.00107,22.40451 -8.0002,8.14754 -11.35125,9.05032 -33.411395,9.00106 -19.4666199,-0.0435 -21.9364599,-0.47608 -28.55157,-5.00104 -3.09055,-2.11404 -5.37594,-4.39418 -8.36477,-8.34558 -4.55941,-6.02776 -9.22207,-14.54415 -9.87197,-18.03121 l -0.42256,-2.26722 5.68477,2.65616 z"
         style="fill:#ff0000;fill-opacity:1;fill-rule:nonzero;stroke:none" />
      <path
         inkscape:export-ydpi="9"
         inkscape:export-xdpi="9"
         inkscape:export-filename="C:\Users\Dovile\Desktop\doodles\beetle\path3252-2.png"
         inkscape:connector-curvature="0"
         id="path3795-4-4-9"
         d="m 65.731048,-60.99166 c 3.8583,-30.41107 12.41497,-74.11257 14.51107,-74.11257 0.8625,0 2.0066,1.72926 1.59,2.40331 -0.2156,0.34875 -0.7646,0.63409 -1.2202,0.63409 -1.0534,0 -1.5921,1.74639 -4.2161,13.6683 -5.02727,22.84074 -8.16627,43.39035 -9.46497,61.96297 -0.8177,11.69438 -0.8169,53.5033503 0.001,63.7854003 1.851,23.2616997 6.3356,44.0423097 9.50447,44.0423097 0.7621,0 0.8942,0.40319 0.6054,1.84733 -0.3635,1.81703 -6.10797,17.10196 -8.43807,22.45187 -1.1336,2.6028 -1.217,2.66469 -1.7426,1.29269 -1.0351,-2.7017 -1.7358,-30.08549 -2.0305,-79.3538797 -0.2773,-46.3381003 -0.2248,-49.7546503 0.9002,-58.6218203 l 0,0 z"
         style="fill:#ff0000;fill-opacity:1;fill-rule:nonzero;stroke:none" />
      <path
         inkscape:export-ydpi="9"
         inkscape:export-xdpi="9"
         inkscape:export-filename="C:\Users\Dovile\Desktop\doodles\beetle\path3252-2.png"
         inkscape:connector-curvature="0"
         id="path3797-7-8-6"
         d="m -50.797217,-134.98273 c 0.71157,-0.71157 2.30842,-1.01577 2.30842,-0.43975 0,0.15907 1.22084,5.99943 2.71298,12.97858 8.24272,38.55356 10.91456,58.56617 11.84488,88.72051 0.72935,23.64063 -0.66933,92.84304 -2.18597,108.15438 -0.34561,3.48914 -0.47455,3.78298 -1.21537,2.76984 -1.47613,-2.01874 -9.33408,-23.07473 -9.33408,-25.01142 0,-0.43849 0.40303,-0.79726 0.89562,-0.79726 1.80645,0 3.52254,-5.34273 6.04881,-18.83188 3.03846,-16.22395 3.48345,-22.2792 3.81979,-51.97807 0.35182,-31.06481 -0.0554,-39.41446 -2.87318,-58.9154 -4.37,-30.24319 -9.29766,-52.27861 -12.07456,-53.99482 -0.88456,-0.54669 -0.86087,-1.74118 0.0527,-2.65471 z"
         style="fill:#ff0000;fill-opacity:1;fill-rule:nonzero;stroke:none" />
      <path
         inkscape:export-ydpi="9"
         inkscape:export-xdpi="9"
         inkscape:export-filename="C:\Users\Dovile\Desktop\doodles\beetle\path3252-2.png"
         inkscape:connector-curvature="0"
         id="path3799-2-8-81"
         d="m 67.786148,-193.42231 c 0.1155,0 1.8159,0.71309 3.7787,1.58464 5.00647,2.2232 9.85027,2.59575 12.60637,0.96962 2.464,-1.45375 2.8172,-1.21775 4.4383,2.96551 0.924,2.38451 1.0603,6.24406 1.2316,34.87765 0.1328,22.19185 -10e-4,31.8788 -0.4307,31.1742 -0.3429,-0.56223 -1.7182,-5.56895 -3.0563,-11.12604 -4.1768,-17.34639 -9.7497,-35.69227 -16.28537,-53.61143 -1.371,-3.75878 -2.3981,-6.83415 -2.2826,-6.83415 z"
         style="fill:#ff0000;fill-opacity:1;fill-rule:nonzero;stroke:none" />
      <path
         inkscape:export-ydpi="9"
         inkscape:export-xdpi="9"
         inkscape:export-filename="C:\Users\Dovile\Desktop\doodles\beetle\path3252-2.png"
         inkscape:connector-curvature="0"
         id="path3801-2-2-2"
         d="m -59.443582,-173.07173 c 0.32775,-11.62637 0.48581,-13.03976 1.78339,-15.94635 0.783075,-1.7541 1.573605,-3.18927 1.756745,-3.18927 0.18313,0 0.86236,0.47839 1.5094,1.06309 1.94351,1.75627 9.00905,1.43357 13.17158,-0.60157 1.82475,-0.89215 3.42082,-1.51899 3.54683,-1.39298 0.12601,0.12601 -1.56144,5.37607 -3.74988,11.66679 -6.43854,18.50775 -9.71546,29.44504 -14.03398,46.84092 -1.46986,5.92089 -2.918095,11.4272 -3.218275,12.23624 -0.36632,0.98726 -0.67855,-3.09024 -0.94947,-12.39965 -0.42102,-14.46653 -0.40737,-17.31053 0.18366,-38.27722 z"
         style="fill:#ff0000;fill-opacity:1;fill-rule:nonzero;stroke:none" />
      <path
         inkscape:export-ydpi="9"
         inkscape:export-xdpi="9"
         inkscape:export-filename="C:\Users\Dovile\Desktop\doodles\beetle\path3252-2.png"
         inkscape:connector-curvature="0"
         id="path3803-9-4-84"
         d="m -59.108062,22.95348 c 0.17347,0.17346 1.1309,4.11448 2.127655,8.75783 3.53172,16.45261 11.79865,40.35334 18.99423,54.91468 2.06381,4.17643 3.84663,7.79389 3.96183,8.03881 0.1152,0.24493 -0.84051,0.0749 -2.12381,-0.37791 -7.82403,-2.76048 -15.31703,-0.75827 -15.39988,4.11502 -0.02,1.17582 -0.14527,1.13392 -1.47569,-0.49356 -4.03833,-4.94006 -4.744145,-10.32405 -5.779555,-44.08628 -0.692,-22.56431 -0.77866,-31.34249 -0.30478,-30.86859 z"
         style="fill:#ff0000;fill-opacity:1;fill-rule:nonzero;stroke:none" />
      <path
         inkscape:export-ydpi="9"
         inkscape:export-xdpi="9"
         inkscape:export-filename="C:\Users\Dovile\Desktop\doodles\beetle\path3252-2.png"
         inkscape:connector-curvature="0"
         id="path3805-6-5-89"
         d="m 69.408348,82.67737 c 4.1515,-7.99596 6.25187,-13.00118 9.30427,-22.17302 4.3914,-13.19473 9.2398,-29.68141 10.0937,-34.32262 0.7184,-3.90521 0.2185,42.04512 -0.5937,54.57319 -0.5928,9.14275 -1.4835,12.4542 -4.6575,17.31609 l -0.928,1.42159 -1.0132,-2.01697 c -1.6295,-3.24373 -4.491,-4.77484 -8.92387,-4.77484 -2.0804,0 -4.9103,0.39793 -6.2887,0.88427 -1.8597,0.65614 -2.4868,0.69532 -2.4306,0.15187 0.042,-0.40282 2.4886,-5.37962 5.4376,-11.05956 z"
         style="fill:#ff0000;fill-opacity:1;fill-rule:nonzero;stroke:none" />
      <path
         inkscape:export-ydpi="9"
         inkscape:export-xdpi="9"
         inkscape:export-filename="C:\Users\Dovile\Desktop\doodles\beetle\path3252-2.png"
         inkscape:connector-curvature="0"
         id="path3807-4-5-0"
         d="m 33.928628,119.87356 c 0.27698,-0.16217 2.13557,-0.76349 4.1302,-1.33628 4.69921,-1.34943 7.2843,-2.69639 12.55374,-6.54109 4.1068,-2.99643 4.34706,-3.08931 5.15022,-1.99092 0.46336,0.63368 0.84247,1.62433 0.84247,2.20144 0,1.9143 4.14859,3.87487 8.20099,3.87571 4.4483,9.1e-4 8.6268,-1.88557 13.96687,-6.30577 2.0019,-1.65701 3.7788,-2.86849 3.9487,-2.69217 0.1698,0.17631 -1.6745,2.18334 -4.0985,4.46006 -5.17777,4.86312 -13.65627,9.36042 -22.3218,11.84029 -5.17545,1.48108 -21.20267,3.92088 -21.7707,3.31412 -0.55647,-0.59441 -1.08146,-6.54478 -0.60219,-6.82539 l 0,0 z"
         style="fill:#800000;fill-opacity:1;fill-rule:nonzero;stroke:none" />
      <path
         inkscape:export-ydpi="9"
         inkscape:export-xdpi="9"
         inkscape:export-filename="C:\Users\Dovile\Desktop\doodles\beetle\path3252-2.png"
         inkscape:connector-curvature="0"
         id="path3809-2-1-5"
         d="m -49.692817,108.5961 c 4.62463,3.83739 8.19885,6.01138 11.45595,6.96799 5.7622,1.69235 10.79661,0.0187 12.42671,-4.13109 0.50344,-1.28164 1.17586,-2.33025 1.49427,-2.33025 0.3184,0 2.3223,1.4043 4.4531,3.12067 4.39469,3.53994 8.34575,5.48077 13.5035501,6.63318 l 3.55457,0.7942 -0.35862,2.16761 c -0.19724,1.19218 -0.36162,2.82038 -0.3653,3.61822 -0.007,1.43938 -0.0432,1.44744 -4.71465,1.03955 -12.3382401,-1.07732 -23.4926901,-4.09965 -31.3523101,-8.495 -2.27275,-1.271 -6.02359,-4.09507 -8.3352,-6.27573 -4.53778,-4.2807 -5.74854,-6.41721 -1.76207,-3.10935 l 0,0 z"
         style="fill:#800000;fill-opacity:1;fill-rule:nonzero;stroke:none" />
      <path
         inkscape:export-ydpi="9"
         inkscape:export-xdpi="9"
         inkscape:export-filename="C:\Users\Dovile\Desktop\doodles\beetle\path3252-2.png"
         inkscape:connector-curvature="0"
         id="path3811-9-7-1"
         d="m -44.128797,-216.35408 c 6.37414,-5.32578 13.82559,-8.64679 24.79904,-11.05258 10.9892501,-2.40926 15.6184301,-2.76896 35.23386,-2.73774 16.76062,0.0267 20.078065,0.19313 26.729115,1.34122 15.71014,2.71185 25.52533,6.64726 32.48573,13.02517 2.20687,2.02225 3.92317,3.76619 3.81387,3.87543 -0.1092,0.10925 -1.5854,-0.48769 -3.2803,-1.32652 -6.18937,-3.0631 -12.77237,-2.27362 -14.68857,1.76157 l -0.8063,1.69789 -1.67663,-2.30537 c -2.28074,-3.13599 -6.15547,-6.54081 -9.22644,-8.1075 -4.27587,-2.18139 -13.56497,-4.18399 -22.812745,-4.91812 -9.81847,-0.77944 -27.7604099,0.0405 -34.9194499,1.59576 -8.7368201,1.89805 -15.1857401,5.46802 -18.6884801,10.3455 -1.07736,1.50019 -2.14687,2.71709 -2.37669,2.70422 -0.22983,-0.0129 -0.9646,-0.88433 -1.63283,-1.93659 -0.68328,-1.07596 -2.01247,-2.13598 -3.0374,-2.42232 -2.54754,-0.71171 -8.34442,0.0243 -11.04825,1.40283 -2.58684,1.31885 -2.62005,1.3274 -2.62005,0.67476 0,-0.26526 1.68863,-1.89318 3.75252,-3.61761 l 0,0 z"
         style="fill:#800000;fill-opacity:1;fill-rule:nonzero;stroke:none" />
      <path
         inkscape:export-ydpi="9"
         inkscape:export-xdpi="9"
         inkscape:export-filename="C:\Users\Dovile\Desktop\doodles\beetle\path3252-2.png"
         inkscape:connector-curvature="0"
         id="path3815-28-1-9"
         d="m -35.276107,-138.31955 c 34.2760401,-17.60949 63.52289,-18.17545 97.116655,-1.87933 4.3829,2.12612 8.2979,4.26214 8.7001,4.74671 0.5811,0.7002 -0.1133,5.01621 -3.383,21.02868 l -4.1142,20.14766 -2.156,-0.32438 c -1.18582,-0.17842 -6.2565,-1.05849 -11.26821,-1.95572 -8.03402,-1.43831 -11.16075,-1.66781 -26.425375,-1.93965 -23.28181987,-0.41461 -36.90107,0.56846 -53.29283,3.84681 -1.87855,0.37571 -1.93156,0.32236 -2.85668,-2.87501 -1.14719,-3.9649 -7.63591,-35.34976 -7.63591,-36.93364 0,-0.80914 1.51364,-1.90892 5.31545,-3.86213 l 0,0 z"
         style="fill:#333333;fill-opacity:1;fill-rule:nonzero;stroke:none" />
      <path
         inkscape:export-ydpi="9"
         inkscape:export-xdpi="9"
         inkscape:export-filename="C:\Users\Dovile\Desktop\doodles\beetle\path3252-2.png"
         inkscape:connector-curvature="0"
         id="path3817-5-1-2"
         d="m -24.031667,49.91802 c 0.25392,-10.66714 0.60005,-19.53318 0.76919,-19.70232 0.16914,-0.16914 7.47895,0.0189 16.2440301,0.41793 24.4052399,1.11095 39.3069699,0.88311 56.1706649,-0.85885 3.68869,-0.38103 3.80099,-0.34985 4.39819,1.22089 0.33706,0.88655 0.79633,11.02954 1.02059,22.53999 l 0.40775,20.92808 -3.9393,1.78617 c -10.28316,4.66261 -17.20003,6.09628 -31.575575,6.54476 -16.7809799,0.52352 -26.9741199,-1.0194 -38.05448,-5.76026 l -5.29525,-2.26563 -0.30374,-2.72798 c -0.16705,-1.5004 -0.096,-11.45565 0.15793,-22.12278 l 0,0 z"
         style="fill:#333333;fill-opacity:1;fill-rule:nonzero;stroke:none" />
      <path
         inkscape:export-ydpi="9"
         inkscape:export-xdpi="9"
         inkscape:export-filename="C:\Users\Dovile\Desktop\doodles\beetle\path3252-2.png"
         sodipodi:nodetypes="ccccccc"
         inkscape:connector-curvature="0"
         id="path3819-0-5-3"
         d="m 77.543818,-108.7506 c 0.084,27.34468 -1.2031,39.73222 -0.9652,50.08609 l 0.9057,35.43988 c -2.49329,0.57595 -2.33359,0.0675 -4.65986,0.0753 l -3.5689,0 0.089,-7.13789 c -1.06608,-27.30321 4.56743,-54.39088 8.19926,-78.46338 z"
         style="fill:#333333;fill-opacity:1;fill-rule:nonzero;stroke:none" />
      <path
         inkscape:export-ydpi="9"
         inkscape:export-xdpi="9"
         inkscape:export-filename="C:\Users\Dovile\Desktop\doodles\beetle\path3252-2.png"
         sodipodi:nodetypes="cccc"
         inkscape:connector-curvature="0"
         id="path3821-46-2-3"
         d="m 75.637118,-9.5369797 c 0.6972,0.69723 -1.08443,39.0578997 -1.80994,38.6091397 -0.57617,-0.35609 -4.7135,-33.9858897 -4.7135,-38.6075297 2.99429,0.13434 3.55688,0.55835 6.52344,-0.002 z"
         style="fill:#333333;fill-opacity:1;fill-rule:nonzero;stroke:none" />
      <path
         inkscape:export-ydpi="9"
         inkscape:export-xdpi="9"
         inkscape:export-filename="C:\Users\Dovile\Desktop\doodles\beetle\path3252-2.png"
         sodipodi:nodetypes="cssccccc"
         inkscape:connector-curvature="0"
         id="path3823-1-7-7"
         d="m -47.216507,-86.2388 c 0.2596,-9.3552 -0.1799,-19.71006 0.1146,-21.04651 0.50389,-2.28665 -0.44019,-2.10702 1.08837,5.89623 3.93713,20.61418 7.63875,56.19086 7.69532,73.96069 l 0.013,4.10049 c -3.84737,0 -4.30189,-0.17857 -8.14926,-0.17857 l 0.27577,-23.1293 c -0.72259,-13.45609 0.49626,-24.53335 -1.0378,-39.60303 z"
         style="fill:#333333;fill-opacity:1;fill-rule:nonzero;stroke:none" />
      <path
         inkscape:export-ydpi="9"
         inkscape:export-xdpi="9"
         inkscape:export-filename="C:\Users\Dovile\Desktop\doodles\beetle\path3252-2.png"
         sodipodi:nodetypes="ccccc"
         inkscape:connector-curvature="0"
         id="path3825-2-6-5"
         d="m -44.626137,-9.7605397 c 1.82613,-0.3618903 2.89308,0.69175 4.73743,0.69175 -1.19429,14.52193 -0.52867,25.0503897 -3.55989,35.2835997 -1.2332,-10.55868 -1.87484,-18.9954697 -2.00449,-29.9021997 0,-3.49072 -1.03943,-5.69988 0.82695,-6.07315 z"
         style="fill:#333333;fill-opacity:1;fill-rule:nonzero;stroke:none" />
      <path
         inkscape:export-ydpi="9"
         inkscape:export-xdpi="9"
         inkscape:export-filename="C:\Users\Dovile\Desktop\doodles\beetle\path3252-2.png"
         inkscape:connector-curvature="0"
         id="path3827-1-1-4"
         d="m 68.552348,-208.81181 c 0.8087,-0.80866 2.8858,-0.37193 5.4902,1.15434 6.36617,3.73081 8.77277,12.21058 2.82347,9.94867 -4.55377,-1.73135 -10.17627,-9.24034 -8.31367,-11.10301 z"
         style="fill:#b3b3b3;fill-opacity:1;fill-rule:nonzero;stroke:none" />
      <path
         inkscape:export-ydpi="9"
         inkscape:export-xdpi="9"
         inkscape:export-filename="C:\Users\Dovile\Desktop\doodles\beetle\path3252-2.png"
         inkscape:connector-curvature="0"
         id="path3829-6-4-5"
         d="m -47.939397,-203.57288 c 4.14294,-5.71916 11.75457,-7.50218 9.77261,-2.28922 -1.65516,4.3534 -7.98443,9.42068 -10.54133,8.4395 -1.54921,-0.59448 -1.19333,-3.44175 0.76872,-6.15028 z"
         style="fill:#b3b3b3;fill-opacity:1;fill-rule:nonzero;stroke:none" />
      <path
         inkscape:export-ydpi="9"
         inkscape:export-xdpi="9"
         inkscape:export-filename="C:\Users\Dovile\Desktop\doodles\beetle\path3252-2.png"
         inkscape:connector-curvature="0"
         id="path3831-72-2-7"
         d="m 63.968948,103.39182 c 4.4462,-5.05114 10.2305,-6.74821 11.85187,-3.47729 1.9382,3.90994 -5.07107,11.01066 -10.86887,11.01066 -4.2855,0 -4.7152,-3.29334 -0.983,-7.53337 l 0,0 z"
         style="fill:#333333;fill-opacity:1;fill-rule:nonzero;stroke:none" />
      <path
         inkscape:export-ydpi="9"
         inkscape:export-xdpi="9"
         inkscape:export-filename="C:\Users\Dovile\Desktop\doodles\beetle\path3252-2.png"
         inkscape:connector-curvature="0"
         id="path3833-28-3-5"
         d="m -44.561237,98.96704 c 2.81409,-1.34195 5.87212,-0.43244 9.6107,2.85839 3.46114,3.04662 4.70325,6.18775 3.13297,7.92289 -2.8028,3.09707 -10.76953,-0.49839 -13.66047,-6.1651 -1.59287,-3.12229 -1.52769,-3.45049 0.9168,-4.61618 z"
         style="fill:#333333;fill-opacity:1;fill-rule:nonzero;stroke:none" />
      <path
         inkscape:export-ydpi="9"
         inkscape:export-xdpi="9"
         inkscape:export-filename="C:\Users\Dovile\Desktop\doodles\beetle\path3252-2.png"
         sodipodi:nodetypes="scss"
         inkscape:connector-curvature="0"
         id="path3837-6-2-6"
         d="m -46.205567,-19.28466 c 1.41416,-1.50184 7.42143,0.0471 7.3547,1.8166 -0.0896,2.37573 -1.99544,4.58366 -5.05681,3.4853 -2.54945,-0.91468 -3.89168,-3.60926 -2.29789,-5.3019 z"
         style="fill:#ff0000;fill-opacity:1;fill-rule:nonzero;stroke:none" />
      <path
         inkscape:export-ydpi="9"
         inkscape:export-xdpi="9"
         inkscape:export-filename="C:\Users\Dovile\Desktop\doodles\beetle\path3252-2.png"
         sodipodi:nodetypes="cccc"
         inkscape:connector-curvature="0"
         id="path3839-1-2-5"
         d="m 69.293218,-17.87438 c 0.6798,-2.36019 7.2525,-2.26544 7.6893,0.18826 0.6676,3.75082 0.4787,4.47522 -4.0385,4.57341 -4.04857,0.0882 -4.6168,-1.40756 -3.6508,-4.76166 z"
         style="fill:#ff0000;fill-opacity:1;fill-rule:nonzero;stroke:none" />
      <path
         inkscape:export-ydpi="9"
         inkscape:export-xdpi="9"
         inkscape:export-filename="C:\Users\Dovile\Desktop\doodles\beetle\path3252-2.png"
         inkscape:connector-curvature="0"
         id="path3841-0-1-7"
         d="m -24.706627,-155.35349 c 6.5962,-3.1491 13.34624,-5.36573 20.9441601,-6.8778 4.23947003,-0.8437 8.24508,-1.06081 18.7553499,-1.01655 14.63515,0.0616 21.204225,0.85101 29.078365,3.49427 5.32125,1.78629 16.5189,6.89488 16.0785,7.33532 -0.16223,0.16221 -2.62771,-0.64572 -5.47888,-1.79541 -5.98227,-2.41224 -16.85378,-5.37471 -23.883505,-6.5082 -7.07395,-1.14063 -26.5599799,-0.96865 -33.4114099,0.29488 -6.92941,1.27791 -14.9034701,3.5856 -21.7654501,6.29893 -2.94993,1.16643 -5.5062,1.97809 -5.68062,1.80367 -0.17442,-0.17442 2.23915,-1.53752 5.36349,-3.02911 l 0,0 z"
         style="fill:#800000;fill-opacity:1;fill-rule:nonzero;stroke:none" />
      <path
         inkscape:export-ydpi="9"
         inkscape:export-xdpi="9"
         inkscape:export-filename="C:\Users\Dovile\Desktop\doodles\beetle\path3252-2.png"
         inkscape:connector-curvature="0"
         id="path3843-98-6-3"
         d="m 86.120618,-116.27234 c 1.0709,0 6.4834,3.68992 6.0492,4.12405 -0.7161,0.71614 -5.8397,-0.63693 -6.404,-1.69118 -0.8711,-1.62769 -0.7537,-2.43287 0.3548,-2.43287 z"
         style="fill:#800000;fill-opacity:1;fill-rule:nonzero;stroke:none" />
      <path
         inkscape:export-ydpi="9"
         inkscape:export-xdpi="9"
         inkscape:export-filename="C:\Users\Dovile\Desktop\doodles\beetle\path3252-2.png"
         inkscape:connector-curvature="0"
         id="path3845-2-8-9"
         d="m -59.472272,-114.34469 c 2.822775,-2.04481 4.908675,-2.49517 4.908675,-1.05983 0,1.36687 -1.6754,2.69442 -3.935545,3.11842 -3.48859,0.65447 -3.80229,-0.009 -0.97313,-2.05859 z"
         style="fill:#800000;fill-opacity:1;fill-rule:nonzero;stroke:none" />
      <path
         inkscape:export-ydpi="9"
         inkscape:export-xdpi="9"
         inkscape:export-filename="C:\Users\Dovile\Desktop\doodles\beetle\path3252-2.png"
         inkscape:connector-curvature="0"
         id="path3847-5-5-1"
         d="m 15.296623,122.46731 13.97204,0 0,2.42992 0,2.42992 -13.97204,0 -13.9720399,0 0,-2.42992 0,-2.42992 13.9720399,0 z"
         style="fill:#333333;fill-opacity:1;fill-rule:nonzero;stroke:none" />
      <path
         inkscape:export-ydpi="9"
         inkscape:export-xdpi="9"
         inkscape:export-filename="C:\Users\Dovile\Desktop\doodles\beetle\path3252-2.png"
         inkscape:connector-curvature="0"
         id="path3849-0-7-0"
         d="m 12.615053,-218.08617 c 1.71375,-0.71605 2.60912,-0.76795 4.19864,-0.24336 3.87291,1.27818 2.87447,4.5875 -1.35064,4.47671 -4.94881,-0.12976 -6.6428099,-2.64778 -2.848,-4.23335 z"
         style="fill:#333333;fill-opacity:1;fill-rule:nonzero;stroke:none" />
      <path
         inkscape:export-ydpi="9"
         inkscape:export-xdpi="9"
         sodipodi:nodetypes="scsss"
         inkscape:connector-curvature="0"
         id="path3252-47"
         d="m 80.426418,-70.50181 c 3.1385,44.15593 -2.756,114.22191 -3.0051,113.50924 3.3416,-6.62199 7.1928,-18.97598 9.0989,-38.0628197 3.0214,-30.2556703 1.5199,-103.7893803 -2.8795,-107.9464203 -3.3672,-3.1817 -3.9861,21.64121 -3.2143,32.5 z"
         style="fill:#ff0000;fill-opacity:1;stroke:none" />
      <path
         inkscape:export-ydpi="9"
         inkscape:export-xdpi="9"
         sodipodi:nodetypes="scsss"
         inkscape:connector-curvature="0"
         id="path3252-2-2"
         d="m -50.775097,-69.86966 c -2.27729,44.20871 4.00597,112.61477 4.25507,111.9021 -3.3416,-6.622 -9.44847,-19.64917 -10.88457,-38.7771097 -2.337605,-31.1348103 0.0965,-106.4339503 2.1652,-107.2321403 6.81411,-2.62912 4.86978,26.23561 4.4643,34.10715 z"
         style="fill:#ff0000;fill-opacity:1;stroke:none" />
    </g>
  </g>
</svg>
