<?xml version="1.0" encoding="UTF-8" standalone="no"?>
<!-- Created with Inkscape (http://www.inkscape.org/) -->

<svg
   xmlns:dc="http://purl.org/dc/elements/1.1/"
   xmlns:cc="http://creativecommons.org/ns#"
   xmlns:rdf="http://www.w3.org/1999/02/22-rdf-syntax-ns#"
   xmlns:svg="http://www.w3.org/2000/svg"
   xmlns="http://www.w3.org/2000/svg"
   xmlns:sodipodi="http://sodipodi.sourceforge.net/DTD/sodipodi-0.dtd"
   xmlns:inkscape="http://www.inkscape.org/namespaces/inkscape"
   width="1147.8792"
   height="368.77676"
   id="svg7788"
   version="1.1"
   inkscape:version="0.48.1 "
   sodipodi:docname="beetle.svg">
  <defs
     id="defs7790" />
  <sodipodi:namedview
     id="base"
     pagecolor="#ffffff"
     bordercolor="#666666"
     borderopacity="1.0"
     inkscape:pageopacity="0.0"
     inkscape:pageshadow="2"
     inkscape:zoom="0.69999999"
     inkscape:cx="800.66341"
     inkscape:cy="250.41869"
     inkscape:document-units="px"
     inkscape:current-layer="layer1"
     showgrid="false"
     fit-margin-top="0"
     fit-margin-left="0"
     fit-margin-right="0"
     fit-margin-bottom="0"
     inkscape:window-width="1680"
     inkscape:window-height="988"
     inkscape:window-x="-8"
     inkscape:window-y="-8"
     inkscape:window-maximized="1" />
  <metadata
     id="metadata7793">
    <rdf:RDF>
      <cc:Work
         rdf:about="">
        <dc:format>image/svg+xml</dc:format>
        <dc:type
           rdf:resource="http://purl.org/dc/dcmitype/StillImage" />
        <dc:title></dc:title>
      </cc:Work>
    </rdf:RDF>
  </metadata>
  <g
     inkscape:label="Layer 1"
     inkscape:groupmode="layer"
     id="layer1"
     transform="translate(109.65392,-233.87171)">
    <g
       id="g3258">
      <path
         sodipodi:nodetypes="csssssssccccssssssssscsssccccc"
         inkscape:connector-curvature="0"
         id="path2995-0"
         d="m -107.22326,347.41634 c 0.21347,-0.21346 -0.83244,-10.20813 -0.63213,-30.24633 0.39411,-39.42389 0.7077,-42.12842 6.1691,-53.20547 7.549514,-15.31223 18.461384,-22.2265 43.999574,-27.88018 8.48437,-1.87828 13.03127,-2.21364 30,-2.21265 20.540571,0.001 29.433121,1.20193 45.000001,6.07617 13.1658,4.12242 22.18726,11.36125 28.04532,22.50358 6.47518,12.31613 6.44958,14.39386 6.85447,54.85406 0.21518,21.50326 1.28825,34.61688 -1.31147,35.50778 2.90019,2.3209 4.84571,4.5111 4.91168,8.2778 0.0488,3.5951 -0.80042,2.8189 -4.13083,2.8551 l -4.13083,-0.5541 0.65374,13.1724 c 0.92986,18.736 1.01094,87.612 0.1146,97.3525 -0.67708,7.3579 -0.52441,8.6518 1.51892,12.8728 2.26547,4.6798 2.26972,4.7783 1.5572,36.1118 -0.88129,38.7549 -1.65034,46.9091 -5.08657,53.9325 -5.1578,10.5422 -19.62073,19.9884 -35.17168,22.9717 -19.75433,3.7898 -57.910871,3.7903 -77.649101,10e-4 -17.01124,-3.2657 -32.03615,-13.8998 -36.501504,-25.8345 -1.84374,-4.9279 -2.29454,-9.2159 -3.15315,-29.9927 -0.55102,-13.3335 -1.00611,-30.7851 -1.01132,-38.7813 -0.008,-12.762 0.24307,-15.0226 2.05732,-18.5 1.76576,-3.3844 1.96706,-4.981 1.38208,-10.9614 -0.85276,-8.718 -0.73414,-87.1685 0.15385,-101.7507 l 0.65467,-10.7508 -3.07232,0.6145 c -4.7317,-0.032 -3.78247,-1.407 -3.03322,-4.4281 0.64799,-2.6966 2.7955,-5.5208 3.00897,-5.7343 -1.51889,-0.9338 -0.97533,-3.89872 -1.19737,-6.27116 z"
         style="fill:#000000" />
      <path
         inkscape:connector-curvature="0"
         id="path3019"
         d="m -72.388136,383.71422 c 11.34962,-3.68633 25.16103,-4.88592 51.23522,-4.45003 20.337352,0.33999 23.710246,0.67236 35.689451,3.51682 6.624091,1.57289 6.177983,0.16268 4.398325,13.90371 -1.316354,10.16378 -2.104185,26.96871 -2.996009,63.9068 -0.335024,13.87622 -0.82505,23.99042 -1.19589,24.68335 -0.888033,1.6593 -1.718618,1.8752 -11.275661,2.93095 -11.884752,1.3129 -49.505286,1.3129 -61.390036,0 -9.57999,-1.05828 -10.38641,-1.26937 -11.2885,-2.95494 -0.39527,-0.73857 -0.95995,-13.81465 -1.47255,-34.09928 -0.45729,-18.09574 -0.9969,-35.36163 -1.19915,-38.36866 -0.34467,-5.12465 -2.33898,-21.97299 -3.102,-26.20641 -0.33031,-1.83268 -0.22883,-1.94454 2.5968,-2.86231 l 0,0 z"
         style="fill:#ff0000;fill-opacity:1;fill-rule:nonzero;stroke:none" />
      <path
         inkscape:connector-curvature="0"
         id="path3789"
         d="m -83.472516,308.05338 c 6.51134,-19.48432 9.40191,-26.9871 14.08789,-36.56657 6.29096,-12.86053 9.47601,-15.82143 19.75929,-18.3688 5.09826,-1.26294 12.48027,-1.82585 13.73936,-1.04768 0.34281,0.21186 0.80374,1.34708 1.02428,2.52269 0.58412,3.11364 2.67312,4.2515 7.80831,4.25314 3.82778,10e-4 4.30427,-0.14246 5.64795,-1.70311 0.95988,-1.11488 1.46748,-2.4553 1.46748,-3.87519 l 0,-2.17075 5.01171,0.42362 c 16.388599,1.38524 23.101789,5.58401 28.980954,18.12615 6.266934,13.36937 13.072357,31.67856 18.541104,49.88266 1.193567,3.97308 2.057716,7.33619 1.920332,7.47358 -0.137385,0.13738 -0.819368,-0.67181 -1.515519,-1.7982 -2.038066,-3.29766 -7.933389,-8.5237 -12.84312,-11.38507 -7.869065,-4.58605 -19.781506,-8.84021 -29.070746,-10.38172 -5.294325,-0.87857 -29.341165,-0.85722 -35.931395,0.0319 -15.74308,2.12398 -31.33772,9.4502 -40.5493,19.04969 -2.08821,2.17615 -3.78912,3.6386 -3.7798,3.24988 0.009,-0.38873 2.57487,-8.36103 5.70122,-17.71622 z"
         style="fill:#ff0000;fill-opacity:1;fill-rule:nonzero;stroke:none" />
      <path
         sodipodi:nodetypes="cscsssscssssssccc"
         inkscape:connector-curvature="0"
         id="path3791"
         d="m -69.057546,551.59703 c 6.3065,2.94667 13.88695,5.45784 21.01611,6.96198 3.82403,0.80681 4.73314,1.21758 4.88272,2.20621 0.78676,5.19961 1.58559,5.47275 15.931,5.44706 12.93173,-0.0232 14.75347,-0.47473 15.07024,-3.73561 0.24935,-2.56682 0.82224,-2.93045 6.425315,-4.07839 5.934257,-1.21579 14.942364,-4.29491 21.250697,-7.26384 l 4.778751,-2.24906 -0.416232,2.29497 c -1.039812,5.73317 -7.006553,15.28112 -14.001111,22.40451 -8.000195,8.14754 -11.351244,9.05032 -33.4114,9.00106 -19.46661,-0.0435 -21.93645,-0.47608 -28.55156,-5.00104 -3.09055,-2.11404 -5.37594,-4.39418 -8.36477,-8.34558 -4.55941,-6.02776 -9.22207,-14.54415 -9.87197,-18.03121 l -0.42256,-2.26722 5.68477,2.65616 z"
         style="fill:#ff0000;fill-opacity:1;fill-rule:nonzero;stroke:none" />
      <path
         inkscape:connector-curvature="0"
         id="path3795"
         d="m 23.206715,409.19881 c 3.858336,-30.41107 12.414992,-74.11257 14.511076,-74.11257 0.862536,0 2.006591,1.72926 1.590002,2.40331 -0.215539,0.34875 -0.764605,0.63409 -1.220146,0.63409 -1.053409,0 -1.592101,1.74639 -4.216131,13.6683 -5.027279,22.84074 -8.166272,43.39035 -9.464964,61.96297 -0.81773,11.69438 -0.816888,53.50335 0.0013,63.7854 1.851011,23.2617 6.335534,44.04231 9.50448,44.04231 0.76205,0 0.89417,0.40319 0.605342,1.84733 -0.363406,1.81703 -6.107901,17.10196 -8.438028,22.45187 -1.133639,2.6028 -1.217057,2.66469 -1.742674,1.29269 -1.035037,-2.7017 -1.735723,-30.08549 -2.030478,-79.35388 -0.277224,-46.3381 -0.224757,-49.75465 0.900245,-58.62182 l 0,0 z"
         style="fill:#ff0000;fill-opacity:1;fill-rule:nonzero;stroke:none" />
      <path
         inkscape:connector-curvature="0"
         id="path3797"
         d="m -93.321546,335.20774 c 0.71157,-0.71157 2.30842,-1.01577 2.30842,-0.43975 0,0.15907 1.22084,5.99943 2.71298,12.97858 8.24272,38.55356 10.91456,58.56617 11.84488,88.72051 0.72935,23.64063 -0.66933,92.84304 -2.18597,108.15438 -0.34561,3.48914 -0.47455,3.78298 -1.21537,2.76984 -1.47613,-2.01874 -9.33408,-23.07473 -9.33408,-25.01142 0,-0.43849 0.40303,-0.79726 0.89562,-0.79726 1.80645,0 3.52254,-5.34273 6.04881,-18.83188 3.03846,-16.22395 3.48345,-22.2792 3.81979,-51.97807 0.35182,-31.06481 -0.0554,-39.41446 -2.87318,-58.9154 -4.37,-30.24319 -9.29766,-52.27861 -12.07456,-53.99482 -0.88456,-0.54669 -0.86087,-1.74118 0.0527,-2.65471 z"
         style="fill:#ff0000;fill-opacity:1;fill-rule:nonzero;stroke:none" />
      <path
         inkscape:connector-curvature="0"
         id="path3799"
         d="m 25.261804,276.76816 c 0.115535,0 1.815934,0.71309 3.778663,1.58464 5.006603,2.2232 9.850391,2.59575 12.606483,0.96962 2.463918,-1.45375 2.817114,-1.21775 4.438233,2.96551 0.92406,2.38451 1.060353,6.24406 1.231642,34.87765 0.132754,22.19185 -0.0011,31.8788 -0.430755,31.1742 -0.342846,-0.56223 -1.718159,-5.56895 -3.056252,-11.12604 -4.176842,-17.34639 -9.749734,-35.69227 -16.28544,-53.61143 -1.370952,-3.75878 -2.39811,-6.83415 -2.282574,-6.83415 z"
         style="fill:#ff0000;fill-opacity:1;fill-rule:nonzero;stroke:none" />
      <path
         inkscape:connector-curvature="0"
         id="path3801"
         d="m -101.96791,297.11874 c 0.32774,-11.62637 0.48581,-13.03976 1.78339,-15.94635 0.783074,-1.7541 1.573604,-3.18927 1.756744,-3.18927 0.18313,0 0.86236,0.47839 1.5094,1.06309 1.94351,1.75627 9.00905,1.43357 13.17158,-0.60157 1.82475,-0.89215 3.42082,-1.51899 3.54683,-1.39298 0.12601,0.12601 -1.56144,5.37607 -3.74988,11.66679 -6.43854,18.50775 -9.71546,29.44504 -14.03398,46.84092 -1.46986,5.92089 -2.918094,11.4272 -3.218274,12.23624 -0.36632,0.98726 -0.67855,-3.09024 -0.94947,-12.39965 -0.42102,-14.46653 -0.40737,-17.31053 0.18366,-38.27722 z"
         style="fill:#ff0000;fill-opacity:1;fill-rule:nonzero;stroke:none" />
      <path
         inkscape:connector-curvature="0"
         id="path3803"
         d="m -101.63239,493.14395 c 0.17347,0.17346 1.1309,4.11448 2.127654,8.75783 3.53172,16.45261 11.79865,40.35334 18.99423,54.91468 2.06381,4.17643 3.84663,7.79389 3.96183,8.03881 0.1152,0.24493 -0.84051,0.0749 -2.12381,-0.37791 -7.82403,-2.76048 -15.31703,-0.75827 -15.39988,4.11502 -0.02,1.17582 -0.14527,1.13392 -1.47569,-0.49356 -4.03833,-4.94006 -4.744154,-10.32405 -5.779564,-44.08628 -0.69199,-22.56431 -0.77866,-31.34249 -0.30477,-30.86859 z"
         style="fill:#ff0000;fill-opacity:1;fill-rule:nonzero;stroke:none" />
      <path
         inkscape:connector-curvature="0"
         id="path3805"
         d="m 26.884047,552.86784 c 4.151525,-7.99596 6.25183,-13.00118 9.304318,-22.17302 4.391347,-13.19473 9.239764,-29.68141 10.093624,-34.32262 0.718453,-3.90521 0.218569,42.04512 -0.593691,54.57319 -0.592772,9.14275 -1.483441,12.4542 -4.65744,17.31609 l -0.928064,1.42159 -1.013204,-2.01697 c -1.629461,-3.24373 -4.491009,-4.77484 -8.923904,-4.77484 -2.080324,0 -4.910241,0.39793 -6.288704,0.88427 -1.859686,0.65614 -2.486757,0.69532 -2.43056,0.15187 0.04166,-0.40282 2.488587,-5.37962 5.437625,-11.05956 z"
         style="fill:#ff0000;fill-opacity:1;fill-rule:nonzero;stroke:none" />
      <path
         inkscape:connector-curvature="0"
         id="path3807"
         d="m -8.595701,590.06403 c 0.276983,-0.16217 2.135573,-0.76349 4.130202,-1.33628 4.699206,-1.34943 7.284298,-2.69639 12.553733,-6.54109 4.106808,-2.99643 4.347068,-3.08931 5.150228,-1.99092 0.463355,0.63368 0.842463,1.62433 0.842463,2.20144 0,1.9143 4.148569,3.87487 8.200981,3.87571 4.448322,9.1e-4 8.626784,-1.88557 13.966951,-6.30577 2.001885,-1.65701 3.778764,-2.86849 3.948621,-2.69217 0.169856,0.17631 -1.674455,2.18334 -4.098468,4.46006 -5.177757,4.86312 -13.65626,9.36042 -22.321825,11.84029 -5.175442,1.48108 -21.202663,3.92088 -21.770694,3.31412 -0.556468,-0.59441 -1.081459,-6.54478 -0.602192,-6.82539 l 0,0 z"
         style="fill:#800000;fill-opacity:1;fill-rule:nonzero;stroke:none" />
      <path
         inkscape:connector-curvature="0"
         id="path3809"
         d="m -92.217146,578.78657 c 4.62463,3.83739 8.19885,6.01138 11.45595,6.96799 5.7622,1.69235 10.79661,0.0187 12.42671,-4.13109 0.50344,-1.28164 1.17586,-2.33025 1.49427,-2.33025 0.3184,0 2.3223,1.4043 4.4531,3.12067 4.39469,3.53994 8.34575,5.48077 13.50355,6.63318 l 3.55457,0.7942 -0.35862,2.16761 c -0.19724,1.19218 -0.36162,2.82038 -0.3653,3.61822 -0.007,1.43938 -0.0432,1.44744 -4.71465,1.03955 -12.33824,-1.07732 -23.49269,-4.09965 -31.35231,-8.495 -2.27275,-1.271 -6.02359,-4.09507 -8.3352,-6.27573 -4.53778,-4.2807 -5.74854,-6.41721 -1.76207,-3.10935 l 0,0 z"
         style="fill:#800000;fill-opacity:1;fill-rule:nonzero;stroke:none" />
      <path
         inkscape:connector-curvature="0"
         id="path3811"
         d="m -86.653126,253.83639 c 6.37414,-5.32578 13.82559,-8.64679 24.79904,-11.05258 10.98925,-2.40926 15.61843,-2.76896 35.23385,-2.73774 16.76062,0.0267 20.078078,0.19313 26.72912,1.34122 15.71014,2.71185 25.525351,6.64726 32.485717,13.02517 2.206922,2.02225 3.923205,3.76619 3.813962,3.87543 -0.109243,0.10925 -1.585417,-0.48769 -3.280387,-1.32652 -6.189406,-3.0631 -12.772342,-2.27362 -14.688563,1.76157 l -0.806286,1.69789 -1.676643,-2.30537 c -2.280739,-3.13599 -6.155467,-6.54081 -9.226433,-8.1075 -4.275873,-2.18139 -13.564969,-4.18399 -22.812757,-4.91812 -9.81847,-0.77944 -27.76041,0.0405 -34.91944,1.59576 -8.73682,1.89805 -15.18574,5.46802 -18.68848,10.3455 -1.07736,1.50019 -2.14687,2.71709 -2.37669,2.70422 -0.22983,-0.0129 -0.9646,-0.88433 -1.63283,-1.93659 -0.68328,-1.07596 -2.01247,-2.13598 -3.0374,-2.42232 -2.54754,-0.71171 -8.34442,0.0243 -11.04825,1.40283 -2.58684,1.31885 -2.62005,1.3274 -2.62005,0.67476 0,-0.26526 1.68863,-1.89318 3.75252,-3.61761 l 0,0 z"
         style="fill:#800000;fill-opacity:1;fill-rule:nonzero;stroke:none" />
      <path
         inkscape:connector-curvature="0"
         id="path3815"
         d="m -77.800436,331.87092 c 34.27603,-17.60949 63.52288,-18.17545 97.116611,-1.87933 4.382901,2.12612 8.297946,4.26214 8.700102,4.74671 0.581118,0.7002 -0.113222,5.01621 -3.382998,21.02868 l -4.114189,20.14766 -2.155993,-0.32438 c -1.185795,-0.17842 -6.256482,-1.05849 -11.268193,-1.95572 -8.034019,-1.43831 -11.160745,-1.66781 -26.42538,-1.93965 -23.28182,-0.41461 -36.90106,0.56846 -53.29282,3.84681 -1.87855,0.37571 -1.93156,0.32236 -2.85668,-2.87501 -1.14719,-3.9649 -7.63591,-35.34976 -7.63591,-36.93364 0,-0.80914 1.51364,-1.90892 5.31545,-3.86213 l 0,0 z"
         style="fill:#333333;fill-opacity:1;fill-rule:nonzero;stroke:none" />
      <path
         inkscape:connector-curvature="0"
         id="path3817"
         d="m -66.555996,520.10849 c 0.25392,-10.66714 0.60005,-19.53318 0.76919,-19.70232 0.16914,-0.16914 7.47895,0.0189 16.24403,0.41793 24.40523,1.11095 39.30696,0.88311 56.170664,-0.85885 3.688694,-0.38103 3.800991,-0.34985 4.398188,1.22089 0.337064,0.88655 0.796332,11.02954 1.020595,22.53999 l 0.407752,20.92808 -3.939305,1.78617 c -10.283156,4.66261 -17.200026,6.09628 -31.575584,6.54476 -16.78098,0.52352 -26.97411,-1.0194 -38.05447,-5.76026 l -5.29525,-2.26563 -0.30374,-2.72798 c -0.16705,-1.5004 -0.096,-11.45565 0.15793,-22.12278 l 0,0 z"
         style="fill:#333333;fill-opacity:1;fill-rule:nonzero;stroke:none" />
      <path
         inkscape:connector-curvature="0"
         id="path3819"
         d="m 28.134962,423.47459 c 0.937506,-16.70903 4.840266,-45.97199 7.89933,-59.2293 l 0.770953,-3.34114 0.49323,3.0374 c 0.271277,1.67057 0.659654,20.83355 0.863061,42.58441 l 0.369832,39.54702 -1.973996,0.39479 c -1.085697,0.21714 -3.580021,0.3948 -5.542941,0.3948 l -3.568945,0 0.08911,-7.13789 c 0.049,-3.92584 0.319175,-11.23838 0.60037,-16.25009 z"
         style="fill:#333333;fill-opacity:1;fill-rule:nonzero;stroke:none" />
      <path
         inkscape:connector-curvature="0"
         id="path3821"
         d="m 32.729811,463.50413 c 1.904037,0.22378 3.603146,0.54814 3.775798,0.72079 0.697223,0.69723 -2.869536,31.37932 -3.595642,30.93056 -0.576175,-0.35609 -3.642041,-26.84303 -3.642041,-31.46467 0,-0.36458 1.3355,-0.43659 3.461885,-0.18668 z"
         style="fill:#333333;fill-opacity:1;fill-rule:nonzero;stroke:none" />
      <path
         inkscape:connector-curvature="0"
         id="path3823"
         d="m -92.776556,382.16595 c 0.2596,-9.3552 0.71296,-18.10291 1.00746,-19.43936 0.50389,-2.28665 0.63124,-1.92845 2.1598,6.0748 3.93713,20.61418 7.63875,56.19086 7.69532,73.96069 l 0.013,4.10049 -5.77106,0 -5.77106,0 0.0972,-23.84359 c 0.0535,-13.11398 0.30965,-31.49784 0.56925,-40.85303 z"
         style="fill:#333333;fill-opacity:1;fill-rule:nonzero;stroke:none" />
      <path
         inkscape:connector-curvature="0"
         id="path3825"
         d="m -89.114746,463.64421 c 1.0441,-0.20882 2.69787,-0.37968 3.67504,-0.37968 l 1.77667,0 -0.34556,3.49301 c -1.64996,16.67788 -2.88493,27.11489 -3.34325,28.25469 -0.30078,0.74798 -0.56419,1.05343 -0.58537,0.67876 -0.0212,-0.37466 -0.72192,-6.05525 -1.55721,-12.62353 -0.83528,-6.56828 -1.5187,-13.54011 -1.5187,-15.49295 0,-3.49072 0.032,-3.55703 1.89838,-3.9303 z"
         style="fill:#333333;fill-opacity:1;fill-rule:nonzero;stroke:none" />
      <path
         inkscape:connector-curvature="0"
         id="path3827"
         d="m 26.028033,261.37866 c 0.80866,-0.80866 2.885814,-0.37193 5.490184,1.15434 6.366158,3.73081 8.772802,12.21058 2.823535,9.94867 -4.5538,-1.73135 -10.176387,-9.24034 -8.313719,-11.10301 z"
         style="fill:#b3b3b3;fill-opacity:1;fill-rule:nonzero;stroke:none" />
      <path
         inkscape:connector-curvature="0"
         id="path3829"
         d="m -90.463726,266.61759 c 4.14294,-5.71916 11.75457,-7.50218 9.77261,-2.28922 -1.65516,4.3534 -7.98443,9.42068 -10.54133,8.4395 -1.54921,-0.59448 -1.19333,-3.44175 0.76872,-6.15028 z"
         style="fill:#b3b3b3;fill-opacity:1;fill-rule:nonzero;stroke:none" />
      <path
         inkscape:connector-curvature="0"
         id="path3831"
         d="m 21.444669,573.58229 c 4.44619,-5.05114 10.230397,-6.74821 11.851855,-3.47729 1.938241,3.90994 -5.071069,11.01066 -10.868922,11.01066 -4.285452,0 -4.715158,-3.29334 -0.982933,-7.53337 l 0,0 z"
         style="fill:#333333;fill-opacity:1;fill-rule:nonzero;stroke:none" />
      <path
         inkscape:connector-curvature="0"
         id="path3833"
         d="m -87.085566,569.15751 c 2.81409,-1.34195 5.87212,-0.43244 9.6107,2.85839 3.46114,3.04662 4.70325,6.18775 3.13297,7.92289 -2.8028,3.09707 -10.76953,-0.49839 -13.66047,-6.1651 -1.59287,-3.12229 -1.52769,-3.45049 0.9168,-4.61618 z"
         style="fill:#333333;fill-opacity:1;fill-rule:nonzero;stroke:none" />
      <path
         inkscape:connector-curvature="0"
         id="path3837"
         d="m -91.408466,451.97724 c 1.41416,-0.54266 9.20714,0.017 9.14041,0.65639 -0.0896,0.85842 -4.31687,1.47764 -7.37824,1.08077 -2.54945,-0.3305 -3.35596,-1.12556 -1.76217,-1.73716 z"
         style="fill:#ff0000;fill-opacity:1;fill-rule:nonzero;stroke:none" />
      <path
         inkscape:connector-curvature="0"
         id="path3839"
         d="m 27.840348,452.13752 c 0.679773,-0.67977 9.216775,-0.47391 9.653537,0.23279 0.667656,1.08029 -0.05689,1.28893 -4.574206,1.31721 -4.048607,0.0254 -6.045352,-0.58397 -5.079331,-1.55 z"
         style="fill:#ff0000;fill-opacity:1;fill-rule:nonzero;stroke:none" />
      <path
         inkscape:connector-curvature="0"
         id="path3841"
         d="m -67.230956,314.83698 c 6.5962,-3.1491 13.34624,-5.36573 20.94416,-6.8778 4.23946,-0.8437 8.24507,-1.06081 18.75534,-1.01655 14.63515,0.0616 21.204238,0.85101 29.078375,3.49427 5.32125,1.78629 16.51892,6.89488 16.078484,7.33532 -0.162211,0.16221 -2.627698,-0.64572 -5.478862,-1.79541 -5.982277,-2.41224 -16.853786,-5.37471 -23.883517,-6.5082 -7.07395,-1.14063 -26.55998,-0.96865 -33.4114,0.29488 -6.92941,1.27791 -14.90347,3.5856 -21.76545,6.29893 -2.94993,1.16643 -5.5062,1.97809 -5.68062,1.80367 -0.17442,-0.17442 2.23915,-1.53752 5.36349,-3.02911 l 0,0 z"
         style="fill:#800000;fill-opacity:1;fill-rule:nonzero;stroke:none" />
      <path
         inkscape:connector-curvature="0"
         id="path3843"
         d="m 43.596268,353.91813 c 1.070932,0 6.483427,3.68992 6.049294,4.12405 -0.716137,0.71614 -5.839794,-0.63693 -6.404015,-1.69118 -0.871113,-1.62769 -0.753714,-2.43287 0.354721,-2.43287 z"
         style="fill:#800000;fill-opacity:1;fill-rule:nonzero;stroke:none" />
      <path
         inkscape:connector-curvature="0"
         id="path3845"
         d="m -101.9966,355.84578 c 2.822774,-2.04481 4.908674,-2.49517 4.908674,-1.05983 0,1.36687 -1.6754,2.69442 -3.935544,3.11842 -3.48859,0.65447 -3.80229,-0.009 -0.97313,-2.05859 z"
         style="fill:#800000;fill-opacity:1;fill-rule:nonzero;stroke:none" />
      <path
         inkscape:connector-curvature="0"
         id="path3847"
         d="m -27.227716,592.65778 13.97204,0 0,2.42992 0,2.42992 -13.97204,0 -13.97204,0 0,-2.42992 0,-2.42992 13.97204,0 z"
         style="fill:#333333;fill-opacity:1;fill-rule:nonzero;stroke:none" />
      <path
         inkscape:connector-curvature="0"
         id="path3849"
         d="m -29.909286,252.1043 c 1.71375,-0.71605 2.60912,-0.76795 4.19864,-0.24336 3.87291,1.27818 2.87447,4.5875 -1.35064,4.47671 -4.94881,-0.12976 -6.64281,-2.64778 -2.848,-4.23335 z"
         style="fill:#333333;fill-opacity:1;fill-rule:nonzero;stroke:none" />
    </g>
    <g
       id="g3290">
      <path
         sodipodi:nodetypes="csssssssccccssssssssscsssccccc"
         inkscape:connector-curvature="0"
         id="path2995-0-6"
         d="m 220.24675,347.41634 c 0.21347,-0.21346 -0.83244,-10.20813 -0.63213,-30.24633 0.39411,-39.42389 0.7077,-42.12842 6.1691,-53.20547 7.54951,-15.31223 18.46138,-22.2265 43.99957,-27.88018 8.48437,-1.87828 13.03127,-2.21364 30,-2.21265 20.54057,0.001 29.43312,1.20193 45,6.07617 13.1658,4.12242 22.18726,11.36125 28.04532,22.50358 6.47518,12.31613 6.44958,14.39386 6.85447,54.85406 0.21518,21.50326 1.28825,34.61688 -1.31147,35.50778 2.90019,2.3209 4.84571,4.5111 4.91168,8.2778 0.0488,3.5951 -0.80042,2.8189 -4.13083,2.8551 l -4.13083,-0.5541 0.65374,13.1724 c 0.92986,18.736 1.01094,87.612 0.1146,97.3525 -0.67708,7.3579 -0.52441,8.6518 1.51892,12.8728 2.26547,4.6798 2.26972,4.7783 1.5572,36.1118 -0.88129,38.7549 -1.65034,46.9091 -5.08657,53.9325 -5.1578,10.5422 -19.62073,19.9884 -35.17168,22.9717 -19.75433,3.7898 -57.91087,3.7903 -77.6491,10e-4 -17.01124,-3.2657 -32.03615,-13.8998 -36.5015,-25.8345 -1.84374,-4.9279 -2.29454,-9.2159 -3.15315,-29.9927 -0.55102,-13.3335 -1.00611,-30.7851 -1.01132,-38.7813 -0.008,-12.762 0.24307,-15.0226 2.05732,-18.5 1.76576,-3.3844 1.96706,-4.981 1.38208,-10.9614 -0.85276,-8.718 -0.73414,-87.1685 0.15385,-101.7507 l 0.65467,-10.7508 -3.07232,0.6145 c -4.7317,-0.032 -3.78247,-1.407 -3.03322,-4.4281 0.64799,-2.6966 2.7955,-5.5208 3.00897,-5.7343 -1.51889,-0.9338 -0.97533,-3.89872 -1.19737,-6.27116 z"
         style="fill:#000000" />
      <path
         inkscape:connector-curvature="0"
         id="path3019-3"
         d="m 255.08187,383.71422 c 11.34962,-3.68633 25.16103,-4.88592 51.23522,-4.45003 20.33736,0.33999 23.71025,0.67236 35.68945,3.51682 6.6241,1.57289 6.17799,0.16268 4.39833,13.90371 -1.31635,10.16378 -2.10419,26.96871 -2.99601,63.9068 -0.33502,13.87622 -0.82505,23.99042 -1.19589,24.68335 -0.88803,1.6593 -1.71862,1.8752 -11.27566,2.93095 -11.88475,1.3129 -49.50529,1.3129 -61.39004,0 -9.57999,-1.05828 -10.38641,-1.26937 -11.2885,-2.95494 -0.39527,-0.73857 -0.95995,-13.81465 -1.47255,-34.09928 -0.45729,-18.09574 -0.9969,-35.36163 -1.19915,-38.36866 -0.34467,-5.12465 -2.33898,-21.97299 -3.102,-26.20641 -0.33031,-1.83268 -0.22883,-1.94454 2.5968,-2.86231 l 0,0 z"
         style="fill:#00ff00;fill-opacity:1;fill-rule:nonzero;stroke:none" />
      <path
         inkscape:connector-curvature="0"
         id="path3789-8"
         d="m 243.99749,308.05338 c 6.51134,-19.48432 9.40191,-26.9871 14.08789,-36.56657 6.29096,-12.86053 9.47601,-15.82143 19.75929,-18.3688 5.09826,-1.26294 12.48027,-1.82585 13.73936,-1.04768 0.34281,0.21186 0.80374,1.34708 1.02428,2.52269 0.58412,3.11364 2.67312,4.2515 7.80831,4.25314 3.82778,10e-4 4.30427,-0.14246 5.64795,-1.70311 0.95988,-1.11488 1.46748,-2.4553 1.46748,-3.87519 l 0,-2.17075 5.01171,0.42362 c 16.3886,1.38524 23.10179,5.58401 28.98096,18.12615 6.26693,13.36937 13.07235,31.67856 18.5411,49.88266 1.19357,3.97308 2.05772,7.33619 1.92033,7.47358 -0.13738,0.13738 -0.81936,-0.67181 -1.51552,-1.7982 -2.03806,-3.29766 -7.93338,-8.5237 -12.84312,-11.38507 -7.86906,-4.58605 -19.7815,-8.84021 -29.07074,-10.38172 -5.29433,-0.87857 -29.34117,-0.85722 -35.9314,0.0319 -15.74308,2.12398 -31.33772,9.4502 -40.5493,19.04969 -2.08821,2.17615 -3.78912,3.6386 -3.7798,3.24988 0.009,-0.38873 2.57487,-8.36103 5.70122,-17.71622 z"
         style="fill:#00ff00;fill-opacity:1;fill-rule:nonzero;stroke:none" />
      <path
         sodipodi:nodetypes="cscsssscssssssccc"
         inkscape:connector-curvature="0"
         id="path3791-8"
         d="m 258.41246,551.59703 c 6.3065,2.94667 13.88695,5.45784 21.01611,6.96198 3.82403,0.80681 4.73314,1.21758 4.88272,2.20621 0.78676,5.19961 1.58559,5.47275 15.931,5.44706 12.93173,-0.0232 14.75347,-0.47473 15.07024,-3.73561 0.24935,-2.56682 0.82224,-2.93045 6.42532,-4.07839 5.93426,-1.21579 14.94236,-4.29491 21.2507,-7.26384 l 4.77875,-2.24906 -0.41624,2.29497 c -1.03981,5.73317 -7.00655,15.28112 -14.00111,22.40451 -8.00019,8.14754 -11.35124,9.05032 -33.4114,9.00106 -19.46661,-0.0435 -21.93645,-0.47608 -28.55156,-5.00104 -3.09055,-2.11404 -5.37594,-4.39418 -8.36477,-8.34558 -4.55941,-6.02776 -9.22207,-14.54415 -9.87197,-18.03121 l -0.42256,-2.26722 5.68477,2.65616 z"
         style="fill:#00ff00;fill-opacity:1;fill-rule:nonzero;stroke:none" />
      <path
         inkscape:connector-curvature="0"
         id="path3795-5"
         d="m 350.67672,409.19881 c 3.85834,-30.41107 12.415,-74.11257 14.51108,-74.11257 0.86254,0 2.00659,1.72926 1.59,2.40331 -0.21554,0.34875 -0.7646,0.63409 -1.22014,0.63409 -1.05341,0 -1.5921,1.74639 -4.21613,13.6683 -5.02728,22.84074 -8.16628,43.39035 -9.46497,61.96297 -0.81773,11.69438 -0.81689,53.50335 0.001,63.7854 1.85101,23.2617 6.33554,44.04231 9.50448,44.04231 0.76205,0 0.89417,0.40319 0.60534,1.84733 -0.3634,1.81703 -6.1079,17.10196 -8.43802,22.45187 -1.13364,2.6028 -1.21706,2.66469 -1.74268,1.29269 -1.03504,-2.7017 -1.73572,-30.08549 -2.03048,-79.35388 -0.27722,-46.3381 -0.22475,-49.75465 0.90025,-58.62182 l 0,0 z"
         style="fill:#00ff00;fill-opacity:1;fill-rule:nonzero;stroke:none" />
      <path
         inkscape:connector-curvature="0"
         id="path3797-8"
         d="m 234.14846,335.20774 c 0.71157,-0.71157 2.30842,-1.01577 2.30842,-0.43975 0,0.15907 1.22084,5.99943 2.71298,12.97858 8.24272,38.55356 10.91456,58.56617 11.84488,88.72051 0.72935,23.64063 -0.66933,92.84304 -2.18597,108.15438 -0.34561,3.48914 -0.47455,3.78298 -1.21537,2.76984 -1.47613,-2.01874 -9.33408,-23.07473 -9.33408,-25.01142 0,-0.43849 0.40303,-0.79726 0.89562,-0.79726 1.80645,0 3.52254,-5.34273 6.04881,-18.83188 3.03846,-16.22395 3.48345,-22.2792 3.81979,-51.97807 0.35182,-31.06481 -0.0554,-39.41446 -2.87318,-58.9154 -4.37,-30.24319 -9.29766,-52.27861 -12.07456,-53.99482 -0.88456,-0.54669 -0.86087,-1.74118 0.0527,-2.65471 z"
         style="fill:#00ff00;fill-opacity:1;fill-rule:nonzero;stroke:none" />
      <path
         inkscape:connector-curvature="0"
         id="path3799-7"
         d="m 352.73181,276.76816 c 0.11554,0 1.81594,0.71309 3.77867,1.58464 5.0066,2.2232 9.85039,2.59575 12.60648,0.96962 2.46392,-1.45375 2.81711,-1.21775 4.43823,2.96551 0.92406,2.38451 1.06036,6.24406 1.23164,34.87765 0.13276,22.19185 -0.001,31.8788 -0.43075,31.1742 -0.34285,-0.56223 -1.71816,-5.56895 -3.05625,-11.12604 -4.17684,-17.34639 -9.74974,-35.69227 -16.28544,-53.61143 -1.37095,-3.75878 -2.39811,-6.83415 -2.28258,-6.83415 z"
         style="fill:#00ff00;fill-opacity:1;fill-rule:nonzero;stroke:none" />
      <path
         inkscape:connector-curvature="0"
         id="path3801-8"
         d="m 225.5021,297.11874 c 0.32774,-11.62637 0.48581,-13.03976 1.78339,-15.94635 0.78307,-1.7541 1.5736,-3.18927 1.75674,-3.18927 0.18313,0 0.86236,0.47839 1.5094,1.06309 1.94351,1.75627 9.00905,1.43357 13.17158,-0.60157 1.82475,-0.89215 3.42082,-1.51899 3.54683,-1.39298 0.12601,0.12601 -1.56144,5.37607 -3.74988,11.66679 -6.43854,18.50775 -9.71546,29.44504 -14.03398,46.84092 -1.46986,5.92089 -2.91809,11.4272 -3.21827,12.23624 -0.36632,0.98726 -0.67855,-3.09024 -0.94947,-12.39965 -0.42102,-14.46653 -0.40737,-17.31053 0.18366,-38.27722 z"
         style="fill:#00ff00;fill-opacity:1;fill-rule:nonzero;stroke:none" />
      <path
         inkscape:connector-curvature="0"
         id="path3803-4"
         d="m 225.83762,493.14395 c 0.17347,0.17346 1.1309,4.11448 2.12765,8.75783 3.53172,16.45261 11.79865,40.35334 18.99423,54.91468 2.06381,4.17643 3.84663,7.79389 3.96183,8.03881 0.1152,0.24493 -0.84051,0.0749 -2.12381,-0.37791 -7.82403,-2.76048 -15.31703,-0.75827 -15.39988,4.11502 -0.02,1.17582 -0.14527,1.13392 -1.47569,-0.49356 -4.03833,-4.94006 -4.74415,-10.32405 -5.77956,-44.08628 -0.69199,-22.56431 -0.77866,-31.34249 -0.30477,-30.86859 z"
         style="fill:#00ff00;fill-opacity:1;fill-rule:nonzero;stroke:none" />
      <path
         inkscape:connector-curvature="0"
         id="path3805-7"
         d="m 354.35406,552.86784 c 4.15152,-7.99596 6.25183,-13.00118 9.30431,-22.17302 4.39135,-13.19473 9.23977,-29.68141 10.09363,-34.32262 0.71845,-3.90521 0.21857,42.04512 -0.59369,54.57319 -0.59277,9.14275 -1.48344,12.4542 -4.65744,17.31609 l -0.92807,1.42159 -1.0132,-2.01697 c -1.62946,-3.24373 -4.49101,-4.77484 -8.9239,-4.77484 -2.08033,0 -4.91025,0.39793 -6.28871,0.88427 -1.85968,0.65614 -2.48676,0.69532 -2.43056,0.15187 0.0417,-0.40282 2.48859,-5.37962 5.43763,-11.05956 z"
         style="fill:#00ff00;fill-opacity:1;fill-rule:nonzero;stroke:none" />
      <path
         inkscape:connector-curvature="0"
         id="path3807-0"
         d="m 318.87431,590.06403 c 0.27698,-0.16217 2.13557,-0.76349 4.1302,-1.33628 4.69921,-1.34943 7.2843,-2.69639 12.55373,-6.54109 4.10681,-2.99643 4.34707,-3.08931 5.15023,-1.99092 0.46336,0.63368 0.84246,1.62433 0.84246,2.20144 0,1.9143 4.14857,3.87487 8.20099,3.87571 4.44832,9.1e-4 8.62678,-1.88557 13.96695,-6.30577 2.00188,-1.65701 3.77876,-2.86849 3.94862,-2.69217 0.16985,0.17631 -1.67446,2.18334 -4.09847,4.46006 -5.17776,4.86312 -13.65626,9.36042 -22.32183,11.84029 -5.17544,1.48108 -21.20266,3.92088 -21.77069,3.31412 -0.55647,-0.59441 -1.08146,-6.54478 -0.60219,-6.82539 l 0,0 z"
         style="fill:#008000;fill-opacity:1;fill-rule:nonzero;stroke:none" />
      <path
         inkscape:connector-curvature="0"
         id="path3809-8"
         d="m 235.25286,578.78657 c 4.62463,3.83739 8.19885,6.01138 11.45595,6.96799 5.7622,1.69235 10.79661,0.0187 12.42671,-4.13109 0.50344,-1.28164 1.17586,-2.33025 1.49427,-2.33025 0.3184,0 2.3223,1.4043 4.4531,3.12067 4.39469,3.53994 8.34575,5.48077 13.50355,6.63318 l 3.55457,0.7942 -0.35862,2.16761 c -0.19724,1.19218 -0.36162,2.82038 -0.3653,3.61822 -0.007,1.43938 -0.0432,1.44744 -4.71465,1.03955 -12.33824,-1.07732 -23.49269,-4.09965 -31.35231,-8.495 -2.27275,-1.271 -6.02359,-4.09507 -8.3352,-6.27573 -4.53778,-4.2807 -5.74854,-6.41721 -1.76207,-3.10935 l 0,0 z"
         style="fill:#008000;fill-opacity:1;fill-rule:nonzero;stroke:none" />
      <path
         inkscape:connector-curvature="0"
         id="path3811-1"
         d="m 240.81688,253.83639 c 6.37414,-5.32578 13.82559,-8.64679 24.79904,-11.05258 10.98925,-2.40926 15.61843,-2.76896 35.23385,-2.73774 16.76062,0.0267 20.07808,0.19313 26.72912,1.34122 15.71014,2.71185 25.52535,6.64726 32.48572,13.02517 2.20692,2.02225 3.92321,3.76619 3.81396,3.87543 -0.10924,0.10925 -1.58541,-0.48769 -3.28038,-1.32652 -6.18941,-3.0631 -12.77235,-2.27362 -14.68857,1.76157 l -0.80628,1.69789 -1.67665,-2.30537 c -2.28074,-3.13599 -6.15546,-6.54081 -9.22643,-8.1075 -4.27587,-2.18139 -13.56497,-4.18399 -22.81276,-4.91812 -9.81847,-0.77944 -27.76041,0.0405 -34.91944,1.59576 -8.73682,1.89805 -15.18574,5.46802 -18.68848,10.3455 -1.07736,1.50019 -2.14687,2.71709 -2.37669,2.70422 -0.22983,-0.0129 -0.9646,-0.88433 -1.63283,-1.93659 -0.68328,-1.07596 -2.01247,-2.13598 -3.0374,-2.42232 -2.54754,-0.71171 -8.34442,0.0243 -11.04825,1.40283 -2.58684,1.31885 -2.62005,1.3274 -2.62005,0.67476 0,-0.26526 1.68863,-1.89318 3.75252,-3.61761 l 0,0 z"
         style="fill:#008000;fill-opacity:1;fill-rule:nonzero;stroke:none" />
      <path
         inkscape:connector-curvature="0"
         id="path3815-4"
         d="m 249.66957,331.87092 c 34.27603,-17.60949 63.52288,-18.17545 97.11661,-1.87933 4.38291,2.12612 8.29795,4.26214 8.70011,4.74671 0.58111,0.7002 -0.11323,5.01621 -3.383,21.02868 l -4.11419,20.14766 -2.15599,-0.32438 c -1.1858,-0.17842 -6.25649,-1.05849 -11.2682,-1.95572 -8.03402,-1.43831 -11.16074,-1.66781 -26.42538,-1.93965 -23.28182,-0.41461 -36.90106,0.56846 -53.29282,3.84681 -1.87855,0.37571 -1.93156,0.32236 -2.85668,-2.87501 -1.14719,-3.9649 -7.63591,-35.34976 -7.63591,-36.93364 0,-0.80914 1.51364,-1.90892 5.31545,-3.86213 l 0,0 z"
         style="fill:#333333;fill-opacity:1;fill-rule:nonzero;stroke:none" />
      <path
         inkscape:connector-curvature="0"
         id="path3817-7"
         d="m 260.91401,520.10849 c 0.25392,-10.66714 0.60005,-19.53318 0.76919,-19.70232 0.16914,-0.16914 7.47895,0.0189 16.24403,0.41793 24.40523,1.11095 39.30696,0.88311 56.17067,-0.85885 3.68869,-0.38103 3.80099,-0.34985 4.39819,1.22089 0.33706,0.88655 0.79633,11.02954 1.02059,22.53999 l 0.40775,20.92808 -3.9393,1.78617 c -10.28316,4.66261 -17.20003,6.09628 -31.57559,6.54476 -16.78098,0.52352 -26.97411,-1.0194 -38.05447,-5.76026 l -5.29525,-2.26563 -0.30374,-2.72798 c -0.16705,-1.5004 -0.096,-11.45565 0.15793,-22.12278 l 0,0 z"
         style="fill:#333333;fill-opacity:1;fill-rule:nonzero;stroke:none" />
      <path
         inkscape:connector-curvature="0"
         id="path3819-1"
         d="m 355.60497,423.47459 c 0.93751,-16.70903 4.84027,-45.97199 7.89933,-59.2293 l 0.77095,-3.34114 0.49323,3.0374 c 0.27128,1.67057 0.65966,20.83355 0.86307,42.58441 l 0.36983,39.54702 -1.974,0.39479 c -1.0857,0.21714 -3.58002,0.3948 -5.54294,0.3948 l -3.56894,0 0.0891,-7.13789 c 0.049,-3.92584 0.31917,-11.23838 0.60037,-16.25009 z"
         style="fill:#333333;fill-opacity:1;fill-rule:nonzero;stroke:none" />
      <path
         inkscape:connector-curvature="0"
         id="path3821-7"
         d="m 360.19982,463.50413 c 1.90404,0.22378 3.60315,0.54814 3.7758,0.72079 0.69722,0.69723 -2.86954,31.37932 -3.59564,30.93056 -0.57618,-0.35609 -3.64204,-26.84303 -3.64204,-31.46467 0,-0.36458 1.3355,-0.43659 3.46188,-0.18668 z"
         style="fill:#333333;fill-opacity:1;fill-rule:nonzero;stroke:none" />
      <path
         inkscape:connector-curvature="0"
         id="path3823-7"
         d="m 234.69345,382.16595 c 0.2596,-9.3552 0.71296,-18.10291 1.00746,-19.43936 0.50389,-2.28665 0.63124,-1.92845 2.1598,6.0748 3.93713,20.61418 7.63875,56.19086 7.69532,73.96069 l 0.013,4.10049 -5.77106,0 -5.77106,0 0.0972,-23.84359 c 0.0535,-13.11398 0.30965,-31.49784 0.56925,-40.85303 z"
         style="fill:#333333;fill-opacity:1;fill-rule:nonzero;stroke:none" />
      <path
         inkscape:connector-curvature="0"
         id="path3825-7"
         d="m 238.35526,463.64421 c 1.0441,-0.20882 2.69787,-0.37968 3.67504,-0.37968 l 1.77667,0 -0.34556,3.49301 c -1.64996,16.67788 -2.88493,27.11489 -3.34325,28.25469 -0.30078,0.74798 -0.56419,1.05343 -0.58537,0.67876 -0.0212,-0.37466 -0.72192,-6.05525 -1.55721,-12.62353 -0.83528,-6.56828 -1.5187,-13.54011 -1.5187,-15.49295 0,-3.49072 0.032,-3.55703 1.89838,-3.9303 z"
         style="fill:#333333;fill-opacity:1;fill-rule:nonzero;stroke:none" />
      <path
         inkscape:connector-curvature="0"
         id="path3827-6"
         d="m 353.49804,261.37866 c 0.80866,-0.80866 2.88582,-0.37193 5.49019,1.15434 6.36615,3.73081 8.7728,12.21058 2.82353,9.94867 -4.5538,-1.73135 -10.17639,-9.24034 -8.31372,-11.10301 z"
         style="fill:#b3b3b3;fill-opacity:1;fill-rule:nonzero;stroke:none" />
      <path
         inkscape:connector-curvature="0"
         id="path3829-7"
         d="m 237.00628,266.61759 c 4.14294,-5.71916 11.75457,-7.50218 9.77261,-2.28922 -1.65516,4.3534 -7.98443,9.42068 -10.54133,8.4395 -1.54921,-0.59448 -1.19333,-3.44175 0.76872,-6.15028 z"
         style="fill:#b3b3b3;fill-opacity:1;fill-rule:nonzero;stroke:none" />
      <path
         inkscape:connector-curvature="0"
         id="path3831-7"
         d="m 348.91468,573.58229 c 4.44619,-5.05114 10.2304,-6.74821 11.85185,-3.47729 1.93824,3.90994 -5.07107,11.01066 -10.86892,11.01066 -4.28545,0 -4.71516,-3.29334 -0.98293,-7.53337 l 0,0 z"
         style="fill:#333333;fill-opacity:1;fill-rule:nonzero;stroke:none" />
      <path
         inkscape:connector-curvature="0"
         id="path3833-8"
         d="m 240.38444,569.15751 c 2.81409,-1.34195 5.87212,-0.43244 9.6107,2.85839 3.46114,3.04662 4.70325,6.18775 3.13297,7.92289 -2.8028,3.09707 -10.76953,-0.49839 -13.66047,-6.1651 -1.59287,-3.12229 -1.52769,-3.45049 0.9168,-4.61618 z"
         style="fill:#333333;fill-opacity:1;fill-rule:nonzero;stroke:none" />
      <path
         inkscape:connector-curvature="0"
         id="path3837-2"
         d="m 236.06154,451.97724 c 1.41416,-0.54266 9.20714,0.017 9.14041,0.65639 -0.0896,0.85842 -4.31687,1.47764 -7.37824,1.08077 -2.54945,-0.3305 -3.35596,-1.12556 -1.76217,-1.73716 z"
         style="fill:#00ff00;fill-opacity:1;fill-rule:nonzero;stroke:none" />
      <path
         inkscape:connector-curvature="0"
         id="path3839-0"
         d="m 355.31036,452.13752 c 0.67977,-0.67977 9.21677,-0.47391 9.65353,0.23279 0.66766,1.08029 -0.0569,1.28893 -4.5742,1.31721 -4.04861,0.0254 -6.04535,-0.58397 -5.07933,-1.55 z"
         style="fill:#00ff00;fill-opacity:1;fill-rule:nonzero;stroke:none" />
      <path
         inkscape:connector-curvature="0"
         id="path3841-9"
         d="m 260.23905,314.83698 c 6.5962,-3.1491 13.34624,-5.36573 20.94416,-6.8778 4.23946,-0.8437 8.24507,-1.06081 18.75534,-1.01655 14.63515,0.0616 21.20424,0.85101 29.07838,3.49427 5.32125,1.78629 16.51892,6.89488 16.07848,7.33532 -0.16221,0.16221 -2.6277,-0.64572 -5.47886,-1.79541 -5.98228,-2.41224 -16.85379,-5.37471 -23.88352,-6.5082 -7.07395,-1.14063 -26.55998,-0.96865 -33.4114,0.29488 -6.92941,1.27791 -14.90347,3.5856 -21.76545,6.29893 -2.94993,1.16643 -5.5062,1.97809 -5.68062,1.80367 -0.17442,-0.17442 2.23915,-1.53752 5.36349,-3.02911 l 0,0 z"
         style="fill:#008000;fill-opacity:1;fill-rule:nonzero;stroke:none" />
      <path
         inkscape:connector-curvature="0"
         id="path3843-9"
         d="m 371.06628,353.91813 c 1.07093,0 6.48342,3.68992 6.04929,4.12405 -0.71614,0.71614 -5.83979,-0.63693 -6.40401,-1.69118 -0.87112,-1.62769 -0.75372,-2.43287 0.35472,-2.43287 z"
         style="fill:#008000;fill-opacity:1;fill-rule:nonzero;stroke:none" />
      <path
         inkscape:connector-curvature="0"
         id="path3845-7"
         d="m 225.47341,355.84578 c 2.82277,-2.04481 4.90867,-2.49517 4.90867,-1.05983 0,1.36687 -1.6754,2.69442 -3.93554,3.11842 -3.48859,0.65447 -3.80229,-0.009 -0.97313,-2.05859 z"
         style="fill:#008000;fill-opacity:1;fill-rule:nonzero;stroke:none" />
      <path
         inkscape:connector-curvature="0"
         id="path3847-3"
         d="m 300.24229,592.65778 13.97204,0 0,2.42992 0,2.42992 -13.97204,0 -13.97204,0 0,-2.42992 0,-2.42992 13.97204,0 z"
         style="fill:#333333;fill-opacity:1;fill-rule:nonzero;stroke:none" />
      <path
         inkscape:connector-curvature="0"
         id="path3849-5"
         d="m 297.56072,252.1043 c 1.71375,-0.71605 2.60912,-0.76795 4.19864,-0.24336 3.87291,1.27818 2.87447,4.5875 -1.35064,4.47671 -4.94881,-0.12976 -6.64281,-2.64778 -2.848,-4.23335 z"
         style="fill:#333333;fill-opacity:1;fill-rule:nonzero;stroke:none" />
    </g>
    <g
       id="g3322">
      <path
         sodipodi:nodetypes="csssssssccccssssssssscsssccccc"
         inkscape:connector-curvature="0"
         id="path2995-0-2"
         d="m 547.71676,347.41634 c 0.21347,-0.21346 -0.83244,-10.20813 -0.63213,-30.24633 0.39411,-39.42389 0.7077,-42.12842 6.1691,-53.20547 7.54951,-15.31223 18.46138,-22.2265 43.99957,-27.88018 8.48437,-1.87828 13.03127,-2.21364 30,-2.21265 20.54058,0.001 29.43313,1.20193 45.00001,6.07617 13.1658,4.12242 22.18726,11.36125 28.04532,22.50358 6.47518,12.31613 6.44958,14.39386 6.85447,54.85406 0.21518,21.50326 1.28825,34.61688 -1.31147,35.50778 2.90019,2.3209 4.84571,4.5111 4.91168,8.2778 0.0488,3.5951 -0.80042,2.8189 -4.13083,2.8551 l -4.13083,-0.5541 0.65374,13.1724 c 0.92986,18.736 1.01094,87.612 0.1146,97.3525 -0.67708,7.3579 -0.52441,8.6518 1.51892,12.8728 2.26547,4.6798 2.26972,4.7783 1.5572,36.1118 -0.88129,38.7549 -1.65034,46.9091 -5.08657,53.9325 -5.1578,10.5422 -19.62073,19.9884 -35.17168,22.9717 -19.75433,3.7898 -57.91088,3.7903 -77.64911,10e-4 -17.01124,-3.2657 -32.03615,-13.8998 -36.5015,-25.8345 -1.84374,-4.9279 -2.29454,-9.2159 -3.15315,-29.9927 -0.55102,-13.3335 -1.00611,-30.7851 -1.01132,-38.7813 -0.008,-12.762 0.24307,-15.0226 2.05732,-18.5 1.76576,-3.3844 1.96706,-4.981 1.38208,-10.9614 -0.85276,-8.718 -0.73414,-87.1685 0.15385,-101.7507 l 0.65467,-10.7508 -3.07232,0.6145 c -4.7317,-0.032 -3.78247,-1.407 -3.03322,-4.4281 0.64799,-2.6966 2.7955,-5.5208 3.00897,-5.7343 -1.51889,-0.9338 -0.97533,-3.89872 -1.19737,-6.27116 z"
         style="fill:#000000" />
      <path
         inkscape:connector-curvature="0"
         id="path3019-1"
         d="m 582.55188,383.71422 c 11.34962,-3.68633 25.16103,-4.88592 51.23522,-4.45003 20.33736,0.33999 23.71025,0.67236 35.68946,3.51682 6.62409,1.57289 6.17798,0.16268 4.39832,13.90371 -1.31635,10.16378 -2.10418,26.96871 -2.99601,63.9068 -0.33502,13.87622 -0.82505,23.99042 -1.19589,24.68335 -0.88803,1.6593 -1.71862,1.8752 -11.27566,2.93095 -11.88475,1.3129 -49.50529,1.3129 -61.39004,0 -9.57999,-1.05828 -10.38641,-1.26937 -11.2885,-2.95494 -0.39527,-0.73857 -0.95995,-13.81465 -1.47255,-34.09928 -0.45729,-18.09574 -0.9969,-35.36163 -1.19915,-38.36866 -0.34467,-5.12465 -2.33898,-21.97299 -3.102,-26.20641 -0.33031,-1.83268 -0.22883,-1.94454 2.5968,-2.86231 l 0,0 z"
         style="fill:#0066ff;fill-opacity:1;fill-rule:nonzero;stroke:none" />
      <path
         inkscape:connector-curvature="0"
         id="path3789-4"
         d="m 571.4675,308.05338 c 6.51134,-19.48432 9.40191,-26.9871 14.08789,-36.56657 6.29096,-12.86053 9.47601,-15.82143 19.75929,-18.3688 5.09826,-1.26294 12.48027,-1.82585 13.73936,-1.04768 0.34281,0.21186 0.80374,1.34708 1.02428,2.52269 0.58412,3.11364 2.67312,4.2515 7.80831,4.25314 3.82778,10e-4 4.30427,-0.14246 5.64795,-1.70311 0.95988,-1.11488 1.46748,-2.4553 1.46748,-3.87519 l 0,-2.17075 5.01171,0.42362 c 16.3886,1.38524 23.10179,5.58401 28.98096,18.12615 6.26693,13.36937 13.07236,31.67856 18.5411,49.88266 1.19357,3.97308 2.05772,7.33619 1.92033,7.47358 -0.13738,0.13738 -0.81936,-0.67181 -1.51551,-1.7982 -2.03807,-3.29766 -7.93339,-8.5237 -12.84312,-11.38507 -7.86907,-4.58605 -19.78151,-8.84021 -29.07075,-10.38172 -5.29433,-0.87857 -29.34117,-0.85722 -35.9314,0.0319 -15.74308,2.12398 -31.33772,9.4502 -40.5493,19.04969 -2.08821,2.17615 -3.78912,3.6386 -3.7798,3.24988 0.009,-0.38873 2.57487,-8.36103 5.70122,-17.71622 z"
         style="fill:#0066ff;fill-opacity:1;fill-rule:nonzero;stroke:none" />
      <path
         sodipodi:nodetypes="cscsssscssssssccc"
         inkscape:connector-curvature="0"
         id="path3791-4"
         d="m 585.88247,551.59703 c 6.3065,2.94667 13.88695,5.45784 21.01611,6.96198 3.82403,0.80681 4.73314,1.21758 4.88272,2.20621 0.78676,5.19961 1.58559,5.47275 15.931,5.44706 12.93173,-0.0232 14.75347,-0.47473 15.07024,-3.73561 0.24935,-2.56682 0.82224,-2.93045 6.42532,-4.07839 5.93426,-1.21579 14.94236,-4.29491 21.2507,-7.26384 l 4.77875,-2.24906 -0.41623,2.29497 c -1.03982,5.73317 -7.00656,15.28112 -14.00112,22.40451 -8.00019,8.14754 -11.35124,9.05032 -33.4114,9.00106 -19.46661,-0.0435 -21.93645,-0.47608 -28.55156,-5.00104 -3.09055,-2.11404 -5.37594,-4.39418 -8.36477,-8.34558 -4.55941,-6.02776 -9.22207,-14.54415 -9.87197,-18.03121 l -0.42256,-2.26722 5.68477,2.65616 z"
         style="fill:#0066ff;fill-opacity:1;fill-rule:nonzero;stroke:none" />
      <path
         inkscape:connector-curvature="0"
         id="path3795-1"
         d="m 678.14674,409.19881 c 3.85833,-30.41107 12.41499,-74.11257 14.51107,-74.11257 0.86254,0 2.00659,1.72926 1.59,2.40331 -0.21554,0.34875 -0.7646,0.63409 -1.22014,0.63409 -1.05341,0 -1.5921,1.74639 -4.21613,13.6683 -5.02728,22.84074 -8.16628,43.39035 -9.46497,61.96297 -0.81773,11.69438 -0.81689,53.50335 10e-4,63.7854 1.85101,23.2617 6.33554,44.04231 9.50448,44.04231 0.76205,0 0.89417,0.40319 0.60534,1.84733 -0.3634,1.81703 -6.1079,17.10196 -8.43802,22.45187 -1.13364,2.6028 -1.21706,2.66469 -1.74268,1.29269 -1.03503,-2.7017 -1.73572,-30.08549 -2.03048,-79.35388 -0.27722,-46.3381 -0.22475,-49.75465 0.90025,-58.62182 l 0,0 z"
         style="fill:#0066ff;fill-opacity:1;fill-rule:nonzero;stroke:none" />
      <path
         inkscape:connector-curvature="0"
         id="path3797-4"
         d="m 561.61847,335.20774 c 0.71157,-0.71157 2.30842,-1.01577 2.30842,-0.43975 0,0.15907 1.22084,5.99943 2.71298,12.97858 8.24272,38.55356 10.91456,58.56617 11.84488,88.72051 0.72935,23.64063 -0.66933,92.84304 -2.18597,108.15438 -0.34561,3.48914 -0.47455,3.78298 -1.21537,2.76984 -1.47613,-2.01874 -9.33408,-23.07473 -9.33408,-25.01142 0,-0.43849 0.40303,-0.79726 0.89562,-0.79726 1.80645,0 3.52254,-5.34273 6.04881,-18.83188 3.03846,-16.22395 3.48345,-22.2792 3.81979,-51.97807 0.35182,-31.06481 -0.0554,-39.41446 -2.87318,-58.9154 -4.37,-30.24319 -9.29766,-52.27861 -12.07456,-53.99482 -0.88456,-0.54669 -0.86087,-1.74118 0.0527,-2.65471 z"
         style="fill:#0066ff;fill-opacity:1;fill-rule:nonzero;stroke:none" />
      <path
         inkscape:connector-curvature="0"
         id="path3799-72"
         d="m 680.20182,276.76816 c 0.11554,0 1.81594,0.71309 3.77867,1.58464 5.0066,2.2232 9.85039,2.59575 12.60648,0.96962 2.46392,-1.45375 2.81711,-1.21775 4.43823,2.96551 0.92406,2.38451 1.06036,6.24406 1.23165,34.87765 0.13275,22.19185 -10e-4,31.8788 -0.43076,31.1742 -0.34285,-0.56223 -1.71816,-5.56895 -3.05625,-11.12604 -4.17684,-17.34639 -9.74974,-35.69227 -16.28544,-53.61143 -1.37095,-3.75878 -2.39811,-6.83415 -2.28258,-6.83415 z"
         style="fill:#0066ff;fill-opacity:1;fill-rule:nonzero;stroke:none" />
      <path
         inkscape:connector-curvature="0"
         id="path3801-5"
         d="m 552.97211,297.11874 c 0.32774,-11.62637 0.48581,-13.03976 1.78339,-15.94635 0.78307,-1.7541 1.5736,-3.18927 1.75674,-3.18927 0.18313,0 0.86236,0.47839 1.5094,1.06309 1.94351,1.75627 9.00905,1.43357 13.17158,-0.60157 1.82475,-0.89215 3.42082,-1.51899 3.54683,-1.39298 0.12601,0.12601 -1.56144,5.37607 -3.74988,11.66679 -6.43854,18.50775 -9.71546,29.44504 -14.03398,46.84092 -1.46986,5.92089 -2.91809,11.4272 -3.21827,12.23624 -0.36632,0.98726 -0.67855,-3.09024 -0.94947,-12.39965 -0.42102,-14.46653 -0.40737,-17.31053 0.18366,-38.27722 z"
         style="fill:#0066ff;fill-opacity:1;fill-rule:nonzero;stroke:none" />
      <path
         inkscape:connector-curvature="0"
         id="path3803-7"
         d="m 553.30763,493.14395 c 0.17347,0.17346 1.1309,4.11448 2.12765,8.75783 3.53172,16.45261 11.79865,40.35334 18.99423,54.91468 2.06381,4.17643 3.84663,7.79389 3.96183,8.03881 0.1152,0.24493 -0.84051,0.0749 -2.12381,-0.37791 -7.82403,-2.76048 -15.31703,-0.75827 -15.39988,4.11502 -0.02,1.17582 -0.14527,1.13392 -1.47569,-0.49356 -4.03833,-4.94006 -4.74415,-10.32405 -5.77956,-44.08628 -0.69199,-22.56431 -0.77866,-31.34249 -0.30477,-30.86859 z"
         style="fill:#0066ff;fill-opacity:1;fill-rule:nonzero;stroke:none" />
      <path
         inkscape:connector-curvature="0"
         id="path3805-0"
         d="m 681.82407,552.86784 c 4.15152,-7.99596 6.25183,-13.00118 9.30432,-22.17302 4.39134,-13.19473 9.23976,-29.68141 10.09362,-34.32262 0.71845,-3.90521 0.21857,42.04512 -0.59369,54.57319 -0.59277,9.14275 -1.48344,12.4542 -4.65744,17.31609 l -0.92807,1.42159 -1.0132,-2.01697 c -1.62946,-3.24373 -4.49101,-4.77484 -8.9239,-4.77484 -2.08033,0 -4.91024,0.39793 -6.28871,0.88427 -1.85968,0.65614 -2.48675,0.69532 -2.43056,0.15187 0.0417,-0.40282 2.48859,-5.37962 5.43763,-11.05956 z"
         style="fill:#0066ff;fill-opacity:1;fill-rule:nonzero;stroke:none" />
      <path
         inkscape:connector-curvature="0"
         id="path3807-5"
         d="m 646.34432,590.06403 c 0.27698,-0.16217 2.13557,-0.76349 4.1302,-1.33628 4.69921,-1.34943 7.2843,-2.69639 12.55373,-6.54109 4.10681,-2.99643 4.34707,-3.08931 5.15023,-1.99092 0.46336,0.63368 0.84247,1.62433 0.84247,2.20144 0,1.9143 4.14856,3.87487 8.20098,3.87571 4.44832,9.1e-4 8.62678,-1.88557 13.96695,-6.30577 2.00188,-1.65701 3.77876,-2.86849 3.94862,-2.69217 0.16985,0.17631 -1.67446,2.18334 -4.09847,4.46006 -5.17776,4.86312 -13.65626,9.36042 -22.32182,11.84029 -5.17545,1.48108 -21.20267,3.92088 -21.7707,3.31412 -0.55647,-0.59441 -1.08146,-6.54478 -0.60219,-6.82539 l 0,0 z"
         style="fill:#002255;fill-opacity:1;fill-rule:nonzero;stroke:none" />
      <path
         inkscape:connector-curvature="0"
         id="path3809-5"
         d="m 562.72287,578.78657 c 4.62463,3.83739 8.19885,6.01138 11.45595,6.96799 5.7622,1.69235 10.79661,0.0187 12.42671,-4.13109 0.50344,-1.28164 1.17586,-2.33025 1.49427,-2.33025 0.3184,0 2.3223,1.4043 4.4531,3.12067 4.39469,3.53994 8.34575,5.48077 13.50355,6.63318 l 3.55457,0.7942 -0.35862,2.16761 c -0.19724,1.19218 -0.36162,2.82038 -0.3653,3.61822 -0.007,1.43938 -0.0432,1.44744 -4.71465,1.03955 -12.33824,-1.07732 -23.49269,-4.09965 -31.35231,-8.495 -2.27275,-1.271 -6.02359,-4.09507 -8.3352,-6.27573 -4.53778,-4.2807 -5.74854,-6.41721 -1.76207,-3.10935 l 0,0 z"
         style="fill:#002255;fill-opacity:1;fill-rule:nonzero;stroke:none" />
      <path
         inkscape:connector-curvature="0"
         id="path3811-4"
         d="m 568.28689,253.83639 c 6.37414,-5.32578 13.82559,-8.64679 24.79904,-11.05258 10.98925,-2.40926 15.61843,-2.76896 35.23385,-2.73774 16.76062,0.0267 20.07808,0.19313 26.72912,1.34122 15.71014,2.71185 25.52536,6.64726 32.48572,13.02517 2.20692,2.02225 3.92321,3.76619 3.81396,3.87543 -0.10924,0.10925 -1.58541,-0.48769 -3.28038,-1.32652 -6.18941,-3.0631 -12.77235,-2.27362 -14.68857,1.76157 l -0.80628,1.69789 -1.67665,-2.30537 c -2.28073,-3.13599 -6.15546,-6.54081 -9.22643,-8.1075 -4.27587,-2.18139 -13.56497,-4.18399 -22.81276,-4.91812 -9.81847,-0.77944 -27.76041,0.0405 -34.91944,1.59576 -8.73682,1.89805 -15.18574,5.46802 -18.68848,10.3455 -1.07736,1.50019 -2.14687,2.71709 -2.37669,2.70422 -0.22983,-0.0129 -0.9646,-0.88433 -1.63283,-1.93659 -0.68328,-1.07596 -2.01247,-2.13598 -3.0374,-2.42232 -2.54754,-0.71171 -8.34442,0.0243 -11.04825,1.40283 -2.58684,1.31885 -2.62005,1.3274 -2.62005,0.67476 0,-0.26526 1.68863,-1.89318 3.75252,-3.61761 l 0,0 z"
         style="fill:#002255;fill-opacity:1;fill-rule:nonzero;stroke:none" />
      <path
         inkscape:connector-curvature="0"
         id="path3815-2"
         d="m 577.13958,331.87092 c 34.27603,-17.60949 63.52288,-18.17545 97.11662,-1.87933 4.3829,2.12612 8.29794,4.26214 8.7001,4.74671 0.58112,0.7002 -0.11322,5.01621 -3.383,21.02868 l -4.11419,20.14766 -2.15599,-0.32438 c -1.1858,-0.17842 -6.25648,-1.05849 -11.2682,-1.95572 -8.03401,-1.43831 -11.16074,-1.66781 -26.42538,-1.93965 -23.28182,-0.41461 -36.90106,0.56846 -53.29282,3.84681 -1.87855,0.37571 -1.93156,0.32236 -2.85668,-2.87501 -1.14719,-3.9649 -7.63591,-35.34976 -7.63591,-36.93364 0,-0.80914 1.51364,-1.90892 5.31545,-3.86213 l 0,0 z"
         style="fill:#333333;fill-opacity:1;fill-rule:nonzero;stroke:none" />
      <path
         inkscape:connector-curvature="0"
         id="path3817-3"
         d="m 588.38402,520.10849 c 0.25392,-10.66714 0.60005,-19.53318 0.76919,-19.70232 0.16914,-0.16914 7.47895,0.0189 16.24403,0.41793 24.40523,1.11095 39.30696,0.88311 56.17067,-0.85885 3.68869,-0.38103 3.80099,-0.34985 4.39819,1.22089 0.33706,0.88655 0.79633,11.02954 1.02059,22.53999 l 0.40775,20.92808 -3.9393,1.78617 c -10.28316,4.66261 -17.20003,6.09628 -31.57559,6.54476 -16.78098,0.52352 -26.97411,-1.0194 -38.05447,-5.76026 l -5.29525,-2.26563 -0.30374,-2.72798 c -0.16705,-1.5004 -0.096,-11.45565 0.15793,-22.12278 l 0,0 z"
         style="fill:#333333;fill-opacity:1;fill-rule:nonzero;stroke:none" />
      <path
         inkscape:connector-curvature="0"
         id="path3819-12"
         d="m 683.07498,423.47459 c 0.93751,-16.70903 4.84027,-45.97199 7.89933,-59.2293 l 0.77096,-3.34114 0.49323,3.0374 c 0.27127,1.67057 0.65965,20.83355 0.86306,42.58441 l 0.36983,39.54702 -1.974,0.39479 c -1.08569,0.21714 -3.58002,0.3948 -5.54294,0.3948 l -3.56894,0 0.0891,-7.13789 c 0.049,-3.92584 0.31917,-11.23838 0.60037,-16.25009 z"
         style="fill:#333333;fill-opacity:1;fill-rule:nonzero;stroke:none" />
      <path
         inkscape:connector-curvature="0"
         id="path3821-4"
         d="m 687.66983,463.50413 c 1.90404,0.22378 3.60315,0.54814 3.7758,0.72079 0.69722,0.69723 -2.86954,31.37932 -3.59564,30.93056 -0.57618,-0.35609 -3.64204,-26.84303 -3.64204,-31.46467 0,-0.36458 1.3355,-0.43659 3.46188,-0.18668 z"
         style="fill:#333333;fill-opacity:1;fill-rule:nonzero;stroke:none" />
      <path
         inkscape:connector-curvature="0"
         id="path3823-4"
         d="m 562.16346,382.16595 c 0.2596,-9.3552 0.71296,-18.10291 1.00746,-19.43936 0.50389,-2.28665 0.63124,-1.92845 2.1598,6.0748 3.93713,20.61418 7.63875,56.19086 7.69532,73.96069 l 0.013,4.10049 -5.77106,0 -5.77106,0 0.0972,-23.84359 c 0.0535,-13.11398 0.30965,-31.49784 0.56925,-40.85303 z"
         style="fill:#333333;fill-opacity:1;fill-rule:nonzero;stroke:none" />
      <path
         inkscape:connector-curvature="0"
         id="path3825-9"
         d="m 565.82527,463.64421 c 1.0441,-0.20882 2.69787,-0.37968 3.67504,-0.37968 l 1.77667,0 -0.34556,3.49301 c -1.64996,16.67788 -2.88493,27.11489 -3.34325,28.25469 -0.30078,0.74798 -0.56419,1.05343 -0.58537,0.67876 -0.0212,-0.37466 -0.72192,-6.05525 -1.55721,-12.62353 -0.83528,-6.56828 -1.5187,-13.54011 -1.5187,-15.49295 0,-3.49072 0.032,-3.55703 1.89838,-3.9303 z"
         style="fill:#333333;fill-opacity:1;fill-rule:nonzero;stroke:none" />
      <path
         inkscape:connector-curvature="0"
         id="path3827-7"
         d="m 680.96805,261.37866 c 0.80866,-0.80866 2.88582,-0.37193 5.49019,1.15434 6.36616,3.73081 8.7728,12.21058 2.82353,9.94867 -4.5538,-1.73135 -10.17638,-9.24034 -8.31372,-11.10301 z"
         style="fill:#b3b3b3;fill-opacity:1;fill-rule:nonzero;stroke:none" />
      <path
         inkscape:connector-curvature="0"
         id="path3829-8"
         d="m 564.47629,266.61759 c 4.14294,-5.71916 11.75457,-7.50218 9.77261,-2.28922 -1.65516,4.3534 -7.98443,9.42068 -10.54133,8.4395 -1.54921,-0.59448 -1.19333,-3.44175 0.76872,-6.15028 z"
         style="fill:#b3b3b3;fill-opacity:1;fill-rule:nonzero;stroke:none" />
      <path
         inkscape:connector-curvature="0"
         id="path3831-2"
         d="m 676.38469,573.58229 c 4.44619,-5.05114 10.2304,-6.74821 11.85185,-3.47729 1.93825,3.90994 -5.07106,11.01066 -10.86892,11.01066 -4.28545,0 -4.71516,-3.29334 -0.98293,-7.53337 l 0,0 z"
         style="fill:#333333;fill-opacity:1;fill-rule:nonzero;stroke:none" />
      <path
         inkscape:connector-curvature="0"
         id="path3833-2"
         d="m 567.85445,569.15751 c 2.81409,-1.34195 5.87212,-0.43244 9.6107,2.85839 3.46114,3.04662 4.70325,6.18775 3.13297,7.92289 -2.8028,3.09707 -10.76953,-0.49839 -13.66047,-6.1651 -1.59287,-3.12229 -1.52769,-3.45049 0.9168,-4.61618 z"
         style="fill:#333333;fill-opacity:1;fill-rule:nonzero;stroke:none" />
      <path
         inkscape:connector-curvature="0"
         id="path3837-20"
         d="m 563.53155,451.97724 c 1.41416,-0.54266 9.20714,0.017 9.14041,0.65639 -0.0896,0.85842 -4.31687,1.47764 -7.37824,1.08077 -2.54945,-0.3305 -3.35596,-1.12556 -1.76217,-1.73716 z"
         style="fill:#0066ff;fill-opacity:1;fill-rule:nonzero;stroke:none" />
      <path
         inkscape:connector-curvature="0"
         id="path3839-3"
         d="m 682.78037,452.13752 c 0.67977,-0.67977 9.21677,-0.47391 9.65354,0.23279 0.66765,1.08029 -0.0569,1.28893 -4.57421,1.31721 -4.04861,0.0254 -6.04535,-0.58397 -5.07933,-1.55 z"
         style="fill:#0066ff;fill-opacity:1;fill-rule:nonzero;stroke:none" />
      <path
         inkscape:connector-curvature="0"
         id="path3841-5"
         d="m 587.70906,314.83698 c 6.5962,-3.1491 13.34624,-5.36573 20.94416,-6.8778 4.23946,-0.8437 8.24507,-1.06081 18.75534,-1.01655 14.63515,0.0616 21.20424,0.85101 29.07838,3.49427 5.32125,1.78629 16.51892,6.89488 16.07848,7.33532 -0.16221,0.16221 -2.62769,-0.64572 -5.47886,-1.79541 -5.98228,-2.41224 -16.85378,-5.37471 -23.88352,-6.5082 -7.07395,-1.14063 -26.55998,-0.96865 -33.4114,0.29488 -6.92941,1.27791 -14.90347,3.5856 -21.76545,6.29893 -2.94993,1.16643 -5.5062,1.97809 -5.68062,1.80367 -0.17442,-0.17442 2.23915,-1.53752 5.36349,-3.02911 l 0,0 z"
         style="fill:#002255;fill-opacity:1;fill-rule:nonzero;stroke:none" />
      <path
         inkscape:connector-curvature="0"
         id="path3843-3"
         d="m 698.53629,353.91813 c 1.07093,0 6.48343,3.68992 6.04929,4.12405 -0.71613,0.71614 -5.83979,-0.63693 -6.40401,-1.69118 -0.87112,-1.62769 -0.75372,-2.43287 0.35472,-2.43287 z"
         style="fill:#002255;fill-opacity:1;fill-rule:nonzero;stroke:none" />
      <path
         inkscape:connector-curvature="0"
         id="path3845-8"
         d="m 552.94342,355.84578 c 2.82277,-2.04481 4.90867,-2.49517 4.90867,-1.05983 0,1.36687 -1.6754,2.69442 -3.93554,3.11842 -3.48859,0.65447 -3.80229,-0.009 -0.97313,-2.05859 z"
         style="fill:#002255;fill-opacity:1;fill-rule:nonzero;stroke:none" />
      <path
         inkscape:connector-curvature="0"
         id="path3847-6"
         d="m 627.7123,592.65778 13.97204,0 0,2.42992 0,2.42992 -13.97204,0 -13.97204,0 0,-2.42992 0,-2.42992 13.97204,0 z"
         style="fill:#333333;fill-opacity:1;fill-rule:nonzero;stroke:none" />
      <path
         inkscape:connector-curvature="0"
         id="path3849-9"
         d="m 625.03073,252.1043 c 1.71375,-0.71605 2.60912,-0.76795 4.19864,-0.24336 3.87291,1.27818 2.87447,4.5875 -1.35064,4.47671 -4.94881,-0.12976 -6.64281,-2.64778 -2.848,-4.23335 z"
         style="fill:#333333;fill-opacity:1;fill-rule:nonzero;stroke:none" />
    </g>
    <g
       id="g3354">
      <path
         sodipodi:nodetypes="csssssssccccssssssssscsssccccc"
         inkscape:connector-curvature="0"
         id="path2995-0-1"
         d="m 875.18672,347.41634 c 0.21347,-0.21346 -0.83244,-10.20813 -0.63213,-30.24633 0.39411,-39.42389 0.7077,-42.12842 6.1691,-53.20547 7.54951,-15.31223 18.46138,-22.2265 43.99957,-27.88018 8.48437,-1.87828 13.03127,-2.21364 30.00001,-2.21265 20.54057,0.001 29.43312,1.20193 45,6.07617 13.16583,4.12242 22.18723,11.36125 28.04533,22.50358 6.4752,12.31613 6.4496,14.39386 6.8545,54.85406 0.2151,21.50326 1.2882,34.61688 -1.3115,35.50778 2.9002,2.3209 4.8457,4.5111 4.9117,8.2778 0.049,3.5951 -0.8004,2.8189 -4.1309,2.8551 l -4.1308,-0.5541 0.6538,13.1724 c 0.9298,18.736 1.0109,87.612 0.1146,97.3525 -0.6771,7.3579 -0.5245,8.6518 1.5189,12.8728 2.2654,4.6798 2.2697,4.7783 1.5572,36.1118 -0.8813,38.7549 -1.6504,46.9091 -5.0866,53.9325 -5.1578,10.5422 -19.6207,19.9884 -35.17168,22.9717 -19.75433,3.7898 -57.91088,3.7903 -77.64911,10e-4 -17.01124,-3.2657 -32.03615,-13.8998 -36.5015,-25.8345 -1.84374,-4.9279 -2.29454,-9.2159 -3.15315,-29.9927 -0.55102,-13.3335 -1.00611,-30.7851 -1.01132,-38.7813 -0.008,-12.762 0.24307,-15.0226 2.05732,-18.5 1.76576,-3.3844 1.96706,-4.981 1.38208,-10.9614 -0.85276,-8.718 -0.73414,-87.1685 0.15385,-101.7507 l 0.65467,-10.7508 -3.07232,0.6145 c -4.7317,-0.032 -3.78247,-1.407 -3.03322,-4.4281 0.64799,-2.6966 2.7955,-5.5208 3.00897,-5.7343 -1.51889,-0.9338 -0.97533,-3.89872 -1.19737,-6.27116 z"
         style="fill:#000000" />
      <path
         inkscape:connector-curvature="0"
         id="path3019-8"
         d="m 910.02184,383.71422 c 11.34962,-3.68633 25.16103,-4.88592 51.23523,-4.45003 20.33735,0.33999 23.71024,0.67236 35.68945,3.51682 6.62408,1.57289 6.17798,0.16268 4.39828,13.90371 -1.3163,10.16378 -2.10414,26.96871 -2.99597,63.9068 -0.33502,13.87622 -0.82505,23.99042 -1.19589,24.68335 -0.88803,1.6593 -1.71862,1.8752 -11.27566,2.93095 -11.88475,1.3129 -49.50529,1.3129 -61.39004,0 -9.57999,-1.05828 -10.38641,-1.26937 -11.2885,-2.95494 -0.39527,-0.73857 -0.95995,-13.81465 -1.47255,-34.09928 -0.45729,-18.09574 -0.9969,-35.36163 -1.19915,-38.36866 -0.34467,-5.12465 -2.33898,-21.97299 -3.102,-26.20641 -0.33031,-1.83268 -0.22883,-1.94454 2.5968,-2.86231 l 0,0 z"
         style="fill:#ffd42a;fill-opacity:1;fill-rule:nonzero;stroke:none" />
      <path
         inkscape:connector-curvature="0"
         id="path3789-6"
         d="m 898.93746,308.05338 c 6.51134,-19.48432 9.40191,-26.9871 14.08789,-36.56657 6.29096,-12.86053 9.47601,-15.82143 19.75929,-18.3688 5.09826,-1.26294 12.48028,-1.82585 13.73937,-1.04768 0.34281,0.21186 0.80374,1.34708 1.02428,2.52269 0.58412,3.11364 2.67312,4.2515 7.80831,4.25314 3.82778,10e-4 4.30427,-0.14246 5.64795,-1.70311 0.95988,-1.11488 1.46748,-2.4553 1.46748,-3.87519 l 0,-2.17075 5.01171,0.42362 c 16.38859,1.38524 23.10178,5.58401 28.98095,18.12615 6.26691,13.36937 13.07241,31.67856 18.54111,49.88266 1.1936,3.97308 2.0577,7.33619 1.9203,7.47358 -0.1374,0.13738 -0.8193,-0.67181 -1.5155,-1.7982 -2.0381,-3.29766 -7.9334,-8.5237 -12.8431,-11.38507 -7.86908,-4.58605 -19.78152,-8.84021 -29.07076,-10.38172 -5.29432,-0.87857 -29.34116,-0.85722 -35.9314,0.0319 -15.74308,2.12398 -31.33772,9.4502 -40.5493,19.04969 -2.08821,2.17615 -3.78912,3.6386 -3.7798,3.24988 0.009,-0.38873 2.57487,-8.36103 5.70122,-17.71622 z"
         style="fill:#ffd42a;fill-opacity:1;fill-rule:nonzero;stroke:none" />
      <path
         sodipodi:nodetypes="cscssssccsssssccc"
         inkscape:connector-curvature="0"
         id="path3791-2"
         d="m 913.35243,551.59703 c 6.3065,2.94667 13.88695,5.45784 21.01611,6.96198 3.82403,0.80681 4.73315,1.21758 4.88273,2.20621 0.78676,5.19961 1.58559,5.47275 15.931,5.44706 12.93173,-0.0232 14.75347,-0.47473 15.07024,-3.73561 0.24935,-2.56682 0.82224,-2.93045 6.42531,-4.07839 5.93426,-1.21579 14.94236,-4.29491 21.2507,-7.26384 l 4.77878,-2.24906 -0.4163,2.29497 c -1.0398,5.73317 -7.00652,15.28112 -14.00107,22.40451 -8.0002,8.14754 -11.35125,9.05032 -33.4114,9.00106 -19.46662,-0.0435 -21.93646,-0.47608 -28.55157,-5.00104 -3.09055,-2.11404 -5.37594,-4.39418 -8.36477,-8.34558 -4.55941,-6.02776 -9.22207,-14.54415 -9.87197,-18.03121 l -0.42256,-2.26722 5.68477,2.65616 z"
         style="fill:#ffd42a;fill-opacity:1;fill-rule:nonzero;stroke:none" />
      <path
         inkscape:connector-curvature="0"
         id="path3795-4"
         d="m 1005.6167,409.19881 c 3.8583,-30.41107 12.415,-74.11257 14.5111,-74.11257 0.8625,0 2.0066,1.72926 1.59,2.40331 -0.2156,0.34875 -0.7646,0.63409 -1.2202,0.63409 -1.0534,0 -1.5921,1.74639 -4.2161,13.6683 -5.0273,22.84074 -8.1663,43.39035 -9.465,61.96297 -0.8177,11.69438 -0.8169,53.50335 10e-4,63.7854 1.851,23.2617 6.3356,44.04231 9.5045,44.04231 0.7621,0 0.8942,0.40319 0.6054,1.84733 -0.3635,1.81703 -6.108,17.10196 -8.4381,22.45187 -1.1336,2.6028 -1.217,2.66469 -1.7426,1.29269 -1.0351,-2.7017 -1.7358,-30.08549 -2.0305,-79.35388 -0.2773,-46.3381 -0.2248,-49.75465 0.9002,-58.62182 l 0,0 z"
         style="fill:#ffd42a;fill-opacity:1;fill-rule:nonzero;stroke:none" />
      <path
         inkscape:connector-curvature="0"
         id="path3797-7"
         d="m 889.08843,335.20774 c 0.71157,-0.71157 2.30842,-1.01577 2.30842,-0.43975 0,0.15907 1.22084,5.99943 2.71298,12.97858 8.24272,38.55356 10.91456,58.56617 11.84488,88.72051 0.72935,23.64063 -0.66933,92.84304 -2.18597,108.15438 -0.34561,3.48914 -0.47455,3.78298 -1.21537,2.76984 -1.47613,-2.01874 -9.33408,-23.07473 -9.33408,-25.01142 0,-0.43849 0.40303,-0.79726 0.89562,-0.79726 1.80645,0 3.52254,-5.34273 6.04881,-18.83188 3.03846,-16.22395 3.48345,-22.2792 3.81979,-51.97807 0.35182,-31.06481 -0.0554,-39.41446 -2.87318,-58.9154 -4.37,-30.24319 -9.29766,-52.27861 -12.07456,-53.99482 -0.88456,-0.54669 -0.86087,-1.74118 0.0527,-2.65471 z"
         style="fill:#ffd42a;fill-opacity:1;fill-rule:nonzero;stroke:none" />
      <path
         inkscape:connector-curvature="0"
         id="path3799-2"
         d="m 1007.6718,276.76816 c 0.1155,0 1.8159,0.71309 3.7787,1.58464 5.0065,2.2232 9.8503,2.59575 12.6064,0.96962 2.464,-1.45375 2.8172,-1.21775 4.4383,2.96551 0.924,2.38451 1.0603,6.24406 1.2316,34.87765 0.1328,22.19185 -10e-4,31.8788 -0.4307,31.1742 -0.3429,-0.56223 -1.7182,-5.56895 -3.0563,-11.12604 -4.1768,-17.34639 -9.7497,-35.69227 -16.2854,-53.61143 -1.371,-3.75878 -2.3981,-6.83415 -2.2826,-6.83415 z"
         style="fill:#ffd42a;fill-opacity:1;fill-rule:nonzero;stroke:none" />
      <path
         inkscape:connector-curvature="0"
         id="path3801-2"
         d="m 880.44207,297.11874 c 0.32774,-11.62637 0.48581,-13.03976 1.78339,-15.94635 0.78307,-1.7541 1.5736,-3.18927 1.75674,-3.18927 0.18313,0 0.86236,0.47839 1.5094,1.06309 1.94351,1.75627 9.00905,1.43357 13.17158,-0.60157 1.82475,-0.89215 3.42082,-1.51899 3.54683,-1.39298 0.12601,0.12601 -1.56144,5.37607 -3.74988,11.66679 -6.43854,18.50775 -9.71546,29.44504 -14.03398,46.84092 -1.46986,5.92089 -2.91809,11.4272 -3.21827,12.23624 -0.36632,0.98726 -0.67855,-3.09024 -0.94947,-12.39965 -0.42102,-14.46653 -0.40737,-17.31053 0.18366,-38.27722 z"
         style="fill:#ffd42a;fill-opacity:1;fill-rule:nonzero;stroke:none" />
      <path
         inkscape:connector-curvature="0"
         id="path3803-9"
         d="m 880.77759,493.14395 c 0.17347,0.17346 1.1309,4.11448 2.12765,8.75783 3.53172,16.45261 11.79865,40.35334 18.99423,54.91468 2.06381,4.17643 3.84663,7.79389 3.96183,8.03881 0.1152,0.24493 -0.84051,0.0749 -2.12381,-0.37791 -7.82403,-2.76048 -15.31703,-0.75827 -15.39988,4.11502 -0.02,1.17582 -0.14527,1.13392 -1.47569,-0.49356 -4.03833,-4.94006 -4.74415,-10.32405 -5.77956,-44.08628 -0.69199,-22.56431 -0.77866,-31.34249 -0.30477,-30.86859 z"
         style="fill:#ffd42a;fill-opacity:1;fill-rule:nonzero;stroke:none" />
      <path
         inkscape:connector-curvature="0"
         id="path3805-6"
         d="m 1009.294,552.86784 c 4.1515,-7.99596 6.2519,-13.00118 9.3043,-22.17302 4.3914,-13.19473 9.2398,-29.68141 10.0937,-34.32262 0.7184,-3.90521 0.2185,42.04512 -0.5937,54.57319 -0.5928,9.14275 -1.4835,12.4542 -4.6575,17.31609 l -0.928,1.42159 -1.0132,-2.01697 c -1.6295,-3.24373 -4.491,-4.77484 -8.9239,-4.77484 -2.0804,0 -4.9103,0.39793 -6.2887,0.88427 -1.8597,0.65614 -2.4868,0.69532 -2.4306,0.15187 0.042,-0.40282 2.4886,-5.37962 5.4376,-11.05956 z"
         style="fill:#ffd42a;fill-opacity:1;fill-rule:nonzero;stroke:none" />
      <path
         inkscape:connector-curvature="0"
         id="path3807-4"
         d="m 973.81428,590.06403 c 0.27698,-0.16217 2.13557,-0.76349 4.1302,-1.33628 4.69921,-1.34943 7.2843,-2.69639 12.55374,-6.54109 4.1068,-2.99643 4.34706,-3.08931 5.15022,-1.99092 0.46336,0.63368 0.84247,1.62433 0.84247,2.20144 0,1.9143 4.14859,3.87487 8.20099,3.87571 4.4483,9.1e-4 8.6268,-1.88557 13.9669,-6.30577 2.0019,-1.65701 3.7788,-2.86849 3.9487,-2.69217 0.1698,0.17631 -1.6745,2.18334 -4.0985,4.46006 -5.1778,4.86312 -13.6563,9.36042 -22.32183,11.84029 -5.17545,1.48108 -21.20267,3.92088 -21.7707,3.31412 -0.55647,-0.59441 -1.08146,-6.54478 -0.60219,-6.82539 l 0,0 z"
         style="fill:#aa8800;fill-opacity:1;fill-rule:nonzero;stroke:none" />
      <path
         inkscape:connector-curvature="0"
         id="path3809-2"
         d="m 890.19283,578.78657 c 4.62463,3.83739 8.19885,6.01138 11.45595,6.96799 5.7622,1.69235 10.79661,0.0187 12.42671,-4.13109 0.50344,-1.28164 1.17586,-2.33025 1.49427,-2.33025 0.3184,0 2.3223,1.4043 4.4531,3.12067 4.39469,3.53994 8.34575,5.48077 13.50355,6.63318 l 3.55457,0.7942 -0.35862,2.16761 c -0.19724,1.19218 -0.36162,2.82038 -0.3653,3.61822 -0.007,1.43938 -0.0432,1.44744 -4.71465,1.03955 -12.33824,-1.07732 -23.49269,-4.09965 -31.35231,-8.495 -2.27275,-1.271 -6.02359,-4.09507 -8.3352,-6.27573 -4.53778,-4.2807 -5.74854,-6.41721 -1.76207,-3.10935 l 0,0 z"
         style="fill:#aa8800;fill-opacity:1;fill-rule:nonzero;stroke:none" />
      <path
         inkscape:connector-curvature="0"
         id="path3811-9"
         d="m 895.75685,253.83639 c 6.37414,-5.32578 13.82559,-8.64679 24.79904,-11.05258 10.98925,-2.40926 15.61843,-2.76896 35.23386,-2.73774 16.76062,0.0267 20.07807,0.19313 26.72912,1.34122 15.71014,2.71185 25.52533,6.64726 32.48573,13.02517 2.2069,2.02225 3.9232,3.76619 3.8139,3.87543 -0.1092,0.10925 -1.5854,-0.48769 -3.2803,-1.32652 -6.1894,-3.0631 -12.7724,-2.27362 -14.6886,1.76157 l -0.8063,1.69789 -1.67663,-2.30537 c -2.28074,-3.13599 -6.15547,-6.54081 -9.22644,-8.1075 -4.27587,-2.18139 -13.56497,-4.18399 -22.81275,-4.91812 -9.81847,-0.77944 -27.76041,0.0405 -34.91945,1.59576 -8.73682,1.89805 -15.18574,5.46802 -18.68848,10.3455 -1.07736,1.50019 -2.14687,2.71709 -2.37669,2.70422 -0.22983,-0.0129 -0.9646,-0.88433 -1.63283,-1.93659 -0.68328,-1.07596 -2.01247,-2.13598 -3.0374,-2.42232 -2.54754,-0.71171 -8.34442,0.0243 -11.04825,1.40283 -2.58684,1.31885 -2.62005,1.3274 -2.62005,0.67476 0,-0.26526 1.68863,-1.89318 3.75252,-3.61761 l 0,0 z"
         style="fill:#aa8800;fill-opacity:1;fill-rule:nonzero;stroke:none" />
      <path
         inkscape:connector-curvature="0"
         id="path3815-28"
         d="m 904.60954,331.87092 c 34.27604,-17.60949 63.52289,-18.17545 97.11666,-1.87933 4.3829,2.12612 8.2979,4.26214 8.7001,4.74671 0.5811,0.7002 -0.1133,5.01621 -3.383,21.02868 l -4.1142,20.14766 -2.156,-0.32438 c -1.18582,-0.17842 -6.2565,-1.05849 -11.26821,-1.95572 -8.03402,-1.43831 -11.16075,-1.66781 -26.42538,-1.93965 -23.28182,-0.41461 -36.90107,0.56846 -53.29283,3.84681 -1.87855,0.37571 -1.93156,0.32236 -2.85668,-2.87501 -1.14719,-3.9649 -7.63591,-35.34976 -7.63591,-36.93364 0,-0.80914 1.51364,-1.90892 5.31545,-3.86213 l 0,0 z"
         style="fill:#333333;fill-opacity:1;fill-rule:nonzero;stroke:none" />
      <path
         inkscape:connector-curvature="0"
         id="path3817-5"
         d="m 915.85398,520.10849 c 0.25392,-10.66714 0.60005,-19.53318 0.76919,-19.70232 0.16914,-0.16914 7.47895,0.0189 16.24403,0.41793 24.40524,1.11095 39.30697,0.88311 56.17067,-0.85885 3.68869,-0.38103 3.80099,-0.34985 4.39819,1.22089 0.33706,0.88655 0.79633,11.02954 1.02059,22.53999 l 0.40775,20.92808 -3.9393,1.78617 c -10.28316,4.66261 -17.20003,6.09628 -31.57558,6.54476 -16.78098,0.52352 -26.97412,-1.0194 -38.05448,-5.76026 l -5.29525,-2.26563 -0.30374,-2.72798 c -0.16705,-1.5004 -0.096,-11.45565 0.15793,-22.12278 l 0,0 z"
         style="fill:#333333;fill-opacity:1;fill-rule:nonzero;stroke:none" />
      <path
         inkscape:connector-curvature="0"
         id="path3819-0"
         d="m 1010.5449,423.47459 c 0.9375,-16.70903 4.8403,-45.97199 7.8994,-59.2293 l 0.7709,-3.34114 0.4933,3.0374 c 0.2712,1.67057 0.6596,20.83355 0.863,42.58441 l 0.3699,39.54702 -1.9741,0.39479 c -1.0856,0.21714 -3.58,0.3948 -5.5429,0.3948 l -3.5689,0 0.089,-7.13789 c 0.049,-3.92584 0.3191,-11.23838 0.6003,-16.25009 z"
         style="fill:#333333;fill-opacity:1;fill-rule:nonzero;stroke:none" />
      <path
         inkscape:connector-curvature="0"
         id="path3821-46"
         d="m 1015.1398,463.50413 c 1.904,0.22378 3.6031,0.54814 3.7758,0.72079 0.6972,0.69723 -2.8696,31.37932 -3.5956,30.93056 -0.5762,-0.35609 -3.6421,-26.84303 -3.6421,-31.46467 0,-0.36458 1.3355,-0.43659 3.4619,-0.18668 z"
         style="fill:#333333;fill-opacity:1;fill-rule:nonzero;stroke:none" />
      <path
         inkscape:connector-curvature="0"
         id="path3823-1"
         d="m 889.63342,382.16595 c 0.2596,-9.3552 0.71296,-18.10291 1.00746,-19.43936 0.50389,-2.28665 0.63124,-1.92845 2.1598,6.0748 3.93713,20.61418 7.63875,56.19086 7.69532,73.96069 l 0.013,4.10049 -5.77106,0 -5.77106,0 0.0972,-23.84359 c 0.0535,-13.11398 0.30965,-31.49784 0.56925,-40.85303 z"
         style="fill:#333333;fill-opacity:1;fill-rule:nonzero;stroke:none" />
      <path
         inkscape:connector-curvature="0"
         id="path3825-2"
         d="m 893.29523,463.64421 c 1.0441,-0.20882 2.69787,-0.37968 3.67504,-0.37968 l 1.77667,0 -0.34556,3.49301 c -1.64996,16.67788 -2.88493,27.11489 -3.34325,28.25469 -0.30078,0.74798 -0.56419,1.05343 -0.58537,0.67876 -0.0212,-0.37466 -0.72192,-6.05525 -1.55721,-12.62353 -0.83528,-6.56828 -1.5187,-13.54011 -1.5187,-15.49295 0,-3.49072 0.032,-3.55703 1.89838,-3.9303 z"
         style="fill:#333333;fill-opacity:1;fill-rule:nonzero;stroke:none" />
      <path
         inkscape:connector-curvature="0"
         id="path3827-1"
         d="m 1008.438,261.37866 c 0.8087,-0.80866 2.8858,-0.37193 5.4902,1.15434 6.3662,3.73081 8.7728,12.21058 2.8235,9.94867 -4.5538,-1.73135 -10.1763,-9.24034 -8.3137,-11.10301 z"
         style="fill:#b3b3b3;fill-opacity:1;fill-rule:nonzero;stroke:none" />
      <path
         inkscape:connector-curvature="0"
         id="path3829-6"
         d="m 891.94625,266.61759 c 4.14294,-5.71916 11.75457,-7.50218 9.77261,-2.28922 -1.65516,4.3534 -7.98443,9.42068 -10.54133,8.4395 -1.54921,-0.59448 -1.19333,-3.44175 0.76872,-6.15028 z"
         style="fill:#b3b3b3;fill-opacity:1;fill-rule:nonzero;stroke:none" />
      <path
         inkscape:connector-curvature="0"
         id="path3831-72"
         d="m 1003.8546,573.58229 c 4.4462,-5.05114 10.2305,-6.74821 11.8519,-3.47729 1.9382,3.90994 -5.0711,11.01066 -10.8689,11.01066 -4.2855,0 -4.7152,-3.29334 -0.983,-7.53337 l 0,0 z"
         style="fill:#333333;fill-opacity:1;fill-rule:nonzero;stroke:none" />
      <path
         inkscape:connector-curvature="0"
         id="path3833-28"
         d="m 895.32441,569.15751 c 2.81409,-1.34195 5.87212,-0.43244 9.6107,2.85839 3.46114,3.04662 4.70325,6.18775 3.13297,7.92289 -2.8028,3.09707 -10.76953,-0.49839 -13.66047,-6.1651 -1.59287,-3.12229 -1.52769,-3.45049 0.9168,-4.61618 z"
         style="fill:#333333;fill-opacity:1;fill-rule:nonzero;stroke:none" />
      <path
         inkscape:connector-curvature="0"
         id="path3837-6"
         d="m 891.00151,451.97724 c 1.41416,-0.54266 9.20714,0.017 9.14041,0.65639 -0.0896,0.85842 -4.31687,1.47764 -7.37824,1.08077 -2.54945,-0.3305 -3.35596,-1.12556 -1.76217,-1.73716 z"
         style="fill:#ffd42a;fill-opacity:1;fill-rule:nonzero;stroke:none" />
      <path
         inkscape:connector-curvature="0"
         id="path3839-1"
         d="m 1010.2503,452.13752 c 0.6798,-0.67977 9.2168,-0.47391 9.6536,0.23279 0.6676,1.08029 -0.057,1.28893 -4.5742,1.31721 -4.0486,0.0254 -6.0454,-0.58397 -5.0794,-1.55 z"
         style="fill:#ffd42a;fill-opacity:1;fill-rule:nonzero;stroke:none" />
      <path
         inkscape:connector-curvature="0"
         id="path3841-0"
         d="m 915.17902,314.83698 c 6.5962,-3.1491 13.34624,-5.36573 20.94416,-6.8778 4.23947,-0.8437 8.24508,-1.06081 18.75535,-1.01655 14.63515,0.0616 21.20423,0.85101 29.07837,3.49427 5.32125,1.78629 16.5189,6.89488 16.0785,7.33532 -0.16223,0.16221 -2.62771,-0.64572 -5.47888,-1.79541 -5.98227,-2.41224 -16.85378,-5.37471 -23.88351,-6.5082 -7.07395,-1.14063 -26.55998,-0.96865 -33.41141,0.29488 -6.92941,1.27791 -14.90347,3.5856 -21.76545,6.29893 -2.94993,1.16643 -5.5062,1.97809 -5.68062,1.80367 -0.17442,-0.17442 2.23915,-1.53752 5.36349,-3.02911 l 0,0 z"
         style="fill:#aa8800;fill-opacity:1;fill-rule:nonzero;stroke:none" />
      <path
         inkscape:connector-curvature="0"
         id="path3843-98"
         d="m 1026.0063,353.91813 c 1.0709,0 6.4834,3.68992 6.0492,4.12405 -0.7161,0.71614 -5.8397,-0.63693 -6.404,-1.69118 -0.8711,-1.62769 -0.7537,-2.43287 0.3548,-2.43287 z"
         style="fill:#aa8800;fill-opacity:1;fill-rule:nonzero;stroke:none" />
      <path
         inkscape:connector-curvature="0"
         id="path3845-2"
         d="m 880.41338,355.84578 c 2.82277,-2.04481 4.90867,-2.49517 4.90867,-1.05983 0,1.36687 -1.6754,2.69442 -3.93554,3.11842 -3.48859,0.65447 -3.80229,-0.009 -0.97313,-2.05859 z"
         style="fill:#aa8800;fill-opacity:1;fill-rule:nonzero;stroke:none" />
      <path
         inkscape:connector-curvature="0"
         id="path3847-5"
         d="m 955.18227,592.65778 13.97204,0 0,2.42992 0,2.42992 -13.97204,0 -13.97204,0 0,-2.42992 0,-2.42992 13.97204,0 z"
         style="fill:#333333;fill-opacity:1;fill-rule:nonzero;stroke:none" />
      <path
         inkscape:connector-curvature="0"
         id="path3849-0"
         d="m 952.5007,252.1043 c 1.71375,-0.71605 2.60912,-0.76795 4.19864,-0.24336 3.87291,1.27818 2.87447,4.5875 -1.35064,4.47671 -4.94881,-0.12976 -6.64281,-2.64778 -2.848,-4.23335 z"
         style="fill:#333333;fill-opacity:1;fill-rule:nonzero;stroke:none" />
    </g>
  </g>
</svg>
