<?xml version="1.0" encoding="UTF-8" standalone="no"?>
<!-- Created with Inkscape (http://www.inkscape.org/) -->

<svg
   xmlns:dc="http://purl.org/dc/elements/1.1/"
   xmlns:cc="http://creativecommons.org/ns#"
   xmlns:rdf="http://www.w3.org/1999/02/22-rdf-syntax-ns#"
   xmlns:svg="http://www.w3.org/2000/svg"
   xmlns="http://www.w3.org/2000/svg"
   xmlns:sodipodi="http://sodipodi.sourceforge.net/DTD/sodipodi-0.dtd"
   xmlns:inkscape="http://www.inkscape.org/namespaces/inkscape"
   width="744.09448819"
   height="1052.3622047"
   id="svg2"
   version="1.1"
   inkscape:version="0.48.1 "
   sodipodi:docname="New document 1">
  <defs
     id="defs4" />
  <sodipodi:namedview
     id="base"
     pagecolor="#ffffff"
     bordercolor="#666666"
     borderopacity="1.0"
     inkscape:pageopacity="0.0"
     inkscape:pageshadow="2"
     inkscape:zoom="0.49497475"
     inkscape:cx="-104.21779"
     inkscape:cy="688.84081"
     inkscape:document-units="px"
     inkscape:current-layer="layer1"
     showgrid="false"
     inkscape:window-width="1920"
     inkscape:window-height="1058"
     inkscape:window-x="1272"
     inkscape:window-y="-8"
     inkscape:window-maximized="1" />
  <metadata
     id="metadata7">
    <rdf:RDF>
      <cc:Work
         rdf:about="">
        <dc:format>image/svg+xml</dc:format>
        <dc:type
           rdf:resource="http://purl.org/dc/dcmitype/StillImage" />
        <dc:title></dc:title>
      </cc:Work>
    </rdf:RDF>
  </metadata>
  <g
     inkscape:label="Layer 1"
     inkscape:groupmode="layer"
     id="layer1">
    <path
       sodipodi:type="arc"
       style="fill:#000000;fill-rule:evenodd;stroke:#000000;stroke-width:1px;stroke-linecap:butt;stroke-linejoin:miter;stroke-opacity:1"
       id="path2985"
       sodipodi:cx="373.57144"
       sodipodi:cy="423.79074"
       sodipodi:rx="12.142858"
       sodipodi:ry="11.428572"
       d="m 385.7143,423.79074 a 12.142858,11.428572 0 1 1 -24.28572,0 12.142858,11.428572 0 1 1 24.28572,0 z"
       transform="translate(-1.4285714,0.35714286)" />
    <path
       style="fill:#000000;fill-opacity:1;stroke:#000000;stroke-width:0.67040855px;stroke-linecap:butt;stroke-linejoin:miter;stroke-opacity:1"
       d="m 368.18065,405.02698 c 8.18403,-0.25217 8.18403,-0.25217 8.18403,-0.25217 l 0,-31.77378 5.22869,0 -8.41137,-18.66079 -9.77537,18.15645 4.54669,0 z"
       id="path2999"
       inkscape:connector-curvature="0" />
    <path
       style="fill:#000000;fill-opacity:1;stroke:#000000;stroke-width:0.67040855px;stroke-linecap:butt;stroke-linejoin:miter;stroke-opacity:1"
       d="m 385.12058,406.03236 c 5.83595,5.74314 5.83595,5.74314 5.83595,5.74314 l 22.97354,-21.94971 3.61204,3.78052 7.68173,-18.9728 -19.88069,5.47476 3.14091,3.28741 z"
       id="path2999-8"
       inkscape:connector-curvature="0" />
    <path
       style="fill:#000000;fill-opacity:1;stroke:#000000;stroke-width:0.67040855px;stroke-linecap:butt;stroke-linejoin:miter;stroke-opacity:1"
       d="m 392.7052,419.96178 c 0.26396,8.18366 0.26396,8.18366 0.26396,8.18366 l 31.77375,-0.0458 0.008,5.22868 18.64865,-8.43824 -18.17052,-9.7492 0.007,4.54668 z"
       id="path2999-8-5"
       inkscape:connector-curvature="0" />
    <path
       style="fill:#000000;fill-opacity:1;stroke:#000000;stroke-width:0.67040855px;stroke-linecap:butt;stroke-linejoin:miter;stroke-opacity:1"
       d="m 391.8031,435.59311 c -5.21215,6.3147 -5.21215,6.3147 -5.21215,6.3147 l 23.87009,20.97122 -3.45067,3.92836 19.57058,5.99739 -7.18815,-19.32732 -3.00055,3.416 z"
       id="path2999-8-5-8"
       inkscape:connector-curvature="0"
       inkscape:transform-center-x="-19.085947"
       inkscape:transform-center-y="-21.377524" />
    <path
       style="fill:#000000;fill-opacity:1;stroke:#000000;stroke-width:0.67040855px;stroke-linecap:butt;stroke-linejoin:miter;stroke-opacity:1"
       d="m 376.52323,442.19111 c -8.18255,0.2964 -8.18255,0.2964 -8.18255,0.2964 l 0.17171,31.77331 -5.2286,0.0287 8.51209,18.61506 9.6771,-18.20902 -4.54662,0.025 z"
       id="path2999-8-5-8-5"
       inkscape:connector-curvature="0"
       inkscape:transform-center-x="-28.607187"
       inkscape:transform-center-y="2.022426" />
    <path
       style="fill:#000000;fill-opacity:1;stroke:#000000;stroke-width:0.67040855px;stroke-linecap:butt;stroke-linejoin:miter;stroke-opacity:1"
       d="m 353.23783,413.41779 c 5.36785,-6.18289 5.36785,-6.18289 5.36785,-6.18289 l -23.34023,-21.55938 3.54748,-3.84116 -19.4151,-6.48306 6.70443,19.50038 3.08474,-3.34018 z"
       id="path2999-8-5-8-5-1"
       inkscape:connector-curvature="0"
       inkscape:transform-center-x="19.533923"
       inkscape:transform-center-y="20.830506" />
    <path
       style="fill:#000000;fill-opacity:1;stroke:#000000;stroke-width:0.67040855px;stroke-linecap:butt;stroke-linejoin:miter;stroke-opacity:1"
       d="m 351.2981,428.56192 c -0.17243,-8.1861 -0.17243,-8.1861 -0.17243,-8.1861 l -31.77228,-0.30951 0.0505,-5.22844 -18.74183,8.22921 18.06036,9.95175 0.0439,-4.54648 z"
       id="path2999-8-5-8-5-1-9"
       inkscape:connector-curvature="0"
       inkscape:transform-center-x="2.482408"
       inkscape:transform-center-y="28.468101" />
    <path
       style="fill:#000000;fill-opacity:1;stroke:#000000;stroke-width:0.67040855px;stroke-linecap:butt;stroke-linejoin:miter;stroke-opacity:1"
       d="m 360.46783,441.52214 c -6.52704,-4.94366 -6.52704,-4.94366 -6.52704,-4.94366 l -19.95514,24.72582 -4.06915,-3.28348 -5.17408,19.80417 19.00995,-7.98974 -3.5384,-2.8552 z"
       id="path2999-8-5-8-5-1-9-8"
       inkscape:connector-curvature="0"
       inkscape:transform-center-x="-22.265577"
       inkscape:transform-center-y="18.307656" />
  </g>
</svg>
